<svg id="Layer_1" data-name="Layer 1" xmlns="http://www.w3.org/2000/svg" viewBox="0 0 1280 340.14"><defs><style>.cls-1{fill:#ff725c;}</style></defs><title>logo-kelvin-RGB</title><path class="cls-1" d="M44.9,138.95,160.72,20.23h59.93L86.14,154.94,221.43,317.78H161.3L54.15,185.39l-9.25,9.25V317.78H0V20.23H44.9Z"/><path class="cls-1" d="M425.7,62.44H306.41v71.5H422.23v42.2H306.41v99.44H425.7v42.2H261.51V20.23H425.7Z"/><path class="cls-1" d="M529.58,20.23V275.58h87.49v42.2H484.67V20.23Z"/><path class="cls-1" d="M649.83,20.23l82.29,206.2,83.44-206.2H864.7L731.15,340.14,600.69,20.23Z"/><path class="cls-1" d="M946.61,20.23V317.78H901.7V20.23Z"/><path class="cls-1" d="M1018.1,317.78V0l217,227V20.23H1280V335.9L1063,109.46V317.78Z"/></svg>