<svg id="Layer_1" data-name="Layer 1" xmlns="http://www.w3.org/2000/svg" viewBox="0 0 860 260"><defs><style>.cls-1,.cls-2{fill:#ff4136;}.cls-2{stroke:#000;stroke-linecap:round;stroke-linejoin:round;stroke-width:0;}</style></defs><title>logo-kingsecurity-RGB</title><path class="cls-1" d="M130,240c-2.39,0-4.8-.08-7.17-.23l-1.28,20c.68,0,1.35.19,2,.19h0c.06,0,.12-.07.18-.07s0,0,0,0l.09,0s0,.06,0,.06,0,.06.05.06h0s0-.07.07-.06l0,0,0,0s0,.05.06.05,0,.06.05.06h.09s.05-.06.08-.06l0,0h.18s0,.05,0,.05.06.05.08.05h9.05c2.59,0,5.17-.25,7.72-.48l-1.75-19.94C136.56,239.87,133.27,240,130,240Z"/><path class="cls-1" d="M130,20a111.68,111.68,0,0,1,14.3.92L146.87,1a82.13,82.13,0,0,0-10.54-1H135s-.08,0-.11,0l0,0h-.08s0,0,0,0,0,0-.05,0h0s-.05,0-.08,0l0,0,0,0,0,0h-.16s0,0-.06,0l-.05,0,0,0,0,0h-.17l-.05,0h-.06l0,0-.06,0h-.26l-.05,0h-9.66a70.44,70.44,0,0,0-10.82,1.08V1s-.48,0-.58,0h0c-.1,0-.2.12-.3.14v0l-.29.06s0-.13,0-.13-.06-.12-.09-.12h0c-.06,0-.13.16-.19.17s0,.07,0,.08-.06,0-.08,0,0-.15,0-.15-.06-.14-.1-.14h0s-.06.18-.09.19,0,.09,0,.09,0,.05-.07.05l0,0-.09,0h-.84l3,19.77A111.42,111.42,0,0,1,130,20Z"/><path class="cls-1" d="M96.68,25.13,90.62,6.07q-3.56,1.13-7,2.46h0l-.29.11h0l-.07,0h0l-.28.11h0l-.06,0h0l-.2.08h0l-.06,0h0L82.5,9h0l-.2.08h0l-.06,0h0l-.06,0h0L82,9.16h0l-.06,0h0l-.05,0h0l-.06,0h0l-.12,0h0l-.05,0h0l-.05,0h0l-.18.07h0l0,0h0l0,0h0l-.1,0h0l-.05,0h0l-.05,0h0l-.05,0h0l-.09,0,0,0,0,0h0l0,0h0l0,0,0,0-.07,0,0,0,0,0,0,0,0,0,0,0,0,0L80,10l0,0,0,0,0,0,0,0,0,0,0,0-.07,0,0,0,0,0,0,0,0,0,0,0,0,0,0,0-.07,0,0,0,0,0,0,0,0,0,0,0,0,0-.08,0h0l0,0,0,0,0,0,0,0,0,0,0,0-.06,0,0,0,0,0,0,0,0,0,0,0-.06,0,0,0-.06,0,0,0,0,0,0,0,0,0,0,0-.06,0,0,0,0,0,0,0,0,0,0,0-.05,0h0l-.08,0,0,0,0,0,0,0,0,0,0,0-.05,0,0,0-.07,0,0,0,0,0,0,0,0,0,0,0-.05,0-.06,0,0,0,0,0,0,0,0,0,0,0,0,0-.07,0,0,0,0,0,0,0,0,0,0,0,0,0-.07,0,0,0,0,0,0,0,0,0,0,0,0,0,0,0-.09,0h0l-.05,0h0l-.05,0h0l-.05,0h0l-.11.05h0l-.05,0h0l-.05,0h0l-.18.08h0l-.06,0h0l-.06,0h0l-.2.09h0l-.06,0h0l-.27.13h0l-.07,0h0l-2.3,1.12L81,31.47A109.51,109.51,0,0,1,96.68,25.13Z"/><path class="cls-1" d="M82.66,251.07A96.9,96.9,0,0,0,94.46,255h.12a.65.65,0,0,1,.33.17V255s.1,0,.22,0h.38c.1,0,.2.24.3.27v.1c.13,0,0,.11.08.15s0,.08,0,.1h0c1,0,.55.07.67.11h.15c1.62.43,3.32.82,5,1.19l4.36-19.53a109.22,109.22,0,0,1-16.13-4.94Z"/><path class="cls-1" d="M156.46,236.8l4.79,19.42h.38l.08,0h0l.06,0h0l.06,0h0l.08,0h0l.09,0h0l.07,0h0l.07,0h0l.09,0h0l.09,0h0l.07,0s0,.07,0,.07.06,0,.09,0h.1s.06-.1.09-.11,0,0,0,0l.08,0v.12c.06,0,.13.07.19.07h0s.06-.15.09-.16l.14-.07a2.67,2.67,0,0,0,.51-.14v0a23.26,23.26,0,0,1,4-1.19h0c0-.07.39-.14.61-.21h0l.27-.09h0l.09,0h0l.28-.09h0l.09,0h0l.19-.06h0l.09,0V254s.06,0,.09,0h0c.06,0,.12-.11.18-.13s0,0,0,0l.08,0h0l.18-.06h0l.08,0h0l.08,0h0l.18-.06h0l.07,0h0l.08,0h0l.09,0h0l.08,0h0l.07,0h0l.18-.06h0l.07,0h0l.07,0h0l.09,0h0l.08,0h0l.06,0h0l.06,0h0l.08,0h0l.06,0h0l.06,0h0l.08,0h0l.08,0h0l.05,0h0l.06,0h0l.08,0h0l.06,0h0l.05,0h0l.06,0h0l.08,0h0l0,0h0l0,0h0l.07,0h0l.05,0h0l0,0h0l0,0h0l.08,0h0l0,0,0,0h0l0,0,0,0,.07,0,0,0,0,0h0l0,0h0l0,0h0l.08,0h0l0,0h0l0,0h0l.08,0h0l0,0h0l0,0h0l.05,0h0l.1,0h0l.05,0h0l0,0h0l.17-.06h0l0,0h0l0,0h0l.1,0h0l0,0h0l0,0h0l0,0h0l.1,0h0l.05,0h0l.05,0h0l.18-.07h0l.05,0h0l.05,0h0l.1,0h0l.05,0h0l0,0h0l0,0h0l.08,0h0l0,0h0l0,0h0l.09,0h0l0,0h0l0,0,0,0,0,0,0,0,.07,0,0,0,0,0,0,0,0,0,0,0,0,0,.08,0h0l0,0h0l0,0h0l.06,0h0l.07,0h0l0,0h0l.05,0h0l.08,0h0l.06,0h0l.06,0h0l.07,0h0l.08,0h0l.07,0h0l.07,0h0l.17-.07h0l.07,0s0-.14,0-.15.06-.17.08-.17h0c.06,0,.12.09.18.07v.07s.05,0,.08,0h0c.09,0,.18-.12.27-.12h0a.68.68,0,0,0,.25-.08l-7.73-18.43A109.43,109.43,0,0,1,156.46,236.8Z"/><path class="cls-1" d="M48.22,231.06a130.33,130.33,0,0,0,16.44,11.35l10.07-17.28a110.66,110.66,0,0,1-13.92-9.61Z"/><path class="cls-1" d="M259.77,122.68l-20,1.11c.11,2.05.18,4.14.18,6.21,0,3.58-.17,7.2-.51,10.74l20,1.92c.09-.94.38-1.89.38-2.83h0s-.13-.06-.13-.09l-.07,0s0-.05,0-.08l0,0s0,0,0-.07l.12,0s.12,0,.12-.07v0s-.12,0-.12-.07l-.06,0s0,0,0-.07,0,0,0,0,0,0,0-.07,0,0,0,0,0,0,0-.07v-.62l0-.25v-1.67s0,0,0,0,0-.05,0-.08v-.22h0s0-.07,0-.1v0s0-.05,0-.08v0s0,0,0-.07v-.14s0,0,0-.07,0,0,0,0,0,0,0-.07v0s0,0,0-.06v0s0,0,0-.06,0,0,0,0v-.06s0,0,0,0v-.1s0,0,0-.06,0,0,0,0,0,0,0-.06,0,0,0,0v-.2s0,0,0-.07,0,0,0,0,0-.05,0-.07v-.22h0V134h0v-.33s0,0,0-.07,0,0,0,0,0,0,0-.06v0s0,0,0-.06,0,0,0,0,0,0,0-.06v-1.05h0V132h0V129.9h0v-.2h0v-.09h0v-.09h0v-.1h0v-.09h0v-.41h0v-2h0C259.91,125.41,259.85,124,259.77,122.68Z"/><path class="cls-1" d="M237.61,107l19.56-4.15q-.48-2.26-1-4.49h0l-.07-.29H256s-.09-.06-.09-.09h0V97.8h0s0-.06,0-.09h0s0-.06,0-.09h0l0-.19h0l0-.08h0l0-.19h0l0-.08v0l0-.08h0l0-.18v0l0-.08v0l0-.08h0l0-.09h0l0-.08v0l0-.07v0l0-.18v0l0-.07v0l0-.08h0l0-.09h0l0-.08v0l0-.07v0l0-.18v0l0-.07v0l0-.07v0l0-.09h0l0-.08v0l0-.07v0l0-.08h0l0-.09v0l0-.07v0l0-.07v0l0-.09v0l0-.07v0l0-.06v0l0-.08h0l0-.09v0l0-.07v0l0-.07v0l0-.09h0l0-.09v0l0-.07v0l0-.08h0l0-.09v0l0-.07v0l0-.07v0l0-.09h0l0-.09v0l0-.06v0l0-.07h0l0-.09v0l0-.07v0l0-.07v0l-.05-.18v0l0-.07v0l0-.07v0l0-.09h0l0-.08v0l0-.07v0l-.05-.18v0l0-.07v0l0-.07v0l0-.09h0l0-.08v0l0-.07v0L254,91h0l0-.08v0l0-.08h0l-.06-.18v0l0-.07v0l0-.09h0l0-.09h0l0-.08v0l0-.08h0l-.06-.18v0l0-.07v0l0-.09h0l0-.09h0l0-.08v0l0-.07v0l-.06-.18v0l0-.07v0l0-.08h-.25s-.27-.06-.27-.09h0s.22-.06.21-.08l.11,0s0-.05,0-.07h0c0-.06,0-.12,0-.18s0,0,0,0l0-.07v0l0-.08h0l0-.09h0l0-.08v0l0-.07v0l-.06-.18v0l0-.07v0l0-.07v0l0-.09h0l0-.08v0l0-.07,0,0a.25.25,0,0,1,0-.08h0s-.05-.06-.06-.09l0,0,0-.07v0l0-.07v0l0-.09h0l0-.08v0l0-.06v0l0-.07v0l0-.08v0l0-.06v0l0-.06v0l0-.08h0l0-.07v0l0-.06v0l0-.06v0l0-.08v0l0-.05v0l0,0v0l0-.05,0-.06,0,0,0,0,0,0,0,0,0,0,0,0v0l0-.1v0l0-.05v0l0-.05v0l0-.11h0l0-.05v0l0-.05v0l-.07-.19h0l0-.06v0l0-.06h0l-.08-.21h0l0-.07h0l-.11-.29h0l-.06-.14-18.69,7.12A109.38,109.38,0,0,1,237.61,107Z"/><path class="cls-1" d="M213.23,201.93,228.35,215a130.54,130.54,0,0,0,8.84-11.45h0l.05-.08h0l.16-.24h0l0-.07h0l0-.07h0l.05-.08h0l0-.06,0,0,0-.05,0,0,0,0,0,0,0-.07,0,0,0,0,0,0,0,0,0,0,0,0,.1-.15,0,0,0,0,0,0,0,0v0l.12-.18h0l0-.06h0l0-.06h0q1-1.43,1.87-2.89l-16.95-10.62A110.79,110.79,0,0,1,213.23,201.93Z"/><path class="cls-1" d="M185.12,12.23q-4.36-2-8.88-3.77h0l-.29-.11h0l-.07,0h0l-.29-.11h0l-.07,0h0l-.29-.11h0a.9.9,0,0,0-.29-.09h0s0,0-.07,0h0l-.29-.11h0l-.07,0h0l-.28-.1h0l-.07,0h0l-.21-.08h0l-.07,0h0l-.28-.1h0l-.07,0h0l-.28-.1h0l-.07,0h0l-.21-.07h0l-.07,0V7.11s0-.11-.07-.11h0c-.07,0-.14,0-.22,0v0h-.08L172.12,7h0l-.07,0h0l-.29-.1V7c-.1,0-.2,0-.29,0h0s0-.14-.07-.15,0-.06,0-.07-.19-.1-.29-.13,0,0,0,0c-1.54-.51-3.09-1-4.65-1.46l-5.59,19.2a109.43,109.43,0,0,1,15.8,6Z"/><path class="cls-1" d="M187.52,223.79l10.47,17a130.22,130.22,0,0,0,12.27-8.55h0l.3-.24h0l.07-.05h0l.15-.12h0l.07-.05h0l.06,0h0l.14-.12h0l.06,0h0l.06,0h0l.14-.11h0l.05,0,0,0,0,0,0,0,.06,0h0l.07-.05,0,0,0,0,0,0,0,0,0,0,.05,0,0,0,.06,0,0,0,0,0,0,0,0,0,0,0,0,0,.05,0,0,0,0,0,0,0,0,0,0,0,0,0,0,0,.09-.07h0l0,0,0,0,0,0,0,0,0,0h0l.11-.09h0l0,0,0,0,0,0h0l.05,0h0l.12-.1h0l.05,0h0l.05,0h0l.23-.19h0l.06,0h0l.53-.45-13-15.24A110.75,110.75,0,0,1,187.52,223.79Z"/><path class="cls-1" d="M231.13,173.37l18.38,7.89q1-2.33,1.91-4.7h0l0-.09h0l.1-.27v0l0-.07h0l.07-.18v0l0-.07v0l0-.07v0l0-.09h0l0-.07v0l0-.06v0l0-.06v0l0-.08v0l0-.05v0l0,0v0l0-.05,0-.06,0,0,0,0v0l0,0v0l.06-.17v0l0,0v0l0,0v0l0-.1v0l0-.05v0l0-.05v0l0-.06h0l0-.13h0l0-.06v0l0-.06v0l.07-.2h0l0-.06h0l.1-.28h0l0-.07h0l.1-.29h0a1.22,1.22,0,0,0,.12-.37h0c1-3.3,2.15-6.65,3-10.06l-19.37-5A109.37,109.37,0,0,1,231.13,173.37Z"/><path class="cls-1" d="M218.18,34.47q-2.26-2.09-4.63-4.07h0l-.06,0h0l-.24-.2h0l-.06,0h0l-.24-.2h0l-.06,0h0l-.24-.2h0l-.06,0h0l-.24-.2h0l-.06,0h0l-.24-.19h0l-.06,0h0l-.24-.19h0l-.06,0h0l-.24-.19h0l-.06,0h0l-.23-.19h0l-.05,0h0l-.23-.18h0l-.05,0h0l-.05,0h0l-.18-.14h0l-.05,0h0l-.05,0h0l-.18-.14h0l-.05,0h0l-.06,0h0l-.18-.14h0l-.05,0h0l-.05,0h0l-.17-.13h0l0,0h0l-.05,0h0L209.3,27h0l-.05,0h0l-.05,0h0l-.17-.13h0l-.05,0h0l-.05,0h0l-.16-.13,0,0,0,0,0,0,0,0h0l-.16-.12h0l0,0,0,0,0,0h0l-.16-.12h0l0,0,0,0,0,0h0l-.17-.12h0l0,0h0l0,0h0l-.16-.12,0,0,0,0,0,0,0,0h0l-.15-.11,0,0,0,0,0,0,0,0,0,0-.09-.07h0l0,0,0,0,0,0,0,0,0,0,0,0-.08-.06h0l0,0,0,0,0,0,0,0,0,0,0,0-.09-.06h0l0,0,0,0,0,0,0,0,0,0,0,0-.09-.06h0l0,0,0,0,0,0,0,0,0,0,0,0-.05,0,0,0,0,0,0,0,0,0,0,0,0,0,0,0-.09-.07h0l0,0,0,0,0,0,0,0,0,0,0,0,0,0-.05,0,0,0,0,0,0,0,0,0,0,0,0,0,0,0-.07,0,0,0,0,0,0,0,0,0,0,0,0,0,0,0-.07,0,0,0,0,0,0,0,0,0,0,0,0,0,0,0-.07,0,0,0,0,0,0,0,0,0,0,0-.05,0,0,0-.07,0,0,0,0,0,0,0,0,0,0,0-.05,0h0l-.07,0,0,0-.05,0,0,0,0,0,0,0-.06,0h0l-.07,0h0l-.05,0,0,0,0,0,0,0-.06,0h0l-.07,0,0,0-.05,0,0,0-.05,0,0,0h0L191.34,38.67a110.92,110.92,0,0,1,13.27,10.49Z"/><path class="cls-1" d="M66.52,40.16,55,23.68C53.38,24.8,51.81,26,50.28,27h0c-.1,0-.2.31-.31.39v.08s0,.08-.07.1v0l-.15.13h0l-.07.05h0l-.07.05h0l-.15.12h0l-.07.05h0l-.06.05h0l-.15.12h0l-.06,0h0l-.07.05h0l-.15.12h0l-.06,0h0l-.06,0h0l-.14.11h0l-.06,0h0l-.06,0h0l-.14.11h0l-.05,0,0,0-.05,0h0l-.14.11,0,0-.05,0,0,0,0,0,0,0-.06.05h0l-.07.06,0,0,0,0,0,0,0,0,0,0-.06,0h0l-.06.05,0,0,0,0,0,0,0,0,0,0-.06.05h0l-.07.06,0,0,0,0,0,0,0,0,0,0-.06,0h0l-.07.05,0,0,0,0,0,0,0,0,0,0,0,0,0,0-.06,0,0,0,0,0,0,0,0,0,0,0,0,0,0,0,0,0,0,0,0,0,0,0,0,0,0,0,0,0,0,0,0,0,0,0,0,0,0,0,0,0,0,0,0,0-.05,0,0,0,0,0,0,0,0,0,0,0,0,0,0,0-.07.06,0,0,0,0,0,0,0,0,0,0,0,0,0,0-.09.08h0l0,0,0,0,0,0,0,0,0,0,0,0-.08.07h0l0,0,0,0,0,0,0,0,0,0,0,0-.15.13,0,0,0,0,0,0,0,0,0,0L44,32.5l0,0,0,0,0,0,0,0h0l-.15.13,0,0,0,0,0,0,0,0h0l-.15.13h0l0,0,0,0,0,0h0l-.15.14h0l0,0,0,0,0,0h0l-.16.14h0l0,0h0l0,0h0l-.17.15h0l-.05,0h0l-.05,0h0l-.16.15h0l-.05,0h0l-.22.2h0l-.05,0h0l-.05,0h0l-.22.21h0l-.22.21h0l-.05.05h0l-.28.26h0l-1.47,1.4L53.5,51A111,111,0,0,1,66.52,40.16Z"/><path class="cls-1" d="M38.14,190.53l-16.69,11q1.47,2.22,3,4.37h0l0,.06h0l.12.17v0l0,0,0,0,0,0,0,0,.11.15,0,0,0,0,0,0,0,0,0,0,0,0,.05.07v0l0,.05,0,0,0,.05,0,0,0,.06h0l.05.07h0l.05.07v0l0,.06h0l.05.07h0l.11.15h0l.05.07h0l.17.23h0q3.71,5,7.88,9.55l14.81-13.44A110.89,110.89,0,0,1,38.14,190.53Z"/><path class="cls-1" d="M225.62,75.56,243,65.65q-2.44-4.27-5.18-8.33h0l-.05-.08h0l-.16-.24h0l0-.07h0l-.11-.16h0l0-.07v0l0-.06h0l-.1-.15v0l0-.06,0,0,0-.06v0l0-.07h0l-.05-.07v0l0-.05,0,0,0,0,0,0,0-.06v0l0-.06,0,0,0,0,0,0,0,0,0,0,0,0,0,0,0,0,0,0,0,0,0,0,0,0,0,0,0,0-.06-.08,0,0,0,0,0,0,0,0,0,0,0,0h0l-.08-.11h0l0-.05v0l0-.05h0l-.17-.24h0l0-.06h0l-.18-.25h0l0-.06h0l-.18-.25h0q-1.74-2.4-3.58-4.72L216.13,61.56A110.61,110.61,0,0,1,225.62,75.56Z"/><line class="cls-2" x1="202.5" y1="22.08" x2="202.5" y2="22.08"/><path class="cls-1" d="M20,130c0-1.19,0-2.4.06-3.59L0,125.77c0,.24-.09.48-.09.72h0v.67h0v.09h0v.1h0v.2h0c0,.35,0,.41,0,1.41h0v-.16h0v.21h0v.1h0v.2h0v.3h0v.09h0v.52h0v.09h0v.2h0v.09h0v.2h0V131h0v.3h0v.3h0V132h0v2.1s.08.05.08.08,0,0,0,0,0,0,0,.07,0,0,0,0,0,0,0,.06v1.94l-.12,0s-.12.07-.12.1v.07h0V137s.19,0,.19,0H0a1,1,0,0,0-.14.25h0a4.1,4.1,0,0,0,.22.74h0c.16,2,.42,5.23.74,7.89l19.87-2.47A113.12,113.12,0,0,1,20,130Z"/><path class="cls-1" d="M24.11,159.91,4.86,165.33q1.08,3.85,2.39,7.59H7.07s-.16.06-.16.09h0c0,.06.23.12.25.19h.1s.07.06.08.08h0l0,.08h0l.07.18h0l0,.08h0l0,.09h.16s.19.06.19.09h0s-.14.06-.13.08l-.07,0s0,0,0,.07v0c0,.06,0,.12.05.18s0,0,0,0l0,.07v0l0,.06v0l0,.08h0l0,.07v0l0,.06v0l0,.06v0l0,.08v0L8,175v0L8,175v0l0,.05v0l0,.07,0,0,0,0,0,0v0l0,0,0,0,0,.08v0l0,0v0l0,.05v0l.07.18v0l0,.05v0l0,.06h0l.08.2v0l0,.06h0l.11.28h0q1.44,3.75,3.11,7.38l18.18-8.33A109.42,109.42,0,0,1,24.11,159.91Z"/><path class="cls-1" d="M26.27,93.29,7.42,86.61q-2.12,6-3.67,12.26h0l-.07.29h0l0,.09h.15c0,.07.1.13.1.19h0s-.17.06-.17.09H3.66s-.05.06-.06.09h0c0,.06,0,.13-.05.19v0l0,.08v0l0,.09h0l0,.09v0l0,.07v0l0,.07v0l0,.09h0l0,.08v.12l0,.07v0l0,.09V101l0,.08v.64l0,.1v.2l0,.19v.08s0,0,0,0a1.05,1.05,0,0,0,0,.21h0a.36.36,0,0,1,0,.07s0,.14,0,.15,0,.2,0,.2h0c-.22,1-.44,2-.64,3l19.66,3.62A110.22,110.22,0,0,1,26.27,93.29Z"/><path class="cls-1" d="M33.12,77.85a110.51,110.51,0,0,1,9.15-14.22L26.34,51.55v0l0,0v0l-.07.09v0l0,0,0,0,0,0v0L26,52h0l0,.05v0l0,.05h0l-.18.24h0l0,.06h0l-.18.24h0l0,.06h0l-.18.24h0l0,.06h0l-.18.25h.07a.6.6,0,0,0-.15.31h0c-2,2-2.85,4.32-4.17,6.32h-.53c-.07,0-.15,1-.22,1h.11c-.07,0-.19-.06-.19,0h0c0,.22-.34.44-.48.66h-.16c-.07.11-.36.22-.36.33h0a.6.6,0,0,1-.08.33h.06c-.14.22-.24.44-.37.67h0q-1.57,2.61-3,5.3Z"/><path class="cls-1" d="M210.64,90a90.39,90.39,0,0,0-40.21-40.43,89.4,89.4,0,0,0-31-9.08,90.84,90.84,0,0,0-18.88,0,89.4,89.4,0,0,0-31,9.08A90.39,90.39,0,0,0,49.37,90a89.34,89.34,0,0,0-7.12,20,90.5,90.5,0,0,0-1.75,29.44c0,.19.05.37.07.56a90,90,0,0,0,178.87,0c0-.19.05-.37.07-.56A90.55,90.55,0,0,0,217.76,110,89.34,89.34,0,0,0,210.64,90ZM80.5,80.56A69.92,69.92,0,0,1,187.4,90H160a69.19,69.19,0,0,1-6.79,30H106.79A69.19,69.19,0,0,1,100,90H72.61A70.55,70.55,0,0,1,80.5,80.56ZM138.92,140a70.56,70.56,0,0,1-8.92,7.4,70.56,70.56,0,0,1-8.92-7.4ZM64.74,155.26A69.86,69.86,0,0,1,62.93,110H82.24a89.37,89.37,0,0,0,12.95,30A90.44,90.44,0,0,0,110,157.07a69.77,69.77,0,0,1-45.26-1.81ZM130,200a69.78,69.78,0,0,1-49.44-20.49A91,91,0,0,0,90,180a89.62,89.62,0,0,0,40-9.36A89.62,89.62,0,0,0,170,180a91,91,0,0,0,9.44-.49A69.78,69.78,0,0,1,130,200Zm69.28-60a69.71,69.71,0,0,1-4,15.26A69.77,69.77,0,0,1,150,157.07,90.55,90.55,0,0,0,174.87,120a89.34,89.34,0,0,0,2.9-10h19.31a69.74,69.74,0,0,1,2.2,30Z"/><path class="cls-1" d="M323.75,52.3h21V77.95l22-25.65h27.92L369.87,77.92l25.9,42.25H369.92L355.59,92.26l-10.85,11.35v16.56h-21Z"/><path class="cls-1" d="M403.56,52.3h21v67.87h-21Z"/><path class="cls-1" d="M439.8,52.3h19.6L485,89.85V52.3h19.79v67.87H485L459.54,82.9v37.27H439.8Z"/><path class="cls-1" d="M552.88,95.59V81.46h32.44V110.4Q576,116.74,568.84,119a56,56,0,0,1-17,2.29q-12.1,0-19.72-4.12a28.21,28.21,0,0,1-11.82-12.27,40.29,40.29,0,0,1-4.19-18.7,39,39,0,0,1,4.59-19.33,29.71,29.71,0,0,1,13.44-12.48q6.91-3.29,18.58-3.29,11.26,0,16.85,2a21.88,21.88,0,0,1,9.27,6.32,28.06,28.06,0,0,1,5.54,10.86L564.14,74a11,11,0,0,0-4.24-5.88,13.25,13.25,0,0,0-7.62-2,13.75,13.75,0,0,0-11,4.79q-4.1,4.79-4.1,15.16,0,11,4.15,15.74t11.56,4.72a22,22,0,0,0,6.72-1,36.27,36.27,0,0,0,7.32-3.47V95.59Z"/><path class="cls-1" d="M320,192.53l20-1.25a15.21,15.21,0,0,0,2.64,7.41q3.24,4.12,9.27,4.12,4.5,0,6.93-2.11a6.31,6.31,0,0,0,2.43-4.88,6.23,6.23,0,0,0-2.32-4.72q-2.32-2.08-10.75-3.94-13.81-3.1-19.7-8.24a16.57,16.57,0,0,1-5.93-13.1,17.78,17.78,0,0,1,3-9.88,20.13,20.13,0,0,1,9.13-7.31q6.09-2.66,16.71-2.66,13,0,19.86,4.84t8.13,15.39l-19.79,1.16q-.79-4.58-3.31-6.67a10.65,10.65,0,0,0-7-2.08,8.42,8.42,0,0,0-5.51,1.55,4.75,4.75,0,0,0-1.85,3.77,3.78,3.78,0,0,0,1.53,2.92q1.48,1.34,7,2.5,13.76,3,19.72,6a20.72,20.72,0,0,1,8.67,7.52,19.06,19.06,0,0,1,2.71,10,21.5,21.5,0,0,1-3.61,12,22.61,22.61,0,0,1-10.1,8.36q-6.49,2.85-16.36,2.85-17.33,0-24-6.67A26.28,26.28,0,0,1,320,192.53Z"/><path class="cls-1" d="M392.16,147.11h56.26V161.6H413.2v10.79h32.67v13.84H413.2v13.38h36.24V215H392.16Z"/><path class="cls-1" d="M506,187.21l18.4,5.56a33.87,33.87,0,0,1-5.84,12.92,25.34,25.34,0,0,1-9.89,7.82q-5.91,2.64-15,2.64-11.08,0-18.1-3.22t-12.12-11.31q-5.1-8.1-5.1-20.73,0-16.84,9-25.89t25.37-9q12.84,0,20.18,5.19t10.91,15.93l-18.54,4.12a15.86,15.86,0,0,0-2-4.54,12.07,12.07,0,0,0-4.31-3.7,13.26,13.26,0,0,0-16.64,4.44q-2.87,4.26-2.87,13.36,0,11.28,3.43,15.47t9.64,4.19q6,0,9.11-3.38T506,187.21Z"/><path class="cls-1" d="M578.78,147.11h20.95v40.44a34,34,0,0,1-1.88,11.36,24.53,24.53,0,0,1-5.89,9.35,23.49,23.49,0,0,1-8.41,5.62,42.39,42.39,0,0,1-14.69,2.27,92.47,92.47,0,0,1-10.82-.69,28.33,28.33,0,0,1-9.8-2.75,24.53,24.53,0,0,1-7.21-5.85,21.49,21.49,0,0,1-4.47-7.82,40.49,40.49,0,0,1-1.95-11.47V147.11h20.95v41.4q0,5.55,3.08,8.67t8.55,3.12q5.42,0,8.5-3.08t3.08-8.72Z"/><path class="cls-1" d="M613.91,215V147.11h35q9.73,0,14.88,1.67a15.84,15.84,0,0,1,8.3,6.18,19.15,19.15,0,0,1-5.89,27.38,25.42,25.42,0,0,1-7.37,2.69,14.21,14.21,0,0,1,8.82,6.07,26.63,26.63,0,0,1,2.94,4.22L680.74,215H657L645.8,194.24q-2.13-4-3.8-5.23a8.81,8.81,0,0,0-5.14-1.57H635V215ZM635,174.61h8.85a31.66,31.66,0,0,0,5.56-.93,5.55,5.55,0,0,0,3.41-2.13,6.87,6.87,0,0,0-.76-9q-2.09-1.76-7.83-1.76H635Z"/><path class="cls-1" d="M688.3,147.11h21V215h-21Z"/><path class="cls-1" d="M719.62,147.11h63.82v16.76H762V215H741V163.87H719.62Z"/><path class="cls-1" d="M786.08,147.11H809.4L823.09,170l13.72-22.9H860l-26.42,39.44V215h-21V186.56Z"/></svg>