<svg id="Layer_1" data-name="Layer 1" xmlns="http://www.w3.org/2000/svg" viewBox="0 0 786.49 161.15"><defs><style>.cls-1{fill:#fff;opacity:0.66;}</style></defs><title>logo-Circus&amp;amp;Co</title><path class="cls-1" d="M45.75.38H52a19.11,19.11,0,0,0,6.79,1.44q0,1.53,4.21,1.91l7.27,5.36Q76.18,4.79,78,1.34h.48V6.6l.48.48v.57q-.77,0-1.44,1.91,1.44,0,1.44.86v1.44l-.48.57.48.48v.48l-.48.48.48.48v2.49l-.48,2.78.48.48v.48l-.48,1.53L79,23.54l-1,.86,1,1-.48,2.49L79,29.29,78,31.2l1,1-.48.48.48.48v.48l-.48,9.19v.48l-.48.57v.29l1,1.05v2.39l-1.44,2L79,51.87v1l-1,1.05H65l-.48-.57-.48.57H61.63l-.48-.57h-.48l-.48.57-.48-1.53.48-7.66-.48-.57v-.29l1-3-1-1v-2h1v-.48l-1-1.34V35.6l1-1.05q0-10.62-6.22-14.93,0-1.24-8.71-2.39v-.38l-2.49.86v-.48Q37,22.11,37,31.2l-.86,1v1l.38,3.45-.38.48.86.86v5.36h-.86l.38,2.39v1.44l-.38,3L37,52.83l-.48.48.48.57v1l-.86,4.31.38,1.91h-.38L37,64.89V66.8l-.48,2q0,1.25,8.23,10A32.29,32.29,0,0,1,38,86.13l-1.82,7.18V95.8l.38,1.82-.38,1.91.86,2-.86,3.83.86,3.45-.86,1-2.49-1h-.48v.48q3.35.38,3.35,2.3l-.38,3,.86,3.83-.48.48v.48q3.06,12.44,9.19,12.44h3q12-5.07,12-14.26l.48-.57,1.34.57H64v-.57q-3.83,0-3.83-3.92l.48-.48-.48-2.78.48-5.74-.48-3,.48-.48h1l.86,1,1.53-.48,14-.48V102h-.48l1,8.23V116l-1,1.53,1,1.34L78,121.26v1.53H76.47v-1.05h-.86q0,1.53,1.91,1.53l.48.48v.48A27.88,27.88,0,0,1,65.46,140q-6,7.75-21.25,7.75-3.54,0-14.83-7.27A134.91,134.91,0,0,1,19.24,127v-1l.48-1.53h-.48q-1,0-4.31-9.47l.48-.48-2.39-3-2.49-10L9.67,95.8l.38-.48v-.48q0-7.18-8.61-14.07L0,78.86l6.7-8.13,1.53-8.13L7.75,62q.48-5.74,1.44-6.7l-.48-2,1-1.91-.48-1.34q4.4-20.58,8.13-25.65.29-2.77,1.91-2.78V20.58a6.6,6.6,0,0,1,3.45-5.74Q24,9.38,32.25,5.65,32.73,4,37.52,2.87,37.52.38,45.75.38ZM16,111.59V113l1.82-1-.48-.48v-.48Zm5.26-3.83q-1.05,2.2-2,2.49v-.48l-1.44.48v.86l.48-.38h1l.48.38h.48q0-1.82,2.49-2.3v-.57Zm1-87.19h.86v-1q1.44,0,1.44-1H24ZM27.47,103q0,1.25-3,2.39v1l3.45-2.87V103Zm0-89.1-.48.48v.48h.48l1.44-.48v-.48Zm1,92-.48,1.44h3.35v-.48l-1.91-1Zm4.79.48-.48.48v.48l2.49,1h.48v-.48ZM47.66,14.83l-.48.48v.48h1.53Zm1.91-1.44-.38.48v1h.38l.48-1.44Zm0-1.53v.57h1.91v-.57Zm5.84-4.79V8.61h.48l.38-1.53Zm4.31,0v.57h.48q0-1.53,1.44-1.53l.48-1.44h-.48Q60.67,4.88,59.72,7.08Zm.48,13v.48l2.3,1.05V20.58l-1.82-.48Zm3.35,6.32v1H65v-.48Zm1.91,90.06v.48H66.9v-1Zm1-90.63,2,3v.48h.86l-.38-.48v-.48l.38-.48v-.48A4.55,4.55,0,0,1,66.42,25.84Zm1.05,92.54v.48l1.44.48v-1Zm1.82.48v1h2.39v-.48Zm.48-89.1v.86h1a1.35,1.35,0,0,0,1.53,1.53v1h1l-2.49-3.35ZM76,34.07v2H77q1,0,1-1.53v-.48h-.48v1.05H76.47V34.07Zm21-24.69q2.1,0,5.93,3.54,2.49-3.16,4.69-3.16,12.82,0,16.56,9.86l-5.55-1.53q-5.46.48-5.46,3.16l.38,10.24v2.3l-.38,3.16.38,3.16-.38,2.78.38,3.54v9.09l6.32,7.85v.77Q117,68,115.42,68l.48.48v.38a8.24,8.24,0,0,0-2.78,5.46l.38,7.46v6.7h-.77v3.64l.38,2.3-.38.38v.38l.77,4.79-.38,9.09.38,1.15-.38,1.53q4.11,4.79,5.46,4.79a9.33,9.33,0,0,0,5.17-2h.38q0,4.5-8.71,7.08l-.38-.38h-.38Q111.21,124,109.2,124a8.25,8.25,0,0,1-6.7-3.16q0,1.72-6.7,2-9.67-1.72-13.4-5.93l-2-2.39.38-.38,4.79,2.39q6.22-1.91,6.22-5.93l-.38-.38v-2.39l.86-1.15-.86-3.16.38-.38-.38-4.79v-.77q0-12.06.86-16.56l-.86-2.3.38-2.39-.38-3.92V71.2l-5.84-7.46Q91.78,56,91.78,53.5l.48-7.08-.86-3.54V41.73L92.64,31Q91.3,31,91,23.54l.38-1.15q0-3.54-5.84-4.79h-.48a5.82,5.82,0,0,0-4.31,2v-.77q3.64-6.41,13-9.47Zm-3.16,11q0,.86,1.15.86h.38v-.48Zm0,52.06v.38h.77L95.8,71.2v-.38l-1.63,1.63Zm2-2.39v.38h.77l1.15-1.53v-.38q-.57,0-1.15,1.53Zm2.68,3.16v.38h1.63v-.77Zm.86-7.85L99,66.51h.77V65.37Zm1.91-3.16-.77,1.53v.77h.38l.77-1.91v-.38Zm-.38-42.59V20l2.78-.38v-.38H102Zm2,84.31v.38l1.53.38q0-.76-1.15-.77Zm.77-2.78v.77h1.15v-.38Zm.77-43.74L104,58.67h.77V57.42Zm0-38.57.77.77h.38v-.77Zm.77,37L104.79,57h.77l.48-1.15ZM106,102.4v.38l1.53.38H108v-.38l-1.53-.38Zm.38-48.52v.38l.77-.77v-.38Zm.38-35.79v.77l1.53-.38v-.38Zm0,49.19v.38L108,66.51h-.38Zm0,38.66v.77l1.53.38Zm1.53-55.6L108,51.58V52h.38l.86-1.63Zm.86-2.39v.86l1.15-.38v-.86Zm0,55.6v.77h1.91l.38.38h.38v-.77H110l-.38-.38ZM167.58,9q8.71,0,16.37,7.18,7.56,8.9,7.56,16.75-.19,3.83-.77,3.83l.77,1.44a28,28,0,0,1-6.12,17.13q-1,0-5.26,5.65v.77q9,3.83,10.24,7.66l.77,1.53-.38,1.15h.38q1.15,0,1.15,4.12v1.53l-.38,2.3.38.38-.38,2.68.38,4.12-.77,1.53.38,1.15-.77,5q1.15,3.93,1.91,14.36,2.39,2.68,4.12,2.68h.38a4.66,4.66,0,0,0,3.06-1.53H201v.38q0,2-1.15,2.3h-1.15l-2.3-.38H196V113l3.83.77q-2.2,5.36-13.3,9.86L185,124h-1.05q-4.5,0-7.66-5.36-1.63,0-4.88-5.65l.38-.38v-.38l-.38-2.3,1.15.38h.38V110q-.77,0-.77-1.15L171,107.67l.38-1.05-.38-1.53.77-5-.77-.77V97l.77-.77-.38-2.58.38-1.15-.38-2.3V89.1l.38-1.53L171.4,86v-.38l.38-3-.38-3.06.38-.38v-.38q-.86,0-1.15-5,0-3-10.24-3.35h-5V83.45L155,90.63l.38,1.91-.38.38.38,1.91v3l-.77.77.77,2.68-.38.38.38.38-.38.38h-.38l.77,3.83-.38.38v.29l.38,1.53-.38,1.15q2.77,5.74,6.13,5.74,1.82,0,4.12-2.3h.38v.38a8.89,8.89,0,0,1-3.73,4.88q-2.87,5.74-7.66,5.74a15.88,15.88,0,0,1-9.47-5q-3.45,4.21-6.41,4.21h-.77q-5.84,0-13.69-9.86V113l5.65,1.53,2.3-.38,1.15.38-.38-.38v-.38q.86,0,2.3-4.59-.77,0-.77-1.15l.38-.38-.38-1.82v-.77l.38-3.06-.38-2.3.38-1.15-.38-2.3V94.46l.38-.38-.38-.38V81.92l.77-1.15-.77-8.71.38-1.15-5.65-6.12-.38-.38V64q6-6.89,6-9.47l.38-2.68-.38-.38v-.77l.38-1.44-.77-2.3v-.38l.77-.77-.77-2.68.38-1.91-.38-3.45V34.45l.38-1.91-.38-2.68.77-9.09q-2.49-2.68-5-2.68l-6,3.06v-.38q4.31-6.32,10.24-8.33,1-1.53,5-1.53,2.58.48,6,4.12,8.71-5.65,12.15-5.65h.38l.38.38ZM139.92,65.56q0,1.05-4.59,1.91v.38h1.15a13.05,13.05,0,0,1,4.88-1.53v-.77l-.38.38h-.38l-.29-.38Zm-3.45,0v.38h1.91v-.38Zm1.15-13.69v.77l1.53.77V53ZM146.71,64v.77l1.91-.38V64Zm1.91-49.67v.38h1.91v-.38Zm11,6.41q0,1.15-.77,1.15l-.38-.38-1.91.38h-1.15v3.83L155,27.18l.38.38v.38L155,31l.38,5.36-.38,2.2.38,3.06v2.68l-.77,1.15.77,2.3L155,50.34l.38,1.53L155,53.4q0,3.45,2.3,3.45l5.26.38q7.66-2.2,7.66-7.66,0-3,1.91-3v-.38q-1.53,0-1.53-1.15V37.52l.77-.77Q170,23.83,167.58,23.83q0-1.44-5.65-2.3v-.38l-.38.38H160v-.77Zm-3.83-6.41v.38l1.91.29h.38v-.29l-1.91-.38Zm0,47v.38H157l2.68-.77v-.29h-1.15Zm.38,6.12v.77h1.15v-.38ZM158.87,15v.38l1.91.38h1.15V15h-.38l-1.53.38-.38-.38Zm3.06,44.5.38.38v.38l1.44-.38v-.77ZM163,61v.38h1.91V61Zm1.53-44.79v.38l1.53.38v-.77ZM166,58v.77L168,58v-.38h-.77Zm3.45-41.06v.38l2.68.38h.77v-.38l-2.3-.38Zm1.15,38.76v.77l1.15-.38V55.7Zm.38,6.79v.38l1.91.38h.67v-.38l-2.2-.38Zm2.58-44.79v.38h1.53v-.38Zm1.15,45.55q0,.77,1.15.77h.38v-.38Zm.77-9.47v.38h1.15l.38-.38V53.4h-.38Zm.38-35.31v.38l2.68.38h1.91v-.38l-4.21-.38Zm1.91,91.87v.38l4.21,1.15h1.15q0-.57-5-1.53Zm1.53-45.55v.38l1.53.38h.77v-.38l-1.91-.38Zm1.91-45.55v.38l2.3.38h.77v-.38l-2.3-.38Zm0,31.49v.38H182L183.56,50h-.38Zm3.06,60.77-.38.38v.38h3.35v-.38Zm1.05-44.41v.77h1.53v-.38Zm5.36,45.17q0,.77,1.15.77h.38v-.38ZM237.34,9h4.88a14.29,14.29,0,0,0,5.26,1.15q0,1.15,3.35,1.44l5.65,4.21q4.59-3.35,6-6h.38v4.12l.38.38v.38q-.57,0-1.15,1.53,1.15,0,1.15.67V18l-.38.38.38.38v.38l-.38.38.38.38v1.91L262.9,24l.38.38v.38l-.38,1.15.38,1.15-.77.67.77.77-.38,1.91.38,1.15L262.51,33l.77.77-.38.38.38.38v.38l-.38,7.18v.38l-.38.38v.29l.77.77v1.91l-1.15,1.53,1.15,1.82V50l-.77.77H252.37l-.38-.38-.38.38h-1.82l-.38-.38H249l-.38.38-.38-1.15.38-6-.38-.38v-.29l.77-2.3-.77-.77V38.28H249V37.9l-.77-1.05v-.38l.77-.77q0-8.33-4.88-11.68,0-1-6.79-1.91v-.29l-1.91.67v-.38q-4.88,3.83-4.88,10.91l-.67.77v.77l.29,2.68-.29.38.67.67v4.21h-.67l.29,1.82v1.15l-.29,2.3.67,2.2-.38.38.38.38v.77l-.67,3.35.29,1.53h-.29l.67,3v1.53l-.38,1.53q0,1,6.41,7.85a22.77,22.77,0,0,1-5.26,5.65l-1.44,5.65v1.91l.29,1.44-.29,1.53.67,1.53-.67,3,.67,2.68-.67.77L228,93.6h-.38V94q2.58.29,2.58,1.82l-.29,2.3.67,3-.38.38v.38q2.39,9.76,7.18,9.76h2.3q9.38-3.92,9.38-11.2l.38-.38,1.05.38h1.15V100q-3,0-3-3.06l.38-.38-.38-2.2.38-4.5-.38-2.3.38-.38h.77l.67.77,1.15-.38,10.91-.38v1.15h-.38l.77,6.41v4.5l-.77,1.15.77,1.05-.38,1.91v1.15h-1.15v-.77h-.67q0,1.15,1.44,1.15l.38.38v.38A21.88,21.88,0,0,1,252.75,118q-4.69,6-16.56,6-2.78,0-11.58-5.65a90.75,90.75,0,0,1-7.94-10.53v-.77l.38-1.15h-.38q-.77,0-3.35-7.46l.38-.38-1.91-2.3L209.88,88l-.67-4.5.29-.38v-.38q0-5.55-6.7-10.91l-1.15-1.53,5.26-6.32,1.15-6.41-.38-.38q.38-4.5,1.15-5.26l-.38-1.53.77-1.53-.38-1.05q3.45-16.08,6.32-20,.29-2.2,1.53-2.2v-.77a5.17,5.17,0,0,1,2.68-4.5q1.05-4.31,7.46-7.18.38-1.24,4.12-2.2Q230.93,9,237.34,9ZM214.09,95.8v1.15l1.44-.77-.38-.38v-.38Zm4.12-3q-.77,1.72-1.53,1.91v-.38l-1.15.38v.67l.38-.29h.77l.38.29h.38q0-1.44,1.91-1.82v-.38Zm.77-68h.67V24q1.15,0,1.15-.77h-.38Zm4.12,64.31q0,1-2.3,1.82v.77l2.68-2.2V89.1Zm0-69.58-.38.38v.38h.38l1.15-.38v-.38Zm.77,71.78-.38,1.15h2.58v-.38l-1.44-.77Zm3.73.38-.38.38v.38l1.91.77h.38v-.38Zm11.29-71.39-.38.38v.38h1.15Zm1.44-1.15-.29.38v.77h.29l.38-1.15Zm0-1.15v.38h1.53V18Zm4.59-3.73v1.15h.38l.29-1.15Zm3.35,0v.38h.38a1,1,0,0,1,1.15-1.15l.38-1.15h-.38Q249,12.54,248.25,14.26Zm.38,10.14v.38l1.82.77v-.77L249,24.4Zm2.58,4.88v.77h1.15v-.38Zm1.53,70.34V100h1.15v-.77Zm.77-70.72L255,31.2v.38h.67l-.29-.38v-.38l.29-.38v-.38A3.51,3.51,0,0,1,253.52,28.9Zm.77,72.16v.38l1.15.38v-.77Zm1.44.38v.77h1.91v-.38ZM256.1,32v.67h.77A1,1,0,0,0,258,33.78v.77h.77L256.87,32ZM261,35.31v1.53h.77q.76,0,.77-1.15v-.38h-.38v.77h-.77v-.77ZM277.83,9.38a15,15,0,0,1,7.08,4.12q3.25-3.73,5.65-3.73h.38a12.19,12.19,0,0,1,7.18,4.5l-.77.77h.77l1.15-.38,4.12,4.88v.38l-3.06-.77h-2.2q-1.72,0-3.06,7.56l.38.38L294.67,33l.38,3.45-.77,5.26.77.77-.38,1.82.38,2.3V47H294l.67,1.15-.38,2.2q0,6,7.18,11.68-2.68,3.64-3.73,4.12l-.38-.38q0,1.92-1.53,1.91l.38.38v.38l-1.91,4.12.77,1.15v.77l-.38,1.44.38,1.53V79L294,80q.38,3.45,1.05,3.45l-.38,2.2.38,7.56-.77,1.15.77,3.35v.77l-.38.38q2.58,11.68,8.33,11.68h3q8.23,0,9.76-10.14l-.29-3.45v-2.2l.67-1.15-.67-.77v-.77l.67-1.15-.38-1.05.38-.38-.67-.77.67-7.18-.38-4.5h.38l-.67-4.88.29-.38v-.38q0-1.53-2.2-5.26v-.77l-.38.38h-.38a1.35,1.35,0,0,0-1.53-1.53L309.41,62q6-6.79,6-7.94l.29-1.82-.29-1.15.29-.38h.38l-.67-1.91h.29l-.29-.38.29-3.73L315.44,41l.67-5.65-.67-.77.29-.38-.29-1.82V32l.29-.38-.29-.38V27.08l.67-.77-.38-1.91V21.82l-2.58-3.06h-2.68a4,4,0,0,0-2.58,1.15h-.38v-.38a18.33,18.33,0,0,1,8.23-8.23l1.15.38L318,10.53h.77q1.82,0,4.88,3a7,7,0,0,1,4.88-2.2h.77q9.38,3.45,9.38,7.46l.77.77v.38h-.38l-5.26-1.15q-2.58.86-2.58,4.88l.29,1.53-.67,2.3.67,2.2V42.11l-.29,2.2.29,2.3-.29,2.2.29,2.68-.29,1.15q0,1.82,6.32,8.61V62.4a38,38,0,0,0-6.7,8.23l.38.38h.29l-.67,4.5.67,1.91-.29,1.91.29,4.12v.77l-.67,2.2.67,1.91-.29,4.5.29,1.15-.67.77.67.67v.38q0,2.78-1.05,3.06l-1.15-.38q0,.77,1.53.77l.38.38V100q0,4.5-5,13.11Q319.26,124,306,124h-3l-2.3-.38-1.44.38q-10-1.53-15.5-5.26a24.68,24.68,0,0,1-7.85-12.44l.38-.38v-.29l-1.91-9.47.38-2.58-.38-3.45.77-2.58q-.77,0-1.15-8.23l.77-3.06-.77-2.2V72.93l.38-1.53q0-2.77-6-9.38L274,55.22a7.39,7.39,0,0,1,1.53-3.73q-.86,0-1.53-1.53v-.77h.38L274,46.61q0-7.18,3.45-7.18V39h-.77l-1.53.77-.77-2.2V36.46l.38-1.53L274,33v-.67h.38q-.57-13.21-3.35-13.21h-4.5l-1.15.77H265V18.76Q268.25,12.63,277.83,9.38Zm-4.21,11.29v.77l2.68.77h.77v-.38Zm3.06,45.84v.38l1.53.77h.29q0-.57-1.44-1.15ZM280,83.07v.38l3.06,1.15q0-.67-2.68-1.53Zm1.91-45.46V38h.38l1.82-.38v-.38h-1.05Zm.77-14V24h1.82v-.38Zm.77,89.87v.77l1.05-.38v-.38Zm1.44-77v.77l1.15-.38v-.38Zm.38-12.06v.38l2.3.77H288v-.38l-2.3-.77Zm0,88.33v.38h1.91v-.38ZM288,74.07l-.38.38v.29H289v-.29Zm.77,13.11v.38L289,88h1.15v-.38Zm2.2,1.15v.38l2.3.77q0-.67-1.91-1.15Zm25.17,7.85.77.77h.38l-.77-.77Zm1.15-66.51v.38h1.91v-.38h-.77v-.38Zm.77,68,.77.77h.38l-.77-.77Zm1.15-2.3v.77l1.53.38V95.8Zm.77-11.58v.38l.77-.77v-.38ZM321,99.24v.38l2.3,1.44v-.67Zm.38-35.31,1.15-.38v-.77Zm.38-35.79q2.87-1.44,3.45-2.58h-.38Q321.85,26.8,321.75,28.14Zm.77,68.43v.38l1.53.38q0-.76-1.15-.77Zm1.91,5.26q0,.77,1.53.77v.77H327V103Zm.38-4.88v.77h1.82v-.38Zm2.2,6.79v.38l1.53.38q0-.76-1.15-.77Zm.38-5.65v.38l1.15.38h.38v-.38l-1.15-.38ZM371.33,9.38q4.69,0,11.77,4.4v1.15a4.67,4.67,0,0,0-4,1.82h.29a6.33,6.33,0,0,1,3.73-1.53l.38-.29v-.38a13.38,13.38,0,0,1,4.79,2.87q3.25,0,3.25-3.25h1.53l-.38-.38V13.4q3-4,3.64-4l.38.38v1.82l-.77.77.77,2.87-.77,5.55.77,5.55-.38,1.44.38.38-.38,4,.38,5.55-.77.67.38.38v.38l-.38.38v.38l.77,5.07v1.53q0,2.68-1.05,3l-.38-.38h-.38l-1.44.38-.38-.38-1.91.38h-7.27q-1.15-.38-1.15-2.3V42.11l.38-1.82-.77-.77v-.77l1.53-1.82h-.77V31.39l-.38-.29v-.38q.86,0,1.15-1.82l-1.15.67h-.38q0-1.91-3-5.17v-.29l.38-.38v-.38h-.38l-.29.38h-.38a26.85,26.85,0,0,0-7.75-1.15q-8.42,0-10.24,11.39,0,11.29,12.44,19.14l3.73-.38h3.64q1.15,0,1.15,4h-.38l2.2,5.17q14,12.63,14,18,.67,0,1.44,3.73l-.38,1.44v1.15l.77,1.05-.38,2.2.38,1.82-.77,1.82.38.38h.38q-.57,7.75-2.58,7.75l.38,1.44q-5.46,13.21-11,15.5-2.11,3.25-10.72,5.07a8.65,8.65,0,0,1-4,.77H368q-4.31,0-14.36-5.84l-5.07-5.55a12.74,12.74,0,0,0-4.12-3.64q-3.25-7.37-3.25-9.19l.38-1.53-.38-1.44.38-2.2-.38-.38v-.38l.38-.38v-.38l-.38-1.82.38-2.87-.38-.38v-.38l.77-3.73-.77-2.2V80.68q.19-2.2,1.05-2.2h2.2l.38.38,1.15-.38.38.38h.29q3.54-2.2,5.55-2.2H354q1.53.48,1.53,3.25v1.53l-.77,1.05v.38l.77,1.05v1.53L354.77,88l.77.67v1.91l-.38,1.82.77,5.17q-.77,0-.77,1.05.86,4,6.22,9.19,4.4,3,6.6,3h4.4q1.72,0,5.55-4.4l2.2.67h.38v-.29l-2.2-.38v-.77q1.91-4,2.58-11.77a29.19,29.19,0,0,0-5.17-10.24q-4.4-5.17-5.84-5.17l-6.32-.38-3.64.38-.38-.38v-.38l.38-.38V77l-.77-3V71.49a16,16,0,0,0-6.6-7,28.77,28.77,0,0,0-6.6-6.6l-3.35-6.6.38-1.15-1.05-3,.29-.29-1.44-6.32v-.67l1.82-10.34.38-.38-.38-.29v-.38q2.58-8.71,12.54-15.12l9.57-3.64ZM343,34v.38h1.44V34ZM346.35,95v.29h1.82V95ZM348.93,30l-.38.38v.38h.38l1.05-.38V30Zm0,24.21h.29l.77-.67h-.38Zm2.49,43.07v.67l2.58.77Q354,98.1,351.42,97.23Zm.77-70.63h.38l2.2-.67v-.38h-.38Q352.19,25.94,352.19,26.61Zm1.15.77-.38.38v.38h.38l1.05-.38v-.38Zm-.38,25h.38l.67-.67V51.3Zm2.2-1.05h.38l.67-.77h-.29Zm2.58-1.82v.67l1.05-.38v-.29Zm1.44-.77v.38h.77l1.05-.38v-.38h-.67Zm5.55-27.95v.38h.67l1.15-.38v-.38h-.38Zm3.64-1.44V20l1.15-.29v-.38Zm5.17-1.15v.77l1.15-.38v-.38Zm8.13,88.91v.38l1.44.38h.77v-.38l-1.91-.38Zm2.49-70.92v.38h.77l1.53-1.05h-.38Zm1.15,72.45V109l2.58.29q0-.67-1.15-.67ZM387.88,34v.77l3-1.44v-.77Zm.77,75.32v.77h1.44v-.38Zm6.22-78.57h.38l.67-.77h-.29ZM491.34,0q9.28.67,15.31,5,6.7,4.12,8.42,10.34l-.38.38h-.38l-6.51-1.53q0,.86,7.66,2.3l.77,5.36v3.45q0,8.14-9.19,16.46-4.4,7.46-6.12,8.8v.77l5.74,8.42q-9,.77-10.72,2.3l-.77-.77-.38.38v.77q5.36-.29,5.36-.77v-.77h1.91l1.53-.38,1.53.38h.38q0-1.15,1.91-1.15,12.44,16,16.84,19.52h1.15q5-6.32,5-9.19l1.15-10V57.8L530,53.21l.77-3.06V41.73L530,40.58V40.2q0-.76,1.15-.77l11.48.38,2.3-.38q1.72.77,1.91,1.53v3.45l.77,1.15v.38l-.77.77.38,2.68v2.68l.38,6.51q0,13.21-11.1,34.07l-.77,2.3v1.15q1,1.72,6.13,5l1.53,5.36q0,6.6-7.66,13.4l-4.21,2.3h-1.15q-3.16,0-7.66-7.66,0-1.15-1.53-1.91h-.38q-3.35,3.64-11.87,6.13-2.2,1.82-9.19,3.83,0,1.05-6.51,1.53-10.53,0-25.27-8.8a39.35,39.35,0,0,1-10.72-14.16l-1.53-5.74.38-8V81.54l2.68-6.89q0-2.3,3.45-4.59,0-1.15,4.59-1.15v-.38q-3.45,0-3.45-.77l.77-1.53h.77v1.15h-.77l.77.77A1,1,0,0,1,466.07,67l-.77-1.91,2.3-2.3h-.77V62.4A44.11,44.11,0,0,1,476,50.91v-.38Q468.85,40,467.61,31.39V30.24q.76-15.31,2.3-15.31h1.15v-.38l-1.15-.38Q477.75,0,491.34,0ZM467.61,68.52v.38h1.15v-.77Zm2.3-2.3q0,.77-1.91.77v.38q1.15,0,1.15.77h1.15l-.38-.38v-.38q0-.76,1.15-.77v-.38Zm.77-27.56V39l2.3.38h.38V39l-1.91-.38Zm.77,27.18v.38h3.06l10-1.53v-.38h-.38ZM473,14.16v.38h2.3v-.38Zm3.45-7.27,3.06,1.91h.38V7.66Zm.77,75.8q0,10,8.42,16.08,4.11,2.3,6.51,2.3h4.21q12.25-1.82,12.25-7.27a43,43,0,0,1-11.87-13.4q-1.53-3.73-8.42-11.87l-3.06-2.68q-3,0-7.27,12.25Zm4.21-40.2v.38l10,2.68h.77v-.38q-8.9-1.44-10.34-2.68Zm.77-34.07V8.8l4.59,1.53h.38V10l-4.59-1.53Zm.38,4.59v.38h1.53l.38-.38v-.38h-.38Zm2.3,8v4.21q.86,6.51,1.91,6.51l3.83,4.59,1.53.38q8.8-9.28,8.8-16.08v-.38q0-4.69-7.27-7.27-5.65,0-6.89,3.83ZM491,63.55l-3.83-.38-.38.38h-.38l-1.53-.38v.77l.38-.38,1.91.38h4.21q2.3,0,2.3-1.91Zm-2.3-52.06v.38h1.53v-.38Zm.38-1.15v.38l1.91.38h.77v-.38l-2.3-.38Zm3.83.77v.38l1.53.38h.38v-.38l-1.15-.38ZM493.64,121v.77l1.15-.38V121Zm1.15-74.27v.38l1.91.38h.77v-.38l-2.3-.38Zm.38-35.6v.38l1.15.38h.38v-.38l-1.15-.38Zm.38,108.72h.38a3.56,3.56,0,0,1,2.3-1.15v-.77Q495.74,118.86,495.55,119.82Zm1.15-57v.38h1.53v-.38Zm1.91,54.36v.77l1.15-.38v-.38Zm.77-69.67v.38l1.53.38h.77v-.38l-1.91-.38Zm.38,14.93v.38h3.06V62.4ZM501.68,13v.38l1.53.38q0-.76-1.15-.77ZM504,114.46h.38l.77-.77h-.38Zm.38-101.06q0,.77,1.15.77h1.15v-.38Zm1.91,54.36h.38l2.68-1.15v-.38h-.38Q506.27,67.09,506.27,67.76Zm0,45.17h.38l.77-.77H507Zm1.91-1.15h.38l.77-.77h-.38Zm5-3.83v.38h1.15v-.77Zm6.89-5.36V103l2.68-1.53v-.38h-.38Q520.05,101.92,520.05,102.59ZM525.79,98v.77l1.15-.38V98Zm3.83-1.91H530q2.68-1,2.68-1.53h-.38Q529.62,95.42,529.62,96.09ZM534.21,93h.38l1.53-1.15h-.38Zm2.3-39.43v.77L538,54v-.38Zm3.83-.77v.38h1.15q1.91-.48,1.91-1.15H543ZM649.44.38h6.22a19.12,19.12,0,0,0,6.79,1.44q0,1.53,4.21,1.91l7.27,5.36q5.93-4.31,7.75-7.75h.48V6.6l.48.48v.57q-.77,0-1.44,1.91,1.44,0,1.44.86v1.44l-.48.57.48.48v.48l-.48.48.48.48v2.49l-.48,2.78.48.48v.48l-.48,1.53.48,1.44-1,.86,1,1-.48,2.49.48,1.44-1,1.91,1,1-.48.48.48.48v.48l-.48,9.19v.48l-.48.57v.29l1,1.05v2.39l-1.44,2,1.44,2.3v1l-1,1.05h-13l-.48-.57-.48.57h-2.39l-.48-.57h-.48l-.48.57-.48-1.53.48-7.66-.48-.57v-.29l1-3-1-1v-2h1v-.48l-1-1.34V35.6l1-1.05q0-10.62-6.22-14.93,0-1.24-8.71-2.39v-.38l-2.49.86v-.48q-6.22,4.88-6.22,14l-.86,1v1l.38,3.45-.38.48.86.86v5.36h-.86l.38,2.39v1.44l-.38,3,.86,2.78-.48.48.48.57v1l-.86,4.31.38,1.91h-.38l.86,3.83V66.8l-.48,2q0,1.25,8.23,10a32.28,32.28,0,0,1-6.79,7.27l-1.82,7.18V95.8l.38,1.82-.38,1.91.86,2-.86,3.83.86,3.45-.86,1-2.49-1h-.48v.48q3.35.38,3.35,2.3l-.38,3,.86,3.83-.48.48v.48q3.06,12.44,9.19,12.44h3q12-5.07,12-14.26l.48-.57,1.34.57h1.53v-.57q-3.83,0-3.83-3.92l.48-.48-.48-2.78.48-5.74-.48-3,.48-.48h1l.86,1,1.53-.48,14-.48V102h-.48l1,8.23V116l-1,1.53,1,1.34-.48,2.39v1.53h-1.53v-1.05h-.86q0,1.53,1.91,1.53l.48.48v.48A27.89,27.89,0,0,1,669.16,140q-6,7.75-21.25,7.75-3.54,0-14.83-7.27A134.91,134.91,0,0,1,622.93,127v-1l.48-1.53h-.48q-1,0-4.31-9.47l.48-.48-2.39-3-2.49-10-.86-5.74.38-.48v-.48q0-7.18-8.61-14.07l-1.44-1.91,6.7-8.13,1.53-8.13-.48-.57q.48-5.74,1.44-6.7l-.48-2,1-1.91-.48-1.34q4.4-20.58,8.13-25.65.29-2.77,1.91-2.78V20.58a6.6,6.6,0,0,1,3.45-5.74q1.34-5.46,9.57-9.19.48-1.63,5.26-2.78Q641.21.38,649.44.38ZM619.68,111.59V113l1.82-1-.48-.48v-.48Zm5.26-3.83q-1.05,2.2-2,2.49v-.48l-1.44.48v.86l.48-.38h1l.48.38h.48q0-1.82,2.49-2.3v-.57Zm1-87.19h.86v-1q1.44,0,1.44-1h-.48Zm5.26,82.4q0,1.25-3,2.39v1l3.45-2.87V103Zm0-89.1-.48.48v.48h.48l1.44-.48v-.48Zm1,92-.48,1.44H635v-.48l-1.91-1Zm4.79.48-.48.48v.48l2.49,1h.48v-.48Zm14.45-91.49-.48.48v.48h1.53Zm1.91-1.44-.38.48v1h.38l.48-1.44Zm0-1.53v.57h1.91v-.57Zm5.84-4.79V8.61h.48L660,7.08Zm4.31,0v.57h.48q0-1.53,1.44-1.53l.48-1.44h-.48Q664.37,4.88,663.41,7.08Zm.48,13v.48l2.3,1.05V20.58l-1.82-.48Zm3.35,6.32v1h1.44v-.48Zm1.91,90.06v.48h1.44v-1Zm1-90.63,2,3v.48H673l-.38-.48v-.48l.38-.48v-.48A4.55,4.55,0,0,1,670.11,25.84Zm1.05,92.54v.48l1.44.48v-1Zm1.82.48v1h2.39v-.48Zm.48-89.1v.86h1A1.35,1.35,0,0,0,676,32.16v1h1l-2.49-3.35Zm6.22,4.31v2h1.05q1,0,1-1.53v-.48h-.48v1.05h-1.05V34.07Zm40-24.69h1.15q5.84,0,12.82,5.17l5.17,6.22,1.15-.38v.38A46.1,46.1,0,0,1,746.2,34q1.24,1.05,2.58,7.37l-.38,1.15q1.15,0,1.82,6.22h-1.05a8.15,8.15,0,0,1,1.44,3.64l-.38,2.2q.67,0,1.82,3.35l-.29-.38h-.38v.38q2.58.38,2.58,2.2a10.49,10.49,0,0,1,3.64,3.25L752,69.67,751,71.49l.38,1.05L751,73.69l.38,1.82L748,93.12l.38,1.53q-1.72,6.32-4.4,9.19,0,6.8-10.62,14.64-6.51,5.26-9.19,5.55l-3-.77-1.82.38q-9.09,0-18.09-10.62l-5.07-8.52a10.3,10.3,0,0,0-2.2-6.22l.38-1.05-1.15-1.15L694,95v-.38q-2.58,0-3.35-14-.57,0-.77-2.58v-2.2l.38-1.44-.38-1.53v-.38l.38-1.82-6.22-6.6v-.77q5.84-6.41,5.84-7.66,0-6.79,3.73-19.91a24.22,24.22,0,0,0,3.25-8.42q5.07-8.71,9.19-10l-.29-.29v-.38q3.54-5.55,8.42-5.55Q715.09,9.38,719.69,9.38ZM696.62,64.5h.29l2.2-.77v-.38h-.29Q696.62,63.74,696.62,64.5Zm.67,31.2.77.77h.38V95.7Zm4.4-33.4v.38h.38l1.82-.38v-.77Zm4.12,35.31c0,.45.35.67,1.05.67h.77V97.9Zm1.05-36.46h.38l.77-.67h-.38Zm1.82,37.52q0,.77,1.15.77h.38v-.38Zm.38-39v.77l1.44-.38v-.38ZM712.41,27l.38,1.91v.29L712,30l.38,3L712,49.48,711.65,52l.38.38v.38l-.38.38v.38l.38.38v.29l-.38.38v.38q.57,2.39,6.22,8.13v.29Q712,70,712,71.87l-.38,7,.38,1.44-.77.77.77.67v1.53l-.38.38.38.29v.38l-.38,1.91.38,1.05-.38,1.44L712,97.9v.38c0,.51-.51.77-1.53.77v.77q1.91,0,1.91,3.25,1.82,7.75,7.27,7.75h1.91q5.74,0,8.42-10-.19-1.82-1.15-1.82l.77-2.2-.77-2.58.38-1.44-.38-8.13.38-.38h.38l-.77-1.82.38-3.25-.38-3,.38-4q0-1.63-6.22-8.9,6.22-6.89,6.22-8.42l-.38-.38v-.38L730,52.73a4,4,0,0,1-1.15-2.58l.38-5.46-.38-4.4.38-1.15-.38-2.2V33.59l.38-1.44q-.38-3-3.25-9.19h-.38l-.38.38a11.67,11.67,0,0,0-4.79-.77h-.38A7.78,7.78,0,0,0,712.8,27Zm5.07-7.27V20l1.91.38h.29V20l-1.82-.29Zm3.35.67v.77l1.82.38h.77v-.38Zm3,95.22V116h.67l1.53-.38v-.38h-.77Zm6.6-10,1.44,1.15h.77v-.38l-1.82-.77ZM733,106.8v.67h.38l.67-.67ZM734,52.35h.38l.77-.67h-.38Zm2.58-1.82v.38l.38.38v.38l-.38.29v.77H737a.93.93,0,0,1,1.05-1.05l1.15.29-1.82-1.44Zm2.2-.38v.38H740c0-.51.35-.77,1.05-.77v-.29h-.38Zm0,58.86v.29h1.53V109Zm1.82-60.68v.77H741l1.53-1.15h-.38Zm4.12,0v.38h1.44v-.38Zm1.82-.38v.38h.67l1.53-.38v-.38H748Zm1.05,7.75v.38l1.53.29h.38v-.29L748,55.7Zm23.54,42.68,4.21.77.77-.77q4.88,0,9.57,8,0,2.68.77,3.45v.77h-.77V111l.77,1.15v.77q0,4.79-7.66,10.34l-5.36.77-.38-.38v-.38l-1.91.38h-.38q-5-1.24-5-2.68l.38-.38v-.38h-.38l-1.15.38q-2.68-3-2.68-4.21h.77v-.77l-.38.38H762q-1.15-.29-1.15-3.06v-1.15q0-6.41,2.68-7.27,0-2.2,3.45-3.45Q767,99.91,771.18,98.38Zm-8,17.61h.77l3.45-1.15v-.38h-1.53Zm6.51-3.83v.38l2.3.38h1.15v-.38l-2.68-.38Zm1.91-1.15v1.15l.77-.77V111Zm2.68-.38h.38l1.15-.38v-.77Zm3.83-2.3-.38.38v.38h.38l1.15-.38v-.38Zm2.68-.38h.38l1.53-.77v-.77Zm2.68,4.59.38,1.15,2.3-.77v-.38Zm-608.79,36c18.17,1.72,36.33,2.79,54.5,3.62s36.33,1.42,54.5,1.78,36.33.32,54.5-.06,36.33-.88,54.5-1.14l54.5-.81,54.5-1,54.5-1.15,27.25-.58,27.25-.67v-1.2l-27.25-.67-27.25-.58L501.63,145l-54.5-1-54.5-.81c-18.17-.26-36.33-.73-54.5-1.14s-36.33-.41-54.5-.06-36.33.91-54.5,1.78-36.33,1.9-54.5,3.62Zm-88.26-7.3-5.11,4.5-3.06-3.53,8.32-7h5v25.49H86.38Zm21.92,10.33c-.29.07-.58.13-.86.18a5.38,5.38,0,0,1-.9.07,8.06,8.06,0,0,1-3.28-.65,7.57,7.57,0,0,1-2.52-1.76,7.88,7.88,0,0,1-1.62-2.65,9.17,9.17,0,0,1-.58-3.26,8.31,8.31,0,0,1,2.75-6.34,9.08,9.08,0,0,1,3-1.78,11.39,11.39,0,0,1,7.47,0,9.06,9.06,0,0,1,3,1.78,8.31,8.31,0,0,1,2.75,6.34,11.58,11.58,0,0,1-.25,2.5,13.13,13.13,0,0,1-.67,2.14,13.81,13.81,0,0,1-1,1.93q-.56.92-1.17,1.89l-5.58,8.71h-6.59Zm-4.36-7.85a3.88,3.88,0,0,0,1.13,2.86,4.46,4.46,0,0,0,5.94,0,4.18,4.18,0,0,0,0-5.72,4.46,4.46,0,0,0-5.94,0A3.88,3.88,0,0,0,103.94,143.76Zm25,.58q.43-.11.86-.18a5.49,5.49,0,0,1,.9-.07,8.06,8.06,0,0,1,3.28.65,7.58,7.58,0,0,1,2.52,1.76,7.92,7.92,0,0,1,1.62,2.65,9.19,9.19,0,0,1,.58,3.26,8.31,8.31,0,0,1-2.75,6.34,9,9,0,0,1-3,1.78,11.38,11.38,0,0,1-7.47,0,9.06,9.06,0,0,1-3-1.78,8.31,8.31,0,0,1-2.75-6.34,11.52,11.52,0,0,1,.25-2.5,13,13,0,0,1,.67-2.14,13.68,13.68,0,0,1,1-1.93q.56-.92,1.17-1.89l5.58-8.71h6.59Zm4.36,7.85a3.88,3.88,0,0,0-1.13-2.86,4.46,4.46,0,0,0-5.94,0,4.18,4.18,0,0,0,0,5.72,4.46,4.46,0,0,0,5.94,0A3.88,3.88,0,0,0,133.32,152.19Zm17-10.91-5.11,4.5-3.06-3.53,8.32-7h5v25.49h-5.18Z"/></svg>