<svg id="Layer_1" data-name="Layer 1" xmlns="http://www.w3.org/2000/svg" viewBox="0 0 320 34.38"><title>studiocraft-logo</title><path d="M0,72.95l4.81-.09,0,0.72V73.39A4.39,4.39,0,0,0,7.28,76.8,9.37,9.37,0,0,0,12,78.06a9.22,9.22,0,0,0,5.14-1.48,4.47,4.47,0,0,0,2.28-3.88,5.22,5.22,0,0,0-.14-1.13,3,3,0,0,0-.49-1.08,2.77,2.77,0,0,0-.94-0.81,11,11,0,0,0-1.17-.55,7.88,7.88,0,0,0-1.49-.39q-0.92-.16-1.54-0.24l-1.6-.19L9.92,68a21.6,21.6,0,0,1-2.27-.43,13,13,0,0,1-2.26-.72,11.58,11.58,0,0,1-1.87-1.06,6.94,6.94,0,0,1-1.58-1.48,7.82,7.82,0,0,1-1.09-2A9.64,9.64,0,0,1,.28,59.7v0a8.43,8.43,0,0,1,0-.88,8.58,8.58,0,0,1,1.85-5.38,10.55,10.55,0,0,1,4.33-3.24,14.47,14.47,0,0,1,5.7-1.15,14,14,0,0,1,3.8.52,12.34,12.34,0,0,1,3.41,1.54A8.94,8.94,0,0,1,22,53.87a9.54,9.54,0,0,1,1.39,3.89l-4.74.18a4.58,4.58,0,0,0-1.41-2.4,6.33,6.33,0,0,0-2.45-1.41A9.34,9.34,0,0,0,12,53.73H11.88a10.38,10.38,0,0,0-3.46.68,5.7,5.7,0,0,0-2.58,1.85A4,4,0,0,0,5,58.83q0,0.26,0,.54a3.64,3.64,0,0,0,.31,1.3,3.94,3.94,0,0,0,.63,1,3.36,3.36,0,0,0,1,.72,9,9,0,0,0,1.18.5,6.51,6.51,0,0,0,1.35.27l1.38,0.17,1.45,0.21,2.29,0.32a18,18,0,0,1,2.46.57,14.06,14.06,0,0,1,2.45.94,14.74,14.74,0,0,1,1.95,1.21,6.24,6.24,0,0,1,1.6,1.72,7.53,7.53,0,0,1,1,2.28,11.29,11.29,0,0,1,.23,2.14A8.71,8.71,0,0,1,23.2,77a9.48,9.48,0,0,1-2.84,3.21,14.32,14.32,0,0,1-3.94,1.95,14.46,14.46,0,0,1-4.44.7,14.05,14.05,0,0,1-3.13-.36,13.76,13.76,0,0,1-3.09-1.1,12.6,12.6,0,0,1-2.71-1.79,9.07,9.07,0,0,1-2-2.53,8.55,8.55,0,0,1-1-3.21Z" transform="translate(0 -48.81)" style="fill:#33333"/><path d="M26.77,54V49.41H51.58V54h-10v28.6H36.81V54h-10Z" transform="translate(0 -48.81)" style="fill:#33333"/><path d="M55.93,72.62V49.46h4.83V72.67a4.34,4.34,0,0,0,1.14,3,6.66,6.66,0,0,0,2.79,1.85,10.43,10.43,0,0,0,3.49.58,10.18,10.18,0,0,0,3.47-.59,6.71,6.71,0,0,0,2.79-1.87,4.39,4.39,0,0,0,1.14-3V49.46h4.83V72.67a9,9,0,0,1-1.1,4.42,9.34,9.34,0,0,1-2.89,3.23,14.52,14.52,0,0,1-3.93,1.91,14.34,14.34,0,0,1-4.31.67,14.56,14.56,0,0,1-4.38-.67,14.34,14.34,0,0,1-3.92-1.91A9.26,9.26,0,0,1,55.93,72.62Z" transform="translate(0 -48.81)" style="fill:#33333"/><path d="M86.14,82.57V49.46H98a17.83,17.83,0,0,1,5.85.92,14.23,14.23,0,0,1,4.58,2.52,15.94,15.94,0,0,1,3.24,3.72,16.29,16.29,0,0,1,2,4.51,19.21,19.21,0,0,1,0,9.8,16.13,16.13,0,0,1-2,4.5,15.83,15.83,0,0,1-3.24,3.7,14.36,14.36,0,0,1-4.58,2.51,17.83,17.83,0,0,1-5.85.92H86.14Zm4.79-4.79H98a12.21,12.21,0,0,0,5-1,10,10,0,0,0,3.65-2.67,12,12,0,0,0,2.14-3.75,12.81,12.81,0,0,0,.74-4.32,13.19,13.19,0,0,0-.46-3.48,11.93,11.93,0,0,0-1.41-3.21,11.27,11.27,0,0,0-2.29-2.65,10.07,10.07,0,0,0-3.25-1.79A12.63,12.63,0,0,0,98,54.24h-7.1V77.78Z" transform="translate(0 -48.81)" style="fill:#33333"/><path d="M116.78,82.57V78.2h6.15V53.78h-6.15V49.41h17.09v4.37h-6.15V78.2h6.15v4.37H116.78Z" transform="translate(0 -48.81)" style="fill:#33333"/><path d="M137.56,72.58a17.13,17.13,0,0,1,0-13.18,17.79,17.79,0,0,1,3.65-5.53,17.14,17.14,0,0,1,5.49-3.72,17,17,0,0,1,13.2,0,17.41,17.41,0,0,1,5.51,3.73,17.79,17.79,0,0,1,3.65,5.53,17.13,17.13,0,0,1,0,13.18,17.79,17.79,0,0,1-3.65,5.53,16.93,16.93,0,0,1-5.5,3.76,16.93,16.93,0,0,1-18.7-3.76A17.79,17.79,0,0,1,137.56,72.58Zm4.52-11.34a12.46,12.46,0,0,0,6.55,16.11,11.87,11.87,0,0,0,9.35,0,12.6,12.6,0,0,0,4-2.69,12.34,12.34,0,0,0,0-17.34,12.44,12.44,0,0,0-4-2.68,11.85,11.85,0,0,0-4.68-.95,11.65,11.65,0,0,0-4.67,1,12.28,12.28,0,0,0-3.91,2.67A12.09,12.09,0,0,0,142.08,61.24Z" transform="translate(0 -48.81)" style="fill:#33333"/><path d="M174.58,66.08a16.79,16.79,0,0,1,1.26-6.47,17.65,17.65,0,0,1,3.48-5.41,16.44,16.44,0,0,1,5.19-3.61,16,16,0,0,1,16.11,2,16.13,16.13,0,0,1,5.58,8.92h-4.72A10.81,10.81,0,0,0,197.36,56a11.49,11.49,0,0,0-6.58-1.91,10.82,10.82,0,0,0-4.45.94,12.15,12.15,0,0,0-3.71,19.48,11.59,11.59,0,0,0,3.71,2.59,10.9,10.9,0,0,0,4.45.93,11.28,11.28,0,0,0,11-7.86h4.69a16.73,16.73,0,0,1-5.69,9.18,16,16,0,0,1-16.28,2.16,16.14,16.14,0,0,1-5.18-3.62,18.09,18.09,0,0,1-3.47-5.4A16.4,16.4,0,0,1,174.58,66.08Z" transform="translate(0 -48.81)" style="fill:#33333"/><path d="M211.08,82.57V49.41h12.07A12.38,12.38,0,0,1,227,50a9.28,9.28,0,0,1,3,1.61A10.63,10.63,0,0,1,232.2,54a10.2,10.2,0,0,1,1.32,2.86,11.33,11.33,0,0,1,.43,3.1,10.33,10.33,0,0,1-2.24,6.58,9.9,9.9,0,0,1-6.33,3.57l10.47,12.48h-6.2L217.56,68V65.73h5.59A5.73,5.73,0,0,0,227.58,64a6,6,0,0,0,0-8.1,5.73,5.73,0,0,0-4.43-1.71h-7.33V82.57h-4.74Z" transform="translate(0 -48.81)" style="fill:#33333"/><path d="M238.34,82.57L251.66,49h3.49l13.32,33.57h-5.13l-3.17-8.42H246.73l-3.24,8.42h-5.16Zm10.13-12.88h9.94l-5-13.06Z" transform="translate(0 -48.81)" style="fill:#33333"/><path d="M271.86,82.57V49.41h19.74v4.65h-15V64H289.9v4.46H276.65V82.57h-4.79Z" transform="translate(0 -48.81)" style="fill:#33333"/><path d="M295.19,54V49.41H320V54H310v28.6h-4.79V54h-10Z" transform="translate(0 -48.81)" style="fill:#33333"/></svg>
