<?xml version="1.0" encoding="utf-8"?>
<!-- Generator: Adobe Illustrator 19.0.0, SVG Export Plug-In . SVG Version: 6.00 Build 0)  -->
<svg version="1.1" id="Layer_1" xmlns="http://www.w3.org/2000/svg" xmlns:xlink="http://www.w3.org/1999/xlink" x="0px" y="0px"
	 viewBox="0 0 320 320" enable-background="new 0 0 320 320" xml:space="preserve">
<g id="XMLID_57_">
	<path id="XMLID_65_" fill="#FFFFFF" d="M1280,370H0v320h1280V370L1280,370z M1240,410v240H40V410H1240"/>
	<g id="XMLID_1_">
		<path id="XMLID_3_" fill="#FFFFFF" d="M154,495.1c-0.8,1.3-1.7,2.3-2.5,2.9c-0.9,0.6-2,1-3.4,1c-1.2,0-2.6-0.4-4-1.2
			c-1.4-0.8-3-1.7-4.9-2.6c-1.8-1-3.9-1.8-6.2-2.6c-2.3-0.8-5-1.2-7.9-1.2c-5.1,0-8.9,1.1-11.4,3.3c-2.5,2.2-3.8,5.1-3.8,8.8
			c0,2.4,0.8,4.3,2.3,5.9c1.5,1.6,3.5,2.9,5.9,4c2.5,1.1,5.3,2.2,8.4,3.1c3.2,0.9,6.4,2,9.7,3.1c3.3,1.2,6.5,2.5,9.7,4.1
			c3.2,1.6,6,3.5,8.4,6c2.5,2.4,4.4,5.4,5.9,8.8c1.5,3.5,2.3,7.6,2.3,12.5c0,5.4-0.9,10.5-2.8,15.2c-1.9,4.7-4.6,8.9-8.2,12.4
			c-3.6,3.5-8,6.3-13.3,8.3c-5.3,2-11.2,3-17.9,3c-3.7,0-7.4-0.4-11.2-1.1c-3.8-0.8-7.5-1.8-11-3.2c-3.6-1.4-6.9-3-10-4.9
			c-3.1-1.9-5.8-4-8.2-6.3l8.1-12.7c0.6-1,1.4-1.7,2.5-2.3c1.1-0.6,2.2-0.9,3.5-0.9c1.6,0,3.2,0.5,4.9,1.5c1.6,1,3.5,2.1,5.6,3.4
			c2.1,1.2,4.5,2.4,7.2,3.4c2.7,1,5.9,1.5,9.5,1.5c5,0,8.8-1.1,11.6-3.3c2.7-2.2,4.1-5.6,4.1-10.4c0-2.7-0.8-5-2.3-6.7
			c-1.5-1.7-3.5-3.1-5.9-4.3c-2.5-1.1-5.2-2.1-8.4-3c-3.1-0.9-6.3-1.8-9.6-2.9c-3.3-1-6.5-2.3-9.6-3.9c-3.1-1.5-5.9-3.5-8.4-6
			c-2.5-2.5-4.4-5.6-5.9-9.3c-1.5-3.7-2.3-8.3-2.3-13.8c0-4.4,0.9-8.7,2.7-12.9c1.8-4.2,4.4-7.9,7.8-11.2c3.4-3.3,7.7-5.9,12.7-7.9
			c5-2,10.8-2.9,17.2-2.9c3.6,0,7.1,0.3,10.6,0.8c3.4,0.6,6.7,1.4,9.7,2.5c3.1,1.1,5.9,2.4,8.6,3.9c2.7,1.5,5.1,3.3,7.2,5.2
			L154,495.1z"/>
		<path id="XMLID_34_" fill="#FFFFFF" d="M261.5,471.3v21.6h-33.1v95.8H201v-95.8h-33.1v-21.6H261.5z"/>
		<path id="XMLID_36_" fill="#FFFFFF" d="M321.8,567.2c3.7,0,6.9-0.6,9.8-1.8c2.9-1.2,5.3-2.9,7.3-5.2c2-2.3,3.5-5,4.6-8.3
			c1.1-3.3,1.6-6.9,1.6-11.1v-69.6h27.3v69.6c0,7.2-1.2,13.8-3.5,19.8c-2.3,6-5.7,11.2-10.1,15.6c-4.4,4.4-9.7,7.7-15.9,10.2
			c-6.3,2.4-13.3,3.6-21.1,3.6c-7.9,0-14.9-1.2-21.2-3.6c-6.3-2.4-11.6-5.8-15.9-10.2c-4.4-4.4-7.7-9.5-10-15.6
			c-2.3-6-3.5-12.6-3.5-19.8v-69.6h27.3v69.5c0,4.1,0.5,7.8,1.6,11.1c1.1,3.3,2.6,6,4.6,8.3c2,2.3,4.4,4,7.3,5.2
			C314.9,566.6,318.1,567.2,321.8,567.2z"/>
		<path id="XMLID_38_" fill="#FFFFFF" d="M497.1,530c0,8.5-1.5,16.3-4.4,23.5c-2.9,7.2-7.1,13.4-12.4,18.6
			c-5.3,5.2-11.8,9.3-19.3,12.2c-7.5,2.9-15.9,4.4-25,4.4h-45.8V471.3H436c9.2,0,17.5,1.5,25,4.4c7.5,3,13.9,7,19.3,12.2
			c5.3,5.2,9.5,11.4,12.4,18.6C495.6,513.7,497.1,521.5,497.1,530z M469.1,530c0-5.8-0.8-11-2.3-15.7c-1.5-4.7-3.7-8.6-6.5-11.9
			c-2.8-3.2-6.3-5.7-10.4-7.5c-4.1-1.7-8.8-2.6-14-2.6h-18.3v75.5H436c5.2,0,9.9-0.9,14-2.6c4.1-1.7,7.6-4.2,10.4-7.5
			c2.8-3.2,5-7.2,6.5-11.9C468.3,541.1,469.1,535.8,469.1,530z"/>
		<path id="XMLID_41_" fill="#FFFFFF" d="M540.1,588.7h-27.5V471.3h27.5V588.7z"/>
		<path id="XMLID_43_" fill="#FFFFFF" d="M678.2,530c0,8.5-1.5,16.4-4.4,23.7c-2.9,7.3-7.1,13.7-12.4,19.1
			c-5.3,5.4-11.8,9.6-19.3,12.7c-7.5,3.1-15.9,4.6-25,4.6c-9.2,0-17.5-1.5-25.1-4.6c-7.5-3.1-14-7.3-19.4-12.7
			c-5.4-5.4-9.5-11.8-12.4-19.1c-2.9-7.3-4.4-15.2-4.4-23.7c0-8.5,1.5-16.4,4.4-23.7c2.9-7.3,7.1-13.6,12.4-19
			c5.4-5.4,11.8-9.6,19.4-12.7c7.5-3.1,15.9-4.6,25.1-4.6c9.2,0,17.5,1.5,25,4.6c7.5,3.1,13.9,7.3,19.3,12.7
			c5.3,5.4,9.5,11.7,12.4,19C676.7,513.7,678.2,521.5,678.2,530z M650.2,530c0-5.8-0.8-11-2.3-15.7c-1.5-4.6-3.7-8.6-6.5-11.8
			c-2.8-3.2-6.3-5.7-10.4-7.4c-4.1-1.7-8.8-2.6-14-2.6c-5.3,0-10,0.9-14.1,2.6c-4.1,1.7-7.6,4.2-10.4,7.4c-2.8,3.2-5,7.2-6.5,11.8
			c-1.5,4.6-2.3,9.9-2.3,15.7c0,5.9,0.8,11.1,2.3,15.8c1.5,4.6,3.7,8.6,6.5,11.8c2.8,3.2,6.3,5.7,10.4,7.4c4.1,1.7,8.8,2.5,14.1,2.5
			c5.2,0,9.9-0.8,14-2.5c4.1-1.7,7.6-4.2,10.4-7.4c2.8-3.2,5-7.2,6.5-11.8C649.4,541.1,650.2,535.8,650.2,530z"/>
		<path id="XMLID_46_" fill="#FFFFFF" d="M770.4,558.3c0.6,0,1.3,0.1,1.9,0.4c0.6,0.2,1.3,0.7,1.9,1.2l10.8,11.4
			c-4.7,6.2-10.7,10.8-17.8,14c-7.1,3.1-15.6,4.7-25.3,4.7c-8.9,0-17-1.5-24.1-4.6c-7.1-3-13.1-7.2-18-12.6
			c-4.9-5.3-8.7-11.7-11.4-19c-2.6-7.3-4-15.3-4-23.9c0-8.8,1.5-16.8,4.5-24.1c3-7.3,7.2-13.7,12.7-19c5.4-5.3,11.9-9.5,19.4-12.4
			c7.5-3,15.9-4.4,25-4.4c4.4,0,8.6,0.4,12.5,1.2c3.9,0.8,7.6,1.9,11,3.2c3.4,1.4,6.5,3,9.4,4.9c2.9,1.9,5.4,4,7.6,6.3l-9.2,12.3
			c-0.6,0.8-1.3,1.4-2.1,2.1c-0.8,0.6-1.9,0.9-3.4,0.9c-1,0-1.9-0.2-2.7-0.6c-0.9-0.4-1.8-1-2.7-1.6c-1-0.6-2-1.3-3.2-2
			c-1.2-0.7-2.5-1.4-4.1-2c-1.6-0.6-3.5-1.1-5.6-1.6c-2.1-0.4-4.6-0.6-7.5-0.6c-5,0-9.5,0.9-13.6,2.6c-4.1,1.7-7.6,4.2-10.5,7.5
			c-2.9,3.3-5.2,7.2-6.9,11.8c-1.6,4.6-2.5,9.8-2.5,15.6c0,6,0.8,11.4,2.5,16c1.6,4.7,3.9,8.6,6.7,11.8c2.8,3.2,6.1,5.6,9.9,7.3
			c3.8,1.7,7.8,2.5,12.1,2.5c2.5,0,4.7-0.1,6.8-0.4c2-0.2,3.9-0.7,5.7-1.2c1.8-0.6,3.4-1.4,5-2.3c1.6-0.9,3.2-2.1,4.8-3.5
			c0.6-0.5,1.3-1,2.1-1.3C768.8,558.5,769.6,558.3,770.4,558.3z"/>
		<path id="XMLID_48_" fill="#FFFFFF" d="M824.8,545.3v43.4h-27.3V471.3h38.3c8.5,0,15.8,0.9,21.8,2.6c6,1.7,10.9,4.2,14.7,7.3
			c3.8,3.1,6.6,6.8,8.3,11c1.7,4.2,2.6,8.9,2.6,13.9c0,3.8-0.5,7.4-1.5,10.8c-1,3.4-2.5,6.5-4.6,9.4c-2,2.9-4.5,5.4-7.4,7.7
			c-2.9,2.3-6.3,4.1-10.1,5.6c1.8,0.9,3.5,2,5.1,3.4c1.6,1.3,3,3,4.2,4.9l25.1,40.9h-24.7c-4.6,0-7.9-1.7-9.9-5.2l-19.6-34.1
			c-0.9-1.5-1.9-2.6-3-3.2c-1.2-0.6-2.8-1-4.9-1H824.8z M824.8,526.5h11c3.7,0,6.9-0.5,9.5-1.4c2.6-0.9,4.8-2.2,6.4-3.9
			c1.7-1.7,2.9-3.6,3.6-5.8c0.8-2.2,1.1-4.6,1.1-7.2c0-5.2-1.7-9.2-5.1-12.1c-3.4-2.9-8.6-4.4-15.6-4.4h-11V526.5z"/>
		<path id="XMLID_51_" fill="#FFFFFF" d="M1014.6,588.7h-21.2c-2.4,0-4.3-0.6-5.9-1.7c-1.5-1.1-2.6-2.5-3.2-4.2l-7-20.5h-44.8
			l-7,20.5c-0.5,1.5-1.6,2.9-3.2,4.1c-1.6,1.2-3.5,1.8-5.7,1.8h-21.3l45.6-117.4h28L1014.6,588.7z M939,543.8h32.2l-10.8-32.2
			c-0.7-2-1.5-4.4-2.5-7.2c-0.9-2.8-1.9-5.8-2.8-9c-0.9,3.3-1.8,6.3-2.7,9.1c-0.9,2.8-1.8,5.2-2.6,7.3L939,543.8z"/>
		<path id="XMLID_54_" fill="#FFFFFF" d="M1100,471.3v21h-48.3V522h40.3v21h-40.3v45.7h-27.5V471.3H1100z"/>
		<path id="XMLID_56_" fill="#FFFFFF" d="M1199.8,471.3v21.6h-33.1v95.8h-27.3v-95.8h-33.1v-21.6H1199.8z"/>
	</g>
</g>
<path id="XMLID_153_" fill="#FFFFFF" d="M300,20v280H20V20H300 M320,0H0v320h320V0L320,0z M69.4,111.5c-0.3,0.5-0.7,0.9-1,1.2
	c-0.4,0.3-0.8,0.4-1.4,0.4c-0.5,0-1-0.2-1.6-0.5c-0.6-0.3-1.2-0.7-1.9-1c-0.7-0.4-1.5-0.7-2.5-1c-0.9-0.3-2-0.5-3.2-0.5
	c-2,0-3.6,0.4-4.6,1.3c-1,0.9-1.5,2-1.5,3.5c0,0.9,0.3,1.7,0.9,2.3c0.6,0.6,1.4,1.2,2.4,1.6c1,0.5,2.1,0.9,3.3,1.2
	c1.3,0.4,2.5,0.8,3.8,1.3c1.3,0.5,2.6,1,3.8,1.6c1.3,0.6,2.4,1.4,3.3,2.4s1.8,2.1,2.4,3.5c0.6,1.4,0.9,3,0.9,5
	c0,2.2-0.4,4.2-1.1,6.1c-0.8,1.9-1.8,3.5-3.3,4.9c-1.4,1.4-3.2,2.5-5.3,3.3c-2.1,0.8-4.5,1.2-7.1,1.2c-1.5,0-2.9-0.2-4.5-0.5
	s-3-0.7-4.4-1.3c-1.4-0.5-2.7-1.2-4-1.9c-1.2-0.7-2.3-1.6-3.2-2.5l3.2-5.1c0.2-0.4,0.6-0.7,1-0.9c0.4-0.2,0.9-0.4,1.4-0.4
	c0.6,0,1.3,0.2,1.9,0.6c0.7,0.4,1.4,0.9,2.2,1.3c0.8,0.5,1.8,0.9,2.8,1.3c1.1,0.4,2.3,0.6,3.8,0.6c2,0,3.5-0.4,4.6-1.3
	c1.1-0.9,1.6-2.2,1.6-4.1c0-1.1-0.3-2-0.9-2.7c-0.6-0.7-1.4-1.3-2.4-1.7c-1-0.4-2.1-0.8-3.3-1.2c-1.2-0.3-2.5-0.7-3.8-1.1
	c-1.3-0.4-2.6-0.9-3.8-1.5c-1.2-0.6-2.4-1.4-3.3-2.4c-1-1-1.8-2.2-2.4-3.7c-0.6-1.5-0.9-3.3-0.9-5.5c0-1.8,0.4-3.5,1.1-5.1
	s1.7-3.2,3.1-4.5c1.4-1.3,3.1-2.4,5-3.1c2-0.8,4.3-1.2,6.9-1.2c1.4,0,2.8,0.1,4.2,0.3c1.4,0.2,2.7,0.6,3.9,1c1.2,0.4,2.4,1,3.4,1.6
	c1.1,0.6,2,1.3,2.8,2.1L69.4,111.5z M112.4,102v8.6H99.2v38.2H88.4v-38.2H75.2V102H112.4z M136.7,140.2c1.5,0,2.8-0.2,3.9-0.7
	c1.1-0.5,2.1-1.2,2.9-2.1c0.8-0.9,1.4-2,1.8-3.3c0.4-1.3,0.6-2.8,0.6-4.4V102h10.9v27.7c0,2.9-0.5,5.5-1.4,7.9
	c-0.9,2.4-2.3,4.5-4,6.2c-1.7,1.7-3.8,3.1-6.3,4c-2.5,1-5.3,1.4-8.4,1.4c-3.1,0-5.9-0.5-8.4-1.4c-2.5-1-4.6-2.3-6.3-4
	s-3.1-3.8-4-6.2c-0.9-2.4-1.4-5-1.4-7.9V102h10.9v27.7c0,1.6,0.2,3.1,0.6,4.4c0.4,1.3,1,2.4,1.8,3.3c0.8,0.9,1.8,1.6,2.9,2.1
	C133.9,140,135.2,140.2,136.7,140.2z M206.7,125.4c0,3.4-0.6,6.5-1.8,9.4c-1.2,2.9-2.8,5.3-4.9,7.4c-2.1,2.1-4.7,3.7-7.7,4.9
	c-3,1.2-6.3,1.8-10,1.8h-18.2V102h18.2c3.6,0,7,0.6,10,1.8c3,1.2,5.5,2.8,7.7,4.9c2.1,2.1,3.8,4.5,4.9,7.4
	C206.1,118.9,206.7,122,206.7,125.4z M195.5,125.4c0-2.3-0.3-4.4-0.9-6.3c-0.6-1.9-1.5-3.4-2.6-4.7c-1.1-1.3-2.5-2.3-4.1-3
	c-1.6-0.7-3.5-1-5.6-1h-7.3v30.1h7.3c2.1,0,3.9-0.3,5.6-1c1.6-0.7,3-1.7,4.1-3c1.1-1.3,2-2.9,2.6-4.7
	C195.2,129.8,195.5,127.7,195.5,125.4z M224,148.8h-10.9V102H224V148.8z M279.2,125.4c0,3.4-0.6,6.5-1.8,9.4
	c-1.2,2.9-2.8,5.4-4.9,7.6c-2.1,2.2-4.7,3.8-7.7,5.1c-3,1.2-6.3,1.8-10,1.8c-3.6,0-7-0.6-10-1.8c-3-1.2-5.6-2.9-7.7-5.1
	c-2.1-2.2-3.8-4.7-5-7.6c-1.2-2.9-1.8-6.1-1.8-9.4c0-3.4,0.6-6.5,1.8-9.4c1.2-2.9,2.8-5.4,5-7.6c2.1-2.1,4.7-3.8,7.7-5
	c3-1.2,6.3-1.8,10-1.8c3.6,0,7,0.6,10,1.8c3,1.2,5.5,2.9,7.7,5.1c2.1,2.1,3.8,4.7,4.9,7.6C278.7,118.9,279.2,122,279.2,125.4z
	 M268.1,125.4c0-2.3-0.3-4.4-0.9-6.2c-0.6-1.9-1.5-3.4-2.6-4.7c-1.1-1.3-2.5-2.3-4.1-3c-1.6-0.7-3.5-1-5.6-1c-2.1,0-4,0.3-5.6,1
	c-1.6,0.7-3,1.7-4.1,3c-1.1,1.3-2,2.9-2.6,4.7c-0.6,1.9-0.9,3.9-0.9,6.2c0,2.3,0.3,4.4,0.9,6.3c0.6,1.9,1.5,3.4,2.6,4.7
	c1.1,1.3,2.5,2.3,4.1,2.9s3.5,1,5.6,1c2.1,0,3.9-0.3,5.6-1c1.6-0.7,3-1.7,4.1-2.9c1.1-1.3,2-2.9,2.6-4.7
	C267.8,129.8,268.1,127.7,268.1,125.4z M80.3,203.9c0.3,0,0.6,0.1,0.9,0.2c0.3,0.1,0.6,0.3,0.9,0.6l5,5.2c-2.2,2.8-4.9,5-8.2,6.4
	c-3.3,1.4-7.2,2.2-11.7,2.2c-4.1,0-7.8-0.7-11.1-2.1c-3.3-1.4-6-3.3-8.3-5.8c-2.3-2.5-4-5.4-5.2-8.8c-1.2-3.4-1.8-7.1-1.8-11
	c0-4,0.7-7.7,2.1-11.1c1.4-3.4,3.3-6.3,5.8-8.7c2.5-2.5,5.5-4.4,8.9-5.7c3.5-1.4,7.3-2,11.5-2c2,0,3.9,0.2,5.7,0.5
	c1.8,0.4,3.5,0.9,5,1.5c1.6,0.6,3,1.4,4.3,2.3c1.3,0.9,2.5,1.9,3.5,2.9l-4.2,5.7c-0.3,0.3-0.6,0.7-1,0.9c-0.4,0.3-0.9,0.4-1.6,0.4
	c-0.4,0-0.9-0.1-1.3-0.3c-0.4-0.2-0.8-0.4-1.3-0.7c-0.4-0.3-0.9-0.6-1.5-0.9c-0.5-0.3-1.2-0.6-1.9-0.9c-0.7-0.3-1.6-0.5-2.6-0.7
	c-1-0.2-2.1-0.3-3.4-0.3c-2.3,0-4.4,0.4-6.2,1.2c-1.9,0.8-3.5,2-4.9,3.5c-1.4,1.5-2.4,3.3-3.2,5.4c-0.8,2.1-1.1,4.5-1.1,7.2
	c0,2.8,0.4,5.2,1.1,7.4c0.8,2.2,1.8,4,3.1,5.4c1.3,1.5,2.8,2.6,4.6,3.4c1.7,0.8,3.6,1.2,5.6,1.2c1.1,0,2.2-0.1,3.1-0.2
	c0.9-0.1,1.8-0.3,2.6-0.6c0.8-0.3,1.6-0.6,2.3-1.1c0.7-0.4,1.5-1,2.2-1.6c0.3-0.2,0.6-0.5,1-0.6C79.5,204,79.9,203.9,80.3,203.9z
	 M105.8,197.9v20H93.3v-54.1h17.6c3.9,0,7.3,0.4,10,1.2c2.8,0.8,5,1.9,6.8,3.4c1.7,1.4,3,3.1,3.8,5.1c0.8,2,1.2,4.1,1.2,6.4
	c0,1.8-0.2,3.4-0.7,5c-0.5,1.6-1.2,3-2.1,4.3c-0.9,1.3-2.1,2.5-3.4,3.5c-1.4,1-2.9,1.9-4.7,2.6c0.8,0.4,1.6,0.9,2.4,1.6
	c0.7,0.6,1.4,1.4,1.9,2.3l11.5,18.8h-11.4c-2.1,0-3.6-0.8-4.5-2.4l-9-15.7c-0.4-0.7-0.9-1.2-1.4-1.5c-0.5-0.3-1.3-0.4-2.2-0.4H105.8
	z M105.8,189.2h5.1c1.7,0,3.2-0.2,4.4-0.7c1.2-0.4,2.2-1,3-1.8c0.8-0.8,1.3-1.7,1.7-2.7c0.3-1,0.5-2.1,0.5-3.3
	c0-2.4-0.8-4.2-2.3-5.6c-1.5-1.3-3.9-2-7.2-2h-5.1V189.2z M193.7,217.9h-9.7c-1.1,0-2-0.3-2.7-0.8c-0.7-0.5-1.2-1.2-1.5-2l-3.2-9.4
	h-20.6l-3.2,9.4c-0.2,0.7-0.7,1.3-1.5,1.9c-0.7,0.6-1.6,0.8-2.6,0.8h-9.8l21-54.1h12.9L193.7,217.9z M158.8,197.2h14.8l-5-14.8
	c-0.3-0.9-0.7-2-1.1-3.3c-0.4-1.3-0.9-2.7-1.3-4.1c-0.4,1.5-0.8,2.9-1.2,4.2c-0.4,1.3-0.8,2.4-1.2,3.3L158.8,197.2z M233.4,163.8
	v9.7h-22.2v13.7h18.5v9.7h-18.5v21.1h-12.6v-54.1H233.4z M279.9,163.8v10h-15.2v44.2H252v-44.2h-15.2v-10H279.9z"/>
<path id="XMLID_272_" fill="#006991" d="M670,20v280H390V20H670 M690,0H370v320h320V0L690,0z M503,116.1c-1,1.6-2.1,2.8-3.2,3.7
	c-1.1,0.8-2.6,1.2-4.3,1.2c-1.6,0-3.2-0.5-5-1.5c-1.8-1-3.8-2.1-6.1-3.3c-2.3-1.2-4.8-2.3-7.8-3.3c-2.9-1-6.2-1.5-9.9-1.5
	c-6.4,0-11.2,1.4-14.3,4.1c-3.1,2.7-4.7,6.4-4.7,11.1c0,3,0.9,5.4,2.8,7.4c1.9,2,4.4,3.7,7.4,5.1c3.1,1.4,6.6,2.7,10.5,3.9
	c4,1.2,8,2.5,12.1,4c4.1,1.5,8.2,3.2,12.1,5.1c4,2,7.5,4.5,10.5,7.5c3.1,3,5.6,6.7,7.4,11.1c1.9,4.4,2.8,9.6,2.8,15.8
	c0,6.8-1.2,13.2-3.5,19.2c-2.4,5.9-5.8,11.1-10.3,15.6c-4.5,4.4-10,7.9-16.6,10.4c-6.6,2.5-14.1,3.8-22.4,3.8c-4.6,0-9.3-0.5-14-1.4
	c-4.8-0.9-9.4-2.3-13.8-4c-4.5-1.7-8.6-3.8-12.6-6.1c-3.9-2.4-7.3-5-10.2-7.9l10.1-16c0.7-1.2,1.8-2.2,3.1-2.9
	c1.4-0.7,2.8-1.1,4.4-1.1c2,0,4.1,0.6,6.1,1.9c2.1,1.3,4.4,2.7,7,4.3c2.6,1.6,5.6,3,9,4.3c3.4,1.3,7.4,1.9,12,1.9
	c6.2,0,11-1.4,14.5-4.1c3.4-2.7,5.2-7.1,5.2-13c0-3.4-0.9-6.3-2.8-8.4c-1.9-2.2-4.4-4-7.4-5.4c-3.1-1.4-6.6-2.7-10.5-3.8
	c-3.9-1.1-7.9-2.3-12.1-3.6c-4.1-1.3-8.1-2.9-12.1-4.9c-3.9-1.9-7.4-4.5-10.5-7.6c-3.1-3.1-5.6-7.1-7.4-11.8
	c-1.9-4.7-2.8-10.5-2.8-17.4c0-5.5,1.1-11,3.3-16.2c2.2-5.3,5.5-10,9.8-14.1c4.3-4.1,9.6-7.4,15.9-9.9c6.3-2.5,13.5-3.7,21.6-3.7
	c4.5,0,8.9,0.4,13.2,1.1c4.3,0.7,8.4,1.8,12.2,3.1c3.9,1.4,7.4,3,10.8,5s6.3,4.1,9,6.5L503,116.1z M629.8,195.6
	c0.8,0,1.6,0.2,2.4,0.5c0.8,0.3,1.6,0.8,2.3,1.6l13.6,14.3c-5.9,7.8-13.4,13.6-22.3,17.6c-9,4-19.5,5.9-31.8,5.9
	c-11.2,0-21.3-1.9-30.2-5.7c-8.9-3.8-16.4-9.1-22.6-15.8c-6.2-6.7-10.9-14.7-14.2-23.9c-3.3-9.2-5-19.3-5-30.1
	c0-11,1.9-21.1,5.7-30.4c3.8-9.2,9.1-17.2,15.9-23.9c6.8-6.7,14.9-11.9,24.4-15.6c9.5-3.7,19.9-5.6,31.3-5.6
	c5.5,0,10.8,0.5,15.7,1.5c4.9,1,9.5,2.3,13.7,4.1c4.3,1.7,8.2,3.8,11.8,6.2c3.6,2.4,6.8,5.1,9.5,8l-11.6,15.5
	c-0.7,0.9-1.6,1.8-2.6,2.6c-1,0.8-2.4,1.2-4.3,1.2c-1.2,0-2.4-0.3-3.4-0.8c-1.1-0.5-2.2-1.2-3.4-2c-1.2-0.8-2.6-1.6-4-2.5
	c-1.5-0.9-3.2-1.8-5.2-2.5c-2-0.8-4.3-1.4-7-2c-2.7-0.5-5.8-0.8-9.4-0.8c-6.2,0-11.9,1.1-17,3.3c-5.1,2.2-9.5,5.3-13.2,9.4
	c-3.7,4.1-6.6,9-8.6,14.9c-2.1,5.8-3.1,12.3-3.1,19.6c0,7.6,1,14.3,3.1,20.2c2.1,5.9,4.9,10.8,8.4,14.9c3.5,4,7.7,7.1,12.4,9.2
	c4.7,2.1,9.8,3.1,15.2,3.1c3.1,0,5.9-0.2,8.5-0.5c2.6-0.3,4.9-0.8,7.1-1.6c2.2-0.7,4.3-1.7,6.3-2.9c2-1.2,4-2.7,6-4.4
	c0.8-0.7,1.7-1.2,2.6-1.7C627.8,195.9,628.8,195.6,629.8,195.6z"/>
</svg>
