<?xml version="1.0" encoding="utf-8"?>
<!-- Generator: Adobe Illustrator 19.1.0, SVG Export Plug-In . SVG Version: 6.00 Build 0)  -->
<svg version="1.1" id="Layer_1" xmlns="http://www.w3.org/2000/svg" xmlns:xlink="http://www.w3.org/1999/xlink" x="0px" y="0px"
	 viewBox="0 0 320 320" enable-background="new 0 0 320 320" xml:space="preserve">
<path id="XMLID_272_" fill="#006991" d="M670-64v280H390V-64H670 M690-84H370v320h320V-84L690-84z M503,32.1c-1,1.6-2.1,2.8-3.2,3.7
	c-1.1,0.8-2.6,1.2-4.3,1.2c-1.6,0-3.2-0.5-5-1.5c-1.8-1-3.8-2.1-6.1-3.3c-2.3-1.2-4.8-2.3-7.8-3.3c-2.9-1-6.2-1.5-9.9-1.5
	c-6.4,0-11.2,1.4-14.3,4.1c-3.1,2.7-4.7,6.4-4.7,11.1c0,3,0.9,5.4,2.8,7.4c1.9,2,4.4,3.7,7.4,5.1c3.1,1.4,6.6,2.7,10.5,3.9
	c4,1.2,8,2.5,12.1,4c4.1,1.5,8.2,3.2,12.1,5.1c4,2,7.5,4.5,10.5,7.5c3.1,3,5.6,6.7,7.4,11.1c1.9,4.4,2.8,9.6,2.8,15.8
	c0,6.8-1.2,13.2-3.5,19.2c-2.4,5.9-5.8,11.1-10.3,15.6c-4.5,4.4-10,7.9-16.6,10.4c-6.6,2.5-14.1,3.8-22.4,3.8c-4.6,0-9.3-0.5-14-1.4
	c-4.8-0.9-9.4-2.3-13.8-4c-4.5-1.7-8.6-3.8-12.6-6.1c-3.9-2.4-7.3-5-10.2-7.9l10.1-16c0.7-1.2,1.8-2.2,3.1-2.9
	c1.4-0.7,2.8-1.1,4.4-1.1c2,0,4.1,0.6,6.1,1.9c2.1,1.3,4.4,2.7,7,4.3c2.6,1.6,5.6,3,9,4.3c3.4,1.3,7.4,1.9,12,1.9
	c6.2,0,11-1.4,14.5-4.1c3.4-2.7,5.2-7.1,5.2-13c0-3.4-0.9-6.3-2.8-8.4c-1.9-2.2-4.4-4-7.4-5.4c-3.1-1.4-6.6-2.7-10.5-3.8
	c-3.9-1.1-7.9-2.3-12.1-3.6c-4.1-1.3-8.1-2.9-12.1-4.9c-3.9-1.9-7.4-4.5-10.5-7.6c-3.1-3.1-5.6-7.1-7.4-11.8
	c-1.9-4.7-2.8-10.5-2.8-17.4c0-5.5,1.1-11,3.3-16.2c2.2-5.3,5.5-10,9.8-14.1c4.3-4.1,9.6-7.4,15.9-9.9c6.3-2.5,13.5-3.7,21.6-3.7
	c4.5,0,8.9,0.4,13.2,1.1c4.3,0.7,8.4,1.8,12.2,3.1c3.9,1.4,7.4,3,10.8,5s6.3,4.1,9,6.5L503,32.1z M629.8,111.6
	c0.8,0,1.6,0.2,2.4,0.5c0.8,0.3,1.6,0.8,2.3,1.6l13.6,14.3c-5.9,7.8-13.4,13.6-22.3,17.6c-9,4-19.5,5.9-31.8,5.9
	c-11.2,0-21.3-1.9-30.2-5.7c-8.9-3.8-16.4-9.1-22.6-15.8c-6.2-6.7-10.9-14.7-14.2-23.9c-3.3-9.2-5-19.3-5-30.1
	c0-11,1.9-21.1,5.7-30.4c3.8-9.2,9.1-17.2,15.9-23.9C550.4,15,558.5,9.8,568,6c9.5-3.7,19.9-5.6,31.3-5.6c5.5,0,10.8,0.5,15.7,1.5
	c4.9,1,9.5,2.3,13.7,4.1c4.3,1.7,8.2,3.8,11.8,6.2c3.6,2.4,6.8,5.1,9.5,8l-11.6,15.5c-0.7,0.9-1.6,1.8-2.6,2.6
	c-1,0.8-2.4,1.2-4.3,1.2c-1.2,0-2.4-0.3-3.4-0.8c-1.1-0.5-2.2-1.2-3.4-2c-1.2-0.8-2.6-1.6-4-2.5c-1.5-0.9-3.2-1.8-5.2-2.5
	c-2-0.8-4.3-1.4-7-2c-2.7-0.5-5.8-0.8-9.4-0.8c-6.2,0-11.9,1.1-17,3.3c-5.1,2.2-9.5,5.3-13.2,9.4c-3.7,4.1-6.6,9-8.6,14.9
	c-2.1,5.8-3.1,12.3-3.1,19.6c0,7.6,1,14.3,3.1,20.2c2.1,5.9,4.9,10.8,8.4,14.9c3.5,4,7.7,7.1,12.4,9.2c4.7,2.1,9.8,3.1,15.2,3.1
	c3.1,0,5.9-0.2,8.5-0.5c2.6-0.3,4.9-0.8,7.1-1.6c2.2-0.7,4.3-1.7,6.3-2.9c2-1.2,4-2.7,6-4.4c0.8-0.7,1.7-1.2,2.6-1.7
	C627.8,111.8,628.8,111.6,629.8,111.6z"/>
<path fill="#FFFFFF" d="M0,473.9l19.3-0.4l0.2,3v-0.9c0.4,3.9,2.2,7.4,5.2,10.4c3.1,3,6.6,5.2,10.8,6.6c4.1,1.4,8.3,2.1,12.6,2.1
	c4.9,0,9.5-0.8,14-2.5c4.5-1.7,8.2-4.2,11.2-7.7c3-3.4,4.5-7.3,4.5-11.8c0-1.4-0.2-2.9-0.6-4.5c-0.4-1.7-1-3.1-1.9-4.4
	c-0.9-1.3-2.2-2.4-3.8-3.3c-1.6-0.9-3.2-1.6-4.7-2.3c-1.5-0.6-3.5-1.1-6-1.6c-2.4-0.4-4.5-0.7-6.1-0.9c-1.7-0.2-3.8-0.5-6.4-0.8
	c-3.3-0.4-6.1-0.7-8.6-1c-2.5-0.3-5.5-0.9-9.1-1.8c-3.6-0.9-6.6-1.8-9.1-2.9c-2.5-1-5-2.4-7.5-4.2c-2.5-1.7-4.6-3.7-6.3-5.9
	c-1.7-2.2-3.1-4.9-4.3-8.1c-1.2-3.2-2-6.7-2.3-10.6v0.2c-0.1-1.2-0.2-2.3-0.2-3.5c0-8.2,2.5-15.6,7.4-22.2
	c4.3-5.7,10.1-10.1,17.3-13.2c7.2-3.1,14.8-4.6,22.8-4.6c5.2,0,10.3,0.7,15.2,2.1c4.9,1.4,9.5,3.5,13.7,6.3
	c4.2,2.8,7.8,6.5,10.7,11.1c2.9,4.6,4.7,9.9,5.5,15.8l-19,0.7c-0.9-3.7-2.7-7-5.6-9.7c-2.9-2.7-6.2-4.6-9.9-5.7
	c-3.5-1.1-7.2-1.6-10.9-1.6c-0.2,0-0.4,0-0.6,0c-4.8,0.1-9.4,1-13.8,2.7c-4.4,1.7-7.8,4.2-10.3,7.5c-2.2,2.8-3.3,6.4-3.3,10.6
	c0,0.6,0,1.2,0.1,1.8c0.1,1.9,0.5,3.6,1.2,5.2c0.7,1.6,1.5,2.9,2.5,4c1,1.1,2.3,2,4,2.9s3.2,1.5,4.7,2c1.4,0.5,3.3,0.9,5.6,1.3
	c2.3,0.3,4.2,0.6,5.7,0.9c1.5,0.2,3.4,0.5,5.8,0.9c3.5,0.5,6.6,1,9.3,1.4c2.7,0.4,5.9,1.1,9.7,2c3.7,0.9,6.9,2.1,9.6,3.5
	c2.7,1.4,5.2,3,7.8,5c2.5,1.9,4.7,4.3,6.4,7.1c1.7,2.8,3,5.9,3.8,9.3c0.6,3.2,0.9,6.1,0.9,8.7c0,6.3-1.4,12.1-4.3,17.3
	c-2.9,5.2-6.7,9.6-11.4,13c-4.7,3.4-9.9,6-15.8,7.9s-11.8,2.8-17.8,2.8c-4.1,0-8.3-0.5-12.5-1.4c-4.2-1-8.3-2.4-12.3-4.4
	c-4-2-7.6-4.4-10.8-7.2c-3.2-2.8-5.9-6.2-8-10.2c-2.2-4-3.5-8.3-4-12.9L0,473.9z M107.3,397.8v-18.2h99.2v18.2h-39.9v114.4h-19.1
	V397.8H107.3z M223.9,472.4v-92.6h19.3v92.8c0,4.6,1.5,8.6,4.6,12c3.1,3.4,6.8,5.9,11.1,7.4c4.4,1.5,9,2.3,14,2.3
	c4.9,0,9.5-0.8,13.9-2.4c4.4-1.6,8.1-4.1,11.1-7.5s4.6-7.4,4.6-12.1v-92.6h19.3v92.8c0,6.5-1.5,12.4-4.4,17.7
	c-2.9,5.3-6.8,9.6-11.6,12.9c-4.8,3.3-10,5.8-15.7,7.6c-5.7,1.8-11.5,2.7-17.2,2.7c-6,0-11.8-0.9-17.5-2.7
	c-5.7-1.8-10.9-4.3-15.7-7.6c-4.7-3.3-8.6-7.6-11.5-12.9C225.4,484.9,223.9,479,223.9,472.4z M344.8,512.2V379.8h47.5
	c8.4,0,16.2,1.2,23.4,3.7c7.2,2.5,13.3,5.8,18.3,10.1c5.1,4.3,9.4,9.2,12.9,14.9c3.6,5.7,6.2,11.7,7.9,18c1.7,6.3,2.5,12.9,2.5,19.6
	c0,6.7-0.8,13.3-2.5,19.6c-1.7,6.3-4.3,12.3-7.9,18c-3.6,5.6-7.9,10.6-12.9,14.8c-5.1,4.2-11.2,7.6-18.3,10
	c-7.2,2.5-14.9,3.7-23.4,3.7H344.8z M363.9,493.1h28.4c7.4,0,14.1-1.3,20.1-4s10.9-6.2,14.6-10.7c3.7-4.4,6.6-9.4,8.6-15
	c2-5.5,3-11.3,3-17.3c0-4.7-0.6-9.4-1.8-13.9c-1.2-4.5-3.1-8.8-5.6-12.9c-2.5-4-5.6-7.6-9.2-10.6c-3.6-3-7.9-5.4-13-7.2
	s-10.6-2.6-16.6-2.6h-28.4V493.1z M467.3,512.2v-17.5h24.6v-97.6h-24.6v-17.5h68.3v17.5H511v97.6h24.6v17.5H467.3z M550.4,472.3
	c-3.5-8.3-5.3-17.1-5.3-26.4s1.8-18,5.3-26.4s8.4-15.7,14.6-22.1c6.3-6.3,13.6-11.3,22-14.9c8.4-3.6,17.2-5.4,26.4-5.4
	c9.3,0,18.1,1.8,26.4,5.3c8.3,3.5,15.6,8.5,22.1,14.9c6.2,6.4,11.1,13.8,14.6,22.1s5.3,17.1,5.3,26.4s-1.8,18-5.3,26.4
	s-8.4,15.7-14.6,22.1c-6.3,6.5-13.7,11.5-22,15c-8.3,3.5-17.1,5.3-26.4,5.3c-9.2,0-18.1-1.8-26.4-5.4c-8.4-3.6-15.7-8.6-21.9-15
	C558.8,488,553.9,480.6,550.4,472.3z M568.5,426.9c-2.6,6-3.8,12.3-3.8,19s1.3,13,3.8,19c2.6,6,6.1,11.2,10.6,15.7
	c4.5,4.6,9.7,8.2,15.6,10.8c5.9,2.6,12.1,3.8,18.7,3.8c6.5,0,12.8-1.3,18.7-3.8c5.9-2.6,11.2-6.1,15.9-10.8
	c9.5-9.5,14.2-21,14.2-34.7c0-13.6-4.7-25.2-14.2-34.7c-4.6-4.6-9.9-8.2-15.9-10.7c-5.9-2.5-12.2-3.8-18.7-3.8
	c-6.5,0-12.8,1.3-18.7,3.8c-5.9,2.6-11.1,6.1-15.6,10.7C574.6,415.7,571,420.9,568.5,426.9z M698.4,446.3c0-9.1,1.7-17.8,5-25.9
	c3.4-8.1,8-15.3,13.9-21.6c5.9-6.1,12.8-10.9,20.8-14.4c7.9-3.5,16.3-5.3,25.1-5.3c15.2,0,28.3,4.4,39.3,13.2
	c11.1,8.8,18.5,20.7,22.3,35.7h-18.9c-3.5-9.7-9-17.1-16.5-22.1c-7.6-5.1-16.3-7.6-26.3-7.6c-6.2,0-12.2,1.3-17.8,3.8
	c-5.6,2.5-10.6,6-14.8,10.4c-9.1,9.5-13.6,20.8-13.6,33.9c0,13,4.5,24.2,13.6,33.6c4.3,4.4,9.2,7.9,14.8,10.4
	c5.6,2.5,11.6,3.7,17.8,3.7c10.2,0,19.2-2.8,27-8.3c7.9-5.5,13.5-13.2,16.9-23.1h18.8c-3.8,15.2-11.4,27.5-22.7,36.7
	s-24.7,13.9-39.9,13.9c-8.9,0-17.3-1.7-25.1-5.2c-7.9-3.5-14.8-8.3-20.7-14.5c-5.9-6.3-10.5-13.5-13.9-21.6
	C700.1,463.7,698.4,455.2,698.4,446.3z M844.4,512.2V379.6h48.3c5.5,0,10.7,0.8,15.5,2.3c4.8,1.6,8.8,3.7,12.2,6.4
	c3.3,2.7,6.2,5.9,8.6,9.5c2.4,3.6,4.1,7.4,5.3,11.4c1.1,4,1.7,8.2,1.7,12.4c0,9.9-3,18.7-9,26.3c-6,7.6-14.4,12.3-25.3,14.3
	l41.9,49.9h-24.8L870.3,454v-9.1h22.4c7.6,0,13.5-2.3,17.7-6.9c4.2-4.6,6.3-10,6.3-16.3c0-6.2-2.1-11.5-6.3-16.1
	c-4.2-4.6-10.1-6.9-17.7-6.9h-29.3v113.4H844.4z M953.4,512.2l53.3-134.3h14l53.3,134.3h-20.5l-12.7-33.7H987l-12.9,33.7H953.4z
	 M993.9,460.7h39.8l-19.9-52.2L993.9,460.7z M1087.5,512.2V379.6h79v18.6h-59.8v39.6h53v17.8h-53v56.6H1087.5z M1180.8,397.8v-18.2
	h99.2v18.2h-39.9v114.4h-19.1V397.8H1180.8z"/>
<path fill="#FFFFFF" d="M0,125l9.1-0.2l0.1,1.4v-0.4c0.2,1.8,1,3.4,2.5,4.8s3.1,2.4,5.1,3.1c1.9,0.7,3.9,1,5.9,1
	c2.3,0,4.5-0.4,6.6-1.2c2.1-0.8,3.9-2,5.3-3.6c1.4-1.6,2.1-3.4,2.1-5.5c0-0.6-0.1-1.3-0.3-2.1c-0.2-0.8-0.5-1.5-0.9-2.1
	c-0.4-0.6-1-1.1-1.8-1.5c-0.8-0.4-1.5-0.8-2.2-1.1c-0.7-0.3-1.7-0.5-2.8-0.7c-1.1-0.2-2.1-0.3-2.9-0.4c-0.8-0.1-1.8-0.2-3-0.4
	c-1.5-0.2-2.9-0.3-4-0.5s-2.6-0.4-4.3-0.8c-1.7-0.4-3.1-0.8-4.3-1.3c-1.2-0.5-2.3-1.1-3.5-2c-1.2-0.8-2.2-1.7-3-2.8
	c-0.8-1-1.5-2.3-2-3.8s-0.9-3.1-1.1-4.9v0.1c-0.1-0.5-0.1-1.1-0.1-1.6c0-3.8,1.2-7.2,3.5-10.3c2-2.6,4.7-4.7,8.1-6.1
	c3.4-1.4,7-2.2,10.7-2.2c2.5,0,4.8,0.3,7.1,1c2.3,0.7,4.4,1.6,6.4,2.9c2,1.3,3.7,3,5,5.2c1.4,2.2,2.2,4.6,2.6,7.3L35,96.8
	c-0.4-1.7-1.3-3.2-2.6-4.5c-1.4-1.3-2.9-2.1-4.6-2.7c-1.6-0.5-3.4-0.8-5.1-0.7c-0.1,0-0.2,0-0.3,0c-2.3,0.1-4.4,0.5-6.5,1.2
	c-2.1,0.8-3.7,1.9-4.8,3.5c-1,1.3-1.6,3-1.6,4.9c0,0.3,0,0.6,0,0.9c0.1,0.9,0.2,1.7,0.6,2.4c0.3,0.7,0.7,1.3,1.2,1.8
	c0.5,0.5,1.1,0.9,1.9,1.3s1.5,0.7,2.2,0.9c0.7,0.2,1.5,0.4,2.6,0.6c1.1,0.2,2,0.3,2.7,0.4c0.7,0.1,1.6,0.2,2.7,0.4
	c1.6,0.2,3.1,0.5,4.4,0.7c1.3,0.2,2.8,0.5,4.5,0.9c1.7,0.4,3.2,1,4.5,1.6c1.2,0.6,2.5,1.4,3.6,2.3c1.2,0.9,2.2,2,3,3.3
	c0.8,1.3,1.4,2.7,1.8,4.3c0.3,1.5,0.4,2.8,0.4,4c0,2.9-0.7,5.6-2,8.1c-1.4,2.4-3.1,4.5-5.3,6c-2.2,1.6-4.7,2.8-7.4,3.7
	s-5.5,1.3-8.4,1.3c-1.9,0-3.9-0.2-5.9-0.7c-2-0.4-3.9-1.1-5.8-2.1c-1.9-0.9-3.6-2.1-5.1-3.4c-1.5-1.3-2.8-2.9-3.8-4.7
	c-1-1.9-1.6-3.9-1.9-6L0,125z M50.4,89.6v-8.5H97v8.5H78.2v53.2h-9V89.6H50.4z M105.1,124.3V81.2h9.1v43.2c0,2.2,0.7,4,2.1,5.6
	c1.4,1.6,3.2,2.7,5.2,3.4c2.1,0.7,4.2,1.1,6.6,1.1c2.3,0,4.5-0.4,6.5-1.1c2.1-0.7,3.8-1.9,5.2-3.5c1.4-1.6,2.1-3.5,2.1-5.6V81.2h9.1
	v43.2c0,3-0.7,5.8-2.1,8.2c-1.4,2.5-3.2,4.5-5.4,6c-2.2,1.5-4.7,2.7-7.4,3.6c-2.7,0.8-5.4,1.2-8.1,1.2c-2.8,0-5.5-0.4-8.2-1.2
	c-2.7-0.8-5.1-2-7.4-3.6c-2.2-1.5-4-3.5-5.4-6C105.8,130.1,105.1,127.4,105.1,124.3z M161.8,142.8V81.2h22.3c4,0,7.6,0.6,11,1.7
	c3.4,1.1,6.2,2.7,8.6,4.7c2.4,2,4.4,4.3,6.1,6.9c1.7,2.6,2.9,5.4,3.7,8.4c0.8,3,1.2,6,1.2,9.1s-0.4,6.2-1.2,9.1
	c-0.8,3-2,5.7-3.7,8.4c-1.7,2.6-3.7,4.9-6.1,6.9c-2.4,2-5.2,3.5-8.6,4.7c-3.4,1.1-7,1.7-11,1.7H161.8z M170.8,133.9h13.3
	c3.5,0,6.6-0.6,9.4-1.9s5.1-2.9,6.9-5c1.8-2.1,3.1-4.4,4-7c0.9-2.6,1.4-5.3,1.4-8c0-2.2-0.3-4.4-0.9-6.5c-0.6-2.1-1.5-4.1-2.6-6
	c-1.2-1.9-2.6-3.5-4.3-4.9c-1.7-1.4-3.7-2.5-6.1-3.3c-2.4-0.8-5-1.2-7.8-1.2h-13.3V133.9z M219.4,142.8v-8.1h11.5V89.3h-11.5v-8.1
	h32.1v8.1h-11.5v45.4h11.5v8.1H219.4z M258.4,124.2c-1.6-3.9-2.5-8-2.5-12.3c0-4.3,0.8-8.4,2.5-12.3s3.9-7.3,6.9-10.3
	c3-3,6.4-5.3,10.3-6.9c3.9-1.7,8.1-2.5,12.4-2.5c4.4,0,8.5,0.8,12.4,2.5c3.9,1.6,7.3,4,10.4,7c2.9,3,5.2,6.4,6.9,10.3
	s2.5,8,2.5,12.3c0,4.3-0.8,8.4-2.5,12.3s-3.9,7.3-6.9,10.3c-3,3-6.4,5.3-10.3,7c-3.9,1.6-8,2.5-12.4,2.5c-4.3,0-8.5-0.8-12.4-2.5
	c-3.9-1.7-7.4-4-10.3-7C262.3,131.5,260,128.1,258.4,124.2z M266.9,103.1c-1.2,2.8-1.8,5.7-1.8,8.8c0,3.1,0.6,6,1.8,8.8
	c1.2,2.8,2.9,5.2,5,7.3c2.1,2.2,4.6,3.8,7.3,5s5.7,1.8,8.8,1.8c3.1,0,6-0.6,8.8-1.8c2.8-1.2,5.3-2.9,7.4-5c4.5-4.4,6.7-9.8,6.7-16.1
	s-2.2-11.7-6.7-16.1c-2.2-2.2-4.7-3.8-7.4-5c-2.8-1.2-5.7-1.8-8.8-1.8c-3.1,0-6,0.6-8.8,1.8c-2.8,1.2-5.2,2.8-7.3,5
	C269.7,97.9,268.1,100.3,266.9,103.1z M0,202.9c0-5.1,0.9-9.8,2.8-14.4c1.8-4.5,4.4-8.5,7.7-12c3.3-3.4,7.1-6.1,11.4-8
	c4.4-1.9,9-2.9,13.8-2.9c8.3,0,15.6,2.4,21.6,7.3c6.1,4.9,10.2,11.5,12.3,19.8H59.2c-1.9-5.4-4.9-9.5-9.1-12.3
	c-4.2-2.8-9-4.2-14.5-4.2c-3.4,0-6.7,0.7-9.8,2.1c-3.1,1.4-5.8,3.3-8.2,5.8c-5,5.2-7.5,11.5-7.5,18.8c0,7.2,2.5,13.4,7.5,18.7
	c2.3,2.5,5.1,4.4,8.2,5.7c3.1,1.4,6.4,2.1,9.8,2.1c5.6,0,10.6-1.5,14.9-4.6c4.3-3.1,7.4-7.4,9.3-12.8h10.3
	c-2.1,8.4-6.3,15.2-12.5,20.4c-6.2,5.1-13.6,7.7-22,7.7c-4.9,0-9.5-1-13.8-2.9c-4.3-1.9-8.1-4.6-11.4-8c-3.2-3.5-5.8-7.5-7.6-12
	C0.9,212.6,0,207.9,0,202.9z M80.3,239.5v-73.6h26.6c3.1,0,5.9,0.4,8.5,1.3c2.6,0.9,4.9,2.1,6.7,3.6c1.8,1.5,3.4,3.3,4.7,5.3
	c1.3,2,2.3,4.1,2.9,6.3c0.6,2.2,0.9,4.5,0.9,6.9c0,5.5-1.6,10.4-4.9,14.6c-3.3,4.2-7.9,6.8-13.9,7.9l23,27.7h-13.6l-26.6-32.3v-5
	h12.3c4.2,0,7.4-1.3,9.7-3.8c2.3-2.5,3.5-5.5,3.5-9c0-3.4-1.2-6.4-3.5-8.9c-2.3-2.5-5.6-3.8-9.7-3.8H90.8v62.9H80.3z M140.3,239.5
	l29.3-74.5h7.7l29.3,74.5h-11.3l-7-18.7h-29.6l-7.1,18.7H140.3z M162.6,210.9h21.9l-10.9-29L162.6,210.9z M214.1,239.5v-73.6h43.4
	v10.3h-32.9v22h29.2v9.9h-29.2v31.4H214.1z M265.4,176v-10.1H320V176h-22v63.5h-10.5V176H265.4z"/>
</svg>
