<svg xmlns="http://www.w3.org/2000/svg" viewBox="0 0 320 160"><title>studiocraft-logo</title><path  style="fill: #FF4136;" d="M0,45l9.09-.2,0.1,1.4v-0.4a7.53,7.53,0,0,0,2.5,4.79,14,14,0,0,0,5.1,3.1,17,17,0,0,0,5.9,1,18.38,18.38,0,0,0,6.6-1.2,13.16,13.16,0,0,0,5.3-3.6,8,8,0,0,0,2.1-5.49,8.8,8.8,0,0,0-.3-2.1,6.66,6.66,0,0,0-.9-2.1,4.53,4.53,0,0,0-1.8-1.5c-0.8-.4-1.5-0.8-2.2-1.1a14.22,14.22,0,0,0-2.8-.7c-1.1-.2-2.1-0.3-2.9-0.4s-1.8-.2-3-0.4c-1.5-.2-2.9-0.3-4-0.5s-2.6-.4-4.3-0.8a27.86,27.86,0,0,1-4.3-1.3,15.63,15.63,0,0,1-3.5-2,11.48,11.48,0,0,1-3-2.8,12.38,12.38,0,0,1-2-3.8A23.45,23.45,0,0,1,.6,20.07v0.1a8.59,8.59,0,0,1-.1-1.6A16.84,16.84,0,0,1,4,8.29,19.34,19.34,0,0,1,12.09,2.2,28,28,0,0,1,22.79,0a23.9,23.9,0,0,1,7.1,1,24.67,24.67,0,0,1,6.4,2.9,15.57,15.57,0,0,1,5,5.19,18.21,18.21,0,0,1,2.6,7.29l-8.89.5a9.36,9.36,0,0,0-2.6-4.49,12.68,12.68,0,0,0-4.6-2.7,14.64,14.64,0,0,0-5.1-.7h-0.3a23.37,23.37,0,0,0-6.5,1.2,9.73,9.73,0,0,0-4.8,3.5,8,8,0,0,0-1.6,4.89v0.9a6.05,6.05,0,0,0,.6,2.4,5.67,5.67,0,0,0,1.2,1.8,7,7,0,0,0,1.9,1.3,12.78,12.78,0,0,0,2.2.9,26.09,26.09,0,0,0,2.6.6c1.1,0.2,2,.3,2.7.4s1.6,0.2,2.7.4c1.6,0.2,3.1.5,4.4,0.7s2.8,0.5,4.5.9a23.58,23.58,0,0,1,4.5,1.6,19.88,19.88,0,0,1,3.6,2.3,11.83,11.83,0,0,1,3,3.3,15,15,0,0,1,1.8,4.29,20,20,0,0,1,.4,4,17.31,17.31,0,0,1-2,8.09,18.07,18.07,0,0,1-5.3,6,27,27,0,0,1-7.4,3.7,26.35,26.35,0,0,1-8.39,1.3,24.35,24.35,0,0,1-5.9-.7,21.31,21.31,0,0,1-5.8-2.1,22.66,22.66,0,0,1-5.1-3.4,17.43,17.43,0,0,1-3.8-4.69,18.25,18.25,0,0,1-1.9-6V45ZM50.37,9.69V1.2H96.94V9.69H78.15V62.82h-9V9.69H50.37ZM105,44.34V1.3h9.09V44.44a8.11,8.11,0,0,0,2.1,5.59,12.09,12.09,0,0,0,5.2,3.4,20.3,20.3,0,0,0,6.6,1.1,19.7,19.7,0,0,0,6.5-1.1,11.72,11.72,0,0,0,5.2-3.5,8.29,8.29,0,0,0,2.1-5.59V1.3h9.09V44.44a16.12,16.12,0,0,1-2.1,8.19,17.4,17.4,0,0,1-5.4,6,29.89,29.89,0,0,1-7.4,3.6,28.27,28.27,0,0,1-16.29,0,25.4,25.4,0,0,1-7.4-3.6,17.4,17.4,0,0,1-5.4-6A18.74,18.74,0,0,1,105,44.34ZM161.7,62.82V1.3H184A35.23,35.23,0,0,1,195,3a25.42,25.42,0,0,1,8.59,4.69,30.81,30.81,0,0,1,6.1,6.89,28.65,28.65,0,0,1,3.7,8.39,34.92,34.92,0,0,1,1.2,9.09,34.37,34.37,0,0,1-1.2,9.09,29.86,29.86,0,0,1-3.7,8.39,30.81,30.81,0,0,1-6.1,6.89A27.27,27.27,0,0,1,195,61.12a35.23,35.23,0,0,1-11,1.7H161.7Zm9-8.89H184a21.94,21.94,0,0,0,9.39-1.9,19.81,19.81,0,0,0,6.9-5,21.21,21.21,0,0,0,4-7,24.45,24.45,0,0,0,1.4-8,23.68,23.68,0,0,0-.9-6.49,26.54,26.54,0,0,0-2.6-6,20.19,20.19,0,0,0-4.3-4.89,18.76,18.76,0,0,0-6.1-3.3,24.52,24.52,0,0,0-7.8-1.2H170.69V53.93h0Zm48.57,8.89V54.73h11.49V9.39H219.26V1.3h32.08V9.39H239.85V54.73h11.49v8.09H219.26Zm39-18.58A32.12,32.12,0,0,1,255.74,32a30.36,30.36,0,0,1,2.5-12.28,32.66,32.66,0,0,1,6.9-10.29A31.08,31.08,0,0,1,275.43,2.5,30.88,30.88,0,0,1,287.82,0a30.54,30.54,0,0,1,12.39,2.5,32.86,32.86,0,0,1,10.39,7,34.44,34.44,0,0,1,6.9,10.29A30.36,30.36,0,0,1,320,32.06a30.36,30.36,0,0,1-2.5,12.28,32.56,32.56,0,0,1-17.19,17.28,32.3,32.3,0,0,1-12.39,2.5,30.88,30.88,0,0,1-12.39-2.5,31.86,31.86,0,0,1-10.29-7A31.25,31.25,0,0,1,258.24,44.24Zm8.49-21.07a22.37,22.37,0,0,0,0,17.58,23.11,23.11,0,0,0,5,7.29,22.62,22.62,0,0,0,7.3,5,21.65,21.65,0,0,0,8.79,1.8,22,22,0,0,0,8.79-1.8,23.57,23.57,0,0,0,7.4-5A21.63,21.63,0,0,0,310.71,32,21.63,21.63,0,0,0,304,15.88a24.17,24.17,0,0,0-7.4-5,22.41,22.41,0,0,0-17.59,0,21.6,21.6,0,0,0-7.3,5A21.58,21.58,0,0,0,266.73,23.17ZM0,122.85a36.89,36.89,0,0,1,2.8-14.38,37.88,37.88,0,0,1,7.7-12,36.19,36.19,0,0,1,11.39-8,34.5,34.5,0,0,1,13.79-2.9c8.29,0,15.59,2.4,21.59,7.29a35.79,35.79,0,0,1,12.29,19.78H59.16a23.56,23.56,0,0,0-9.09-12.28,25.45,25.45,0,0,0-14.49-4.19,23.65,23.65,0,0,0-9.79,2.1,27.06,27.06,0,0,0-8.19,43.25,23.31,23.31,0,0,0,8.19,5.69,23.65,23.65,0,0,0,9.79,2.1,24.85,24.85,0,0,0,14.89-4.59,25.91,25.91,0,0,0,9.29-12.78H70.06a37.83,37.83,0,0,1-12.49,20.37,33.71,33.71,0,0,1-22,7.69,33.79,33.79,0,0,1-13.79-2.9,36.19,36.19,0,0,1-11.39-8,39.42,39.42,0,0,1-7.6-12A36.75,36.75,0,0,1,0,122.85ZM80.25,159.4V85.89h26.58a25.69,25.69,0,0,1,8.49,1.3,21.38,21.38,0,0,1,6.7,3.6,23.8,23.8,0,0,1,4.7,5.29,22.38,22.38,0,0,1,2.9,6.29,26.06,26.06,0,0,1,.9,6.89,22.94,22.94,0,0,1-4.9,14.58c-3.3,4.19-7.9,6.79-13.89,7.89l23,27.67H121.12L94.54,127.14v-5h12.29c4.2,0,7.4-1.3,9.69-3.8a13.17,13.17,0,0,0,0-17.88c-2.3-2.5-5.6-3.8-9.69-3.8H90.74V159.5H80.25v-0.1Zm60,0L169.49,85h7.7l29.28,74.41H195.18l-7-18.68H158.6l-7.1,18.68H140.21Zm22.29-28.56h21.89l-10.89-29ZM214,159.4V85.89h43.37V96.18H224.46v22h29.18V128H224.46V159.4H214ZM265.23,96V85.89H319.8V96h-22V159.4H287.32V96H265.23Z"/></svg>
