<?xml version="1.0" standalone="no"?>
<!DOCTYPE svg PUBLIC "-//W3C//DTD SVG 1.1//EN" "http://www.w3.org/Graphics/SVG/1.1/DTD/svg11.dtd" >
<svg xmlns="http://www.w3.org/2000/svg">
<metadata></metadata>
<defs>
<font id="code_pro_light_lcregular" horiz-adv-x="1267" >
<font-face units-per-em="2048" ascent="1536" descent="-512" />
<missing-glyph horiz-adv-x="555" />
<glyph unicode="&#xfb01;" horiz-adv-x="944" d="M16 1071v35h217q3 186 101 274q51 45 116 60t166 4l-4 -37q-91 9 -149 -4t-101 -51q-85 -79 -88 -246h471v-1106h-40v1071h-431v-1071h-41v1071h-217zM684 1393q0 17 12 29t29 12t29 -12t12 -29t-12 -29t-29 -12t-29 12t-12 29z" />
<glyph unicode="&#xfb02;" horiz-adv-x="946" d="M16 1061v37h217q3 194 101 282q103 93 301 72l-4 -41q-183 18 -269 -59q-85 -79 -88 -254h334v-37h-334v-1061h-41v1061h-217zM707 0v1432h41v-1432h-41z" />
<glyph unicode="&#xfb03;" horiz-adv-x="1480" d="M16 1071v35h217q3 186 101 274q103 93 301 72l-4 -41q-183 18 -269 -59q-85 -79 -88 -246h476q3 187 100 274q51 45 116.5 60t166.5 4l-5 -37q-91 9 -148.5 -4t-100.5 -51q-85 -79 -88 -246h489v-1106h-41v1071h-448v-1071h-41v1071h-476v-1071h-41v1071h-217zM1219 1393 q0 17 12 29t29 12t28.5 -12t11.5 -29t-11.5 -29t-28.5 -12t-29 12t-12 29z" />
<glyph unicode="&#xfb04;" horiz-adv-x="1476" d="M16 1071v35h217q3 186 101 274q103 93 301 72l-4 -41q-183 18 -269 -59q-85 -79 -88 -246h469q3 186 101 274q51 45 116 60t166 4l-4 -37q-91 9 -149 -4t-101 -51q-85 -79 -88 -246h326v-35h-326v-1071h-41v1071h-469v-1071h-41v1071h-217zM1239 0v1434h41v-1434h-41z " />
<glyph horiz-adv-x="0" />
<glyph horiz-adv-x="682" />
<glyph unicode=" "  horiz-adv-x="555" />
<glyph unicode="&#x09;" horiz-adv-x="555" />
<glyph unicode="&#xa0;" horiz-adv-x="555" />
<glyph unicode="!" horiz-adv-x="258" d="M86 35q0 17 12.5 29t28.5 12q15 0 27 -12t12 -29q0 -14 -12 -26.5t-27 -12.5t-28 12.5t-13 26.5zM102 180v1256h50v-1256h-50z" />
<glyph unicode="&#x22;" horiz-adv-x="335" d="M74 1018v414h45v-414h-45zM227 1018v414h45v-414h-45z" />
<glyph unicode="#" horiz-adv-x="966" d="M2 481v35h213l66 414h-209v33h215l78 473h41l-78 -473h370l78 473h39l-78 -473h193v-33h-199l-67 -414h194v-35h-201l-77 -481h-39l80 481h-373l-78 -481h-41l80 481h-207zM254 516h373l65 414h-370z" />
<glyph unicode="$" horiz-adv-x="1083" d="M43 358l45 4l2 -20q10 -70 52.5 -129t102.5 -98t130.5 -61.5t140.5 -24.5v669q-74 8 -129 18.5t-117 34t-102.5 57.5t-71.5 90t-39 130q-5 62 13.5 127t56.5 115q61 80 166 125.5t223 50.5v119h43v-119q105 -2 196.5 -37t158 -106.5t85.5 -169.5l2 -23l-43 -8l-2 22 q-19 90 -75 152q-58 60 -144 92.5t-178 34.5v-664q48 -5 71 -8t67.5 -9.5t68 -12.5t61 -17.5t58.5 -24.5t48.5 -32.5t44 -42.5t31.5 -54t23 -67q10 -48 10 -84q0 -89 -42 -164.5t-110.5 -125t-154 -78.5t-176.5 -33v-131h-43v131q-80 3 -158 27t-145.5 66.5t-113 109.5 t-54.5 149zM102 1030q5 -48 20 -86.5t36 -66t53 -49t63.5 -35.5t75 -24.5t80 -16t86.5 -11.5v662q-106 -5 -202.5 -45.5t-151.5 -114.5q-67 -81 -60 -213zM559 29q83 3 160.5 28t140 69t100 112t37.5 149q0 38 -8 74q-9 40 -28 72t-41 54t-57.5 39.5t-65 27.5t-76.5 18.5 t-78 12.5t-84 9v-665z" />
<glyph unicode="%" horiz-adv-x="1300" d="M49 1147q0 126 86 211.5t207 85.5t207 -85.5t86 -211.5q0 -121 -86.5 -208t-206.5 -87q-121 0 -207 85t-86 210zM92 1147q0 -107 72 -181.5t178 -74.5q108 0 180 74.5t72 181.5q0 109 -72 183.5t-180 74.5q-107 0 -178.5 -74.5t-71.5 -183.5zM172 -23l899 1489h47 l-897 -1489h-49zM657 283q0 126 86 211.5t207 85.5t207 -85.5t86 -211.5q0 -121 -86.5 -208t-206.5 -87q-121 0 -207 85t-86 210zM700 283q0 -107 72 -181.5t178 -74.5q108 0 180 74.5t72 181.5q0 109 -72 183.5t-180 74.5q-107 0 -178.5 -74.5t-71.5 -183.5z" />
<glyph unicode="&#x26;" horiz-adv-x="1110" d="M51 356q0 122 83.5 243t242.5 200q-38 45 -63 77.5t-54.5 79t-44 93t-14.5 92.5q0 77 25 137.5t67.5 96.5t94 54.5t108.5 18.5q72 0 135 -30.5t106 -97.5t43 -159q0 -62 -28.5 -118.5t-81.5 -104.5t-104.5 -82.5t-121.5 -73.5l394 -458l125 204l32 -18l-131 -215 l236 -277h-53l-209 238q-103 -135 -195.5 -201.5t-206.5 -66.5q-101 0 -188 44t-142 129.5t-55 194.5zM94 356q0 -100 50 -175.5t128 -112.5t170 -37q178 0 371 256l-407 481q-131 -60 -221.5 -177t-90.5 -235zM244 1143q0 -141 176 -334q46 24 83 45.5t83.5 56.5t77 70 t52 82t21.5 96q0 116 -68 182t-173 66q-115 0 -183.5 -72.5t-68.5 -191.5z" />
<glyph unicode="'" horiz-adv-x="239" d="M96 1020v412h43v-412h-43z" />
<glyph unicode="(" horiz-adv-x="620" d="M98 721q0 295 138.5 553t363.5 389v-43q-141 -92 -245.5 -242t-157 -319t-52.5 -338q0 -171 57 -345t164.5 -324t247.5 -242v-48q-152 92 -269.5 245t-182 339t-64.5 375z" />
<glyph unicode=")" horiz-adv-x="649" d="M20 -190q140 92 247.5 242t164.5 324t57 345q0 166 -52 335.5t-157 320.5t-245 243v43q223 -130 362.5 -393.5t139.5 -548.5q0 -189 -65 -375t-182.5 -339t-269.5 -245v48z" />
<glyph unicode="*" horiz-adv-x="720" d="M43 1260l10 32l283 -92v311h35v-313l293 96l10 -32l-295 -95l196 -264l-28 -20l-195 264l-188 -262l-31 18l193 264z" />
<glyph unicode="+" horiz-adv-x="987" d="M63 723v41h402v407h43v-407h399v-41h-399v-422h-43v422h-402z" />
<glyph unicode="," horiz-adv-x="215" d="M-12 -195l98 271h64l-115 -271h-47z" />
<glyph unicode="-" horiz-adv-x="704" d="M86 694v45h504v-45h-504z" />
<glyph unicode="." horiz-adv-x="225" d="M66 41q0 23 14.5 36t34.5 13q19 0 33 -14.5t14 -34.5q0 -17 -14 -31t-33 -14q-20 0 -34.5 12t-14.5 33z" />
<glyph unicode="/" horiz-adv-x="690" d="M31 -111l579 1680h43l-577 -1680h-45z" />
<glyph unicode="0" horiz-adv-x="1212" d="M76 717q0 145 33.5 276.5t97 236.5t166 167.5t229.5 62.5t229 -62.5t166 -167.5t97.5 -236.5t33.5 -276.5q0 -114 -20.5 -220.5t-64 -200t-105 -163.5t-148 -110.5t-188.5 -40.5q-127 0 -229.5 61.5t-166 165.5t-97 234.5t-33.5 273.5zM119 717q0 -106 19 -206t58.5 -188 t95.5 -154t136 -104t174 -38q117 0 211.5 58t153 156t89.5 220t31 256q0 132 -31 254.5t-89.5 223t-153 160.5t-211.5 60q-94 0 -174 -38.5t-136 -104.5t-95.5 -155.5t-58.5 -190.5t-19 -209z" />
<glyph unicode="1" horiz-adv-x="567" d="M33 942l352 492h43v-1434h-45v1358l-320 -438z" />
<glyph unicode="2" horiz-adv-x="1124" d="M78 989q0 92 31 172t90 141t152.5 96.5t209.5 35.5q113 0 206 -34.5t152.5 -93t91 -135t29.5 -161.5q-1 -111 -55 -210t-143 -173l-686 -584h888v-43h-962v39l727 618q81 72 132 161.5t54 185.5q2 76 -26 145.5t-81.5 123.5t-138 86t-188.5 32q-106 0 -191 -32.5 t-138 -88.5t-81 -128t-28 -153h-45z" />
<glyph unicode="3" horiz-adv-x="1118" d="M72 313l41 6q20 -130 126 -213t300 -83q112 0 201.5 29.5t145 79t84.5 111t29 128.5q0 68 -29 130t-84 111.5t-144.5 79t-202.5 29.5h-101v41h101q190 0 289.5 93.5t99.5 229.5q0 71 -29.5 130t-78.5 97.5t-112 62.5t-130.5 29.5t-134.5 -5.5t-123.5 -38.5t-98 -74.5 t-57.5 -108l-41 8q17 71 63.5 126t109.5 86.5t137.5 45t149.5 6.5t145 -34.5t124 -71.5t86.5 -112t32.5 -149q0 -47 -12 -93.5t-40 -97t-84.5 -90t-134.5 -57.5v-2q163 -33 255 -128t92 -242q0 -80 -33.5 -150.5t-95.5 -125t-160 -86t-219 -31.5q-211 0 -328 92t-139 241z " />
<glyph unicode="4" horiz-adv-x="1114" d="M57 367v39l811 1028h39v-1024h133v-43h-133v-367h-41v367h-809zM115 410h751v923l2 33l-12 -23z" />
<glyph unicode="5" horiz-adv-x="1126" d="M78 309l41 15q44 -127 151 -203t275 -76q110 0 198 36t142 96t82.5 134t27.5 154q0 114 -65 218t-178 155q-109 45 -220 45q-169 0 -376 -92l-43 20v623h833v-41h-790v-555q184 88 370 88q127 0 234 -45q134 -57 206 -169.5t74 -246.5q1 -88 -30.5 -169.5t-91 -148.5 t-156.5 -107t-217 -40q-181 0 -299.5 85.5t-167.5 223.5z" />
<glyph unicode="6" horiz-adv-x="1155" d="M84 444q0 151 84 269l498 721h53l-377 -549l-55 -68q35 26 49 35q107 55 244 55q120 0 216.5 -40t156 -106t91 -147.5t31.5 -169.5q0 -89 -31.5 -170t-91 -146.5t-156 -104.5t-216.5 -39q-119 0 -216 39t-156.5 104.5t-91.5 147t-32 169.5zM127 444q0 -79 29 -152.5 t84 -132.5t143 -94.5t197 -35.5q110 0 198 35.5t142.5 94.5t83 132.5t28.5 152.5q0 80 -28.5 153.5t-83 133.5t-142.5 95.5t-198 35.5q-109 0 -197 -35.5t-143 -95t-84 -133.5t-29 -154z" />
<glyph unicode="7" horiz-adv-x="1093" d="M59 1391v43h963v-41l-760 -1393h-53l758 1391h-908z" />
<glyph unicode="8" horiz-adv-x="1142" d="M72 377q0 126 84.5 230.5t236.5 144.5l39 4l-67 14q-109 46 -166.5 135t-57.5 193q1 71 26 131.5t66.5 102.5t96.5 71.5t115 43t122 13.5q103 0 186.5 -31t135 -82.5t79 -116t27.5 -134.5q0 -113 -66 -206.5t-190 -131.5l-39 -6l41 -4q161 -41 242.5 -141.5t81.5 -229.5 q0 -76 -32 -146t-92 -126t-157 -89.5t-217 -33.5q-119 0 -215.5 33.5t-156.5 89.5t-91.5 126t-31.5 146zM115 375q0 -67 29 -129t83.5 -112t142.5 -79.5t197 -29.5q110 0 198 29.5t142.5 79.5t83.5 112t29 129t-29 129.5t-83.5 113t-142.5 81t-198 30.5q-109 0 -197 -30.5 t-142.5 -81t-83.5 -113t-29 -129.5zM184 1096q0 -132 100.5 -228t282.5 -96q94 0 169 27.5t120.5 74t69.5 104t24 120.5q0 79 -34 142.5t-90 100.5t-122 56.5t-137 19.5t-137.5 -19.5t-122.5 -57.5t-89.5 -101t-33.5 -143z" />
<glyph unicode="9" horiz-adv-x="1146" d="M80 989q0 89 31.5 171t91.5 148t156.5 105.5t215.5 40.5q120 0 217 -39.5t157 -105t92 -147.5t32 -171q0 -151 -84 -266l-497 -725h-52l375 551l55 67q-27 -20 -49 -34q-109 -56 -246 -56q-119 0 -215.5 39t-156.5 105t-91.5 147.5t-31.5 169.5zM123 989q0 -79 29 -152.5 t83.5 -133t142.5 -95t197 -35.5q110 0 198.5 35.5t143.5 95t84 133t29 152.5q0 80 -29 154t-84 134t-143.5 96t-198.5 36q-109 0 -197 -36t-142.5 -96t-83.5 -134t-29 -154z" />
<glyph unicode=":" horiz-adv-x="245" d="M72 41q0 23 14.5 36t34.5 13q19 0 33 -14.5t14 -34.5q0 -17 -14 -31t-33 -14q-20 0 -34.5 12t-14.5 33zM74 698q0 23 14.5 36.5t34.5 13.5q19 0 33 -15t14 -35q0 -17 -14 -31t-33 -14q-20 0 -34.5 12t-14.5 33z" />
<glyph unicode=";" horiz-adv-x="245" d="M2 -213h49l113 266h-66zM74 698q0 23 14.5 36.5t34.5 13.5q19 0 33 -15t14 -35q0 -17 -14 -31t-33 -14q-20 0 -34.5 12t-14.5 33z" />
<glyph unicode="&#x3c;" horiz-adv-x="854" d="M43 674v39l750 399v-51l-695 -367l695 -358v-51z" />
<glyph unicode="=" horiz-adv-x="989" d="M76 401v41h813v-41h-813zM76 745v43h813v-43h-813z" />
<glyph unicode="&#x3e;" horiz-adv-x="847" d="M57 281v51l697 356l-697 369v51l750 -399v-39z" />
<glyph unicode="?" horiz-adv-x="1017" d="M33 1188q57 120 166.5 190t269.5 70q113 0 206 -35.5t152 -96t91 -138t30 -162.5q-1 -64 -18 -118.5t-40.5 -91.5t-61.5 -71.5t-69 -55t-75 -44.5q-34 -17 -44 -22.5t-38 -22t-37.5 -25.5t-27.5 -27t-25 -34t-12.5 -38.5t-5.5 -47.5v-238h-45v240q0 51 16 90t51 69.5 t65 49t83 45.5l12 6q47 25 82.5 51.5t69.5 66t53.5 94.5t21.5 122q2 76 -26 145.5t-81.5 123.5t-138 86t-188.5 32q-144 0 -245.5 -64.5t-151.5 -171.5zM430 35q0 17 12.5 29t28.5 12q15 0 27 -12t12 -29q0 -14 -12 -26.5t-27 -12.5t-28 12.5t-13 26.5z" />
<glyph unicode="@" horiz-adv-x="1525" d="M70 692q2 112 35 221t97 205.5t151 170t205 116.5t251 43q187 0 336.5 -75t234 -208.5t86.5 -300.5q1 -82 -19 -167t-59.5 -158.5t-92 -130t-120.5 -85t-141 -20.5q-49 5 -76.5 43t-17.5 111h-6q-44 -70 -122.5 -115t-160.5 -41q-100 5 -174 92t-74 211q0 142 50 257.5 t150.5 186t234.5 70.5q27 0 58.5 -7.5t69.5 -27t65.5 -62t33.5 -101.5l47 131h41l-158 -519q-18 -45 -18 -92q0 -92 96 -92q97 0 179 77t126.5 195t44.5 244q0 183 -102 312l10 -11q-88 113 -226 175.5t-290 62.5q-125 0 -236.5 -40t-194 -108.5t-143 -159t-91.5 -193.5 t-33 -210q-1 -104 20.5 -198t71 -178.5t123.5 -145.5t183.5 -97t244.5 -36q100 0 201 41l14 -39q-102 -41 -215 -41q-142 0 -258 37.5t-196 102t-134 153t-78.5 189t-23.5 212.5zM449 604q0 -101 59 -177.5t151 -76.5q166 0 275 164q61 149 102 334q0 105 -54 165t-153 60 q-76 1 -140 -26t-107.5 -72.5t-74 -107t-44.5 -128t-14 -135.5z" />
<glyph unicode="A" horiz-adv-x="1277" d="M41 0l577 1454h44l575 -1454h-49l-195 477h-710l-193 -477h-49zM301 520h674q-58 147 -168.5 434t-167.5 435z" />
<glyph unicode="B" horiz-adv-x="1243" d="M133 0v1432h580q113 0 190 -56.5t115 -148.5q24 -65 24 -140t-24 -139q-46 -114 -150 -172q89 -20 154 -79.5t95 -138t30 -165.5q0 -75 -24.5 -144t-70 -125.5t-119 -90t-163.5 -33.5h-637zM178 43h592q80 0 145 29.5t105.5 79.5t62 111.5t21.5 127.5q0 67 -21.5 129.5 t-62 112.5t-105.5 80t-145 30h-592v-700zM178 788h535q96 0 163.5 49.5t100.5 127.5q22 58 22 120q0 64 -22 125q-33 78 -100.5 127t-163.5 49h-535v-598z" />
<glyph unicode="C" horiz-adv-x="1523" d="M78 715q0 303 207 520q208 211 495 211q145 0 272 -55.5t224 -155.5q102 -106 154 -231h-50q-45 107 -135 200q-89 93 -209.5 145t-255.5 52q-133 0 -254 -52t-211 -145q-192 -199 -192 -489q0 -287 192 -482q91 -94 211.5 -146t253.5 -52q135 0 255.5 52t209.5 146 q90 90 135 199h50q-55 -127 -154 -231q-97 -100 -224 -155.5t-272 -55.5q-287 0 -495 211q-207 217 -207 514z" />
<glyph unicode="D" horiz-adv-x="1415" d="M131 0v1434h485q136 0 252.5 -40.5t198.5 -109.5t140 -161t86 -195.5t28 -212.5q0 -137 -45 -263t-130.5 -228t-222.5 -163t-307 -61h-485zM174 43h442q128 0 237 37.5t186.5 102t132 150t80.5 182.5t26 200t-26 200t-80.5 183.5t-131.5 151.5t-186.5 103t-237.5 38h-442 v-1348z" />
<glyph unicode="E" horiz-adv-x="1026" d="M133 0v1434h795v-43h-752v-652h735v-45h-735v-651h756v-43h-799z" />
<glyph unicode="F" horiz-adv-x="985" d="M133 0v1434h776v-43h-735v-652h651v-45h-651v-694h-41z" />
<glyph unicode="G" horiz-adv-x="1566" d="M92 715q0 146 54.5 278.5t150.5 237.5q99 102 227 158.5t271 56.5q216 0 396 -122.5t251 -328.5h-47q-72 188 -237 297t-363 109q-131 0 -252 -54.5t-215 -148.5q-87 -96 -139 -222t-52 -261q0 -133 52 -260.5t139 -223.5q93 -95 214 -148.5t253 -53.5q140 0 275 65.5 t232.5 185t124.5 263.5h-626v45h682q-6 -83 -35 -152q-74 -190 -267.5 -322t-385.5 -132q-143 0 -271 57.5t-227 159.5q-97 103 -151 235.5t-54 280.5z" />
<glyph unicode="H" horiz-adv-x="1234" d="M133 0v1434h43v-686h879v686h45v-1434h-45v705h-879v-705h-43z" />
<glyph unicode="I" horiz-adv-x="780" d="M66 0v41h301v1354h-301v39h647v-39h-303v-1354h303v-41h-647z" />
<glyph unicode="J" horiz-adv-x="890" d="M57 0v45q141 0 259.5 33.5t209.5 100.5t142 176t51 251v785h-438v41h481v-826q0 -122 -36 -222.5t-99.5 -171t-152.5 -118.5t-193.5 -71t-223.5 -23z" />
<glyph unicode="K" horiz-adv-x="1095" d="M131 0v1434h45v-1434h-45zM213 698v37l762 699h72l-791 -715l811 -719h-72z" />
<glyph unicode="L" horiz-adv-x="1013" d="M133 0v1434h45v-1387h762v-47h-807z" />
<glyph unicode="M" horiz-adv-x="1513" d="M133 0v1434h41l586 -867l590 867h41v-1434h-43v1362l-572 -848h-28l-572 846v-1360h-43z" />
<glyph unicode="N" horiz-adv-x="1273" d="M133 0v1434h37l936 -1352v1352h43v-1434h-41l-930 1343v-1343h-45z" />
<glyph unicode="O" horiz-adv-x="1634" d="M80 717q0 148 57.5 281.5t159.5 238.5q100 103 232.5 160t281.5 57q151 0 284.5 -57t233.5 -160q101 -104 158 -238t57 -282t-57 -282t-158 -238q-100 -103 -233.5 -160t-284.5 -57q-149 0 -281.5 57t-232.5 160q-102 105 -159.5 238.5t-57.5 281.5zM125 717 q0 -139 53.5 -265t147.5 -223q96 -96 221.5 -150t263.5 -54q140 0 266.5 54t220.5 150t147.5 222t53.5 266q0 139 -53 265t-148 222q-94 96 -220.5 150.5t-266.5 54.5q-138 0 -263.5 -54.5t-221.5 -150.5q-94 -97 -147.5 -222.5t-53.5 -264.5z" />
<glyph unicode="P" horiz-adv-x="1148" d="M133 0v1434h498q104 0 188 -38.5t136 -102.5t80 -142.5t28 -163.5q0 -86 -28 -165t-80 -142t-136 -101t-188 -38h-453v-541h-45zM178 584h453q94 0 170 34t122.5 91.5t71.5 128t25 147.5t-25 148t-71.5 129t-122.5 92.5t-170 34.5h-453v-805z" />
<glyph unicode="Q" horiz-adv-x="1650" d="M88 717q0 148 57.5 281.5t159.5 238.5q100 103 232.5 160t281.5 57q151 0 284.5 -57t233.5 -160q101 -104 158 -238t57 -282q0 -147 -55.5 -279.5t-155.5 -236.5l228 -201h-70l-192 168q-204 -188 -488 -188q-149 0 -281.5 57t-232.5 160q-102 105 -159.5 238.5 t-57.5 281.5zM133 717q0 -139 53.5 -265t147.5 -223q96 -96 221.5 -150t263.5 -54q127 0 245 46.5t210 127.5l-436 387h67l406 -353q93 96 145.5 221t52.5 263q0 139 -53.5 265t-148.5 222t-221 150.5t-267 54.5q-138 0 -263.5 -54.5t-221.5 -150.5q-94 -97 -147.5 -222.5 t-53.5 -264.5z" />
<glyph unicode="R" horiz-adv-x="1161" d="M133 0v1434h498q104 0 188.5 -36.5t136.5 -96.5t79.5 -134.5t27.5 -154.5q0 -81 -27.5 -155t-79.5 -134t-136 -95.5t-189 -35.5h-215l655 -592h-65l-658 596v37h283q94 0 170 32.5t122.5 86.5t71.5 121t25 139t-25 138.5t-71.5 120.5t-122.5 86t-170 32h-455v-1389h-43z " />
<glyph unicode="S" horiz-adv-x="1206" d="M109 358l45 4l2 -18q13 -97 85.5 -171t167.5 -109t193 -35q84 0 165 24.5t147 68.5t106.5 113t40.5 152q0 40 -8 76q-9 39 -28.5 70.5t-43 54t-60 40t-68.5 28t-78.5 19.5t-79.5 13.5t-83 9.5q-52 5 -84 9.5t-81 13t-81 20t-72 28.5t-66 41t-50.5 55t-37.5 73.5t-17 93.5 q-1 15 -1 30q0 118 71 212q66 85 176.5 130.5t236.5 45.5q81 0 155.5 -19.5t137 -57.5t106.5 -98.5t58 -137.5l4 -25l-43 -6l-4 20q-20 92 -76 154q-61 62 -158 96q-92 32 -181 31h-11q-108 -2 -208.5 -42.5t-160.5 -117.5q-60 -75 -60 -182q0 -15 1 -31q4 -50 21 -90 t40 -68t61.5 -50t71.5 -35t84.5 -23.5t86.5 -15.5t90 -11q53 -5 89 -9.5t86 -14.5t84.5 -22t73.5 -32t65 -45.5t47.5 -62.5t31.5 -82q10 -48 10 -88q0 -92 -44.5 -169t-117.5 -126.5t-163 -76.5t-183 -27q-80 0 -161.5 23t-152 66t-118.5 112t-57 153z" />
<glyph unicode="T" horiz-adv-x="1148" d="M55 1389v45h1026v-45h-491v-1389h-43v1389h-492z" />
<glyph unicode="U" horiz-adv-x="1277" d="M139 391v1043h45v-1045q0 -87 41 -157.5t108 -113.5t147 -66t163 -23q66 0 130.5 14t124 43.5t105 71.5t72.5 102t27 131v1043h45v-1045q0 -77 -29.5 -144t-79.5 -114t-115.5 -81t-136.5 -50t-143 -16q-91 0 -179.5 26.5t-161.5 76t-118 128.5t-45 176z" />
<glyph unicode="V" horiz-adv-x="1290" d="M45 1432h49l549 -1389l549 1389h49l-575 -1455h-43z" />
<glyph unicode="W" horiz-adv-x="1824" d="M45 1432h45l453 -1369l336 955h53l338 -952l454 1366h45l-479 -1446h-37l-348 979q-60 -173 -176 -500.5t-168 -478.5h-37z" />
<glyph unicode="X" horiz-adv-x="1191" d="M51 0l520 715l-520 719h53l492 -676l494 676h51l-520 -719l520 -715h-51l-494 676l-492 -676h-53z" />
<glyph unicode="Y" horiz-adv-x="1185" d="M39 1432h55l496 -793l495 793h56l-529 -842v-590h-45v590z" />
<glyph unicode="Z" horiz-adv-x="1214" d="M72 0v57l1011 1336h-981v41h1026v-60l-1011 -1331h1028v-43h-1073z" />
<glyph unicode="[" horiz-adv-x="466" d="M162 -141v1722h272v-41h-229v-1640h221v-41h-264z" />
<glyph unicode="\" horiz-adv-x="739" d="M49 1581h45l580 -1696h-45z" />
<glyph unicode="]" horiz-adv-x="436" d="M29 1540v41h272v-1722h-264v41h221v1640h-229z" />
<glyph unicode="^" horiz-adv-x="919" d="M66 664l380 770h33l383 -770h-49l-350 708l-352 -708h-45z" />
<glyph unicode="_" horiz-adv-x="1101" d="M76 -18h940v-43h-940v43z" />
<glyph unicode="`" horiz-adv-x="477" d="M119 1634h61l129 -164h-49z" />
<glyph unicode="a" horiz-adv-x="1392" d="M107 554q0 121 43 228q58 149 185.5 240.5t313.5 91.5q184 0 319 -93t187 -265l-2 96v256h39v-1108h-41v147l2 211q-54 -172 -187.5 -268t-316.5 -96q-186 0 -313.5 91.5t-185.5 240.5q-43 107 -43 228zM148 554q0 -113 38 -214q54 -137 172.5 -221t290.5 -84 q173 0 291 84t172 221q40 101 40 214t-40 214q-54 137 -172 221t-291 84q-172 0 -290.5 -84t-172.5 -221q-38 -101 -38 -214z" />
<glyph unicode="b" horiz-adv-x="1413" d="M201 0v1432h41l-2 -676q50 172 184.5 265t318.5 93q187 0 315 -91.5t187 -240.5q41 -107 41 -228t-41 -228q-59 -149 -187 -240.5t-315 -91.5q-181 0 -315 96t-188 268l2 -211v-147h-41zM243 554q0 -113 40 -214q53 -137 170.5 -221t289.5 -84q173 0 291 84t172 221 q40 101 40 214t-40 214q-54 137 -172 221t-291 84q-172 0 -289.5 -84t-170.5 -221q-40 -101 -40 -214z" />
<glyph unicode="c" horiz-adv-x="1288" d="M125 555q0 118 41 227q59 149 187.5 240.5t314.5 91.5q207 -3 334.5 -98.5t171.5 -265.5h-44q-42 153 -157.5 237.5t-304.5 85.5q-173 0 -291 -84t-172 -221q-39 -98 -39 -213q0 -117 39 -215q54 -137 172 -221t291 -84q381 0 465 332h43q-45 -187 -177 -280t-331 -93 q-186 0 -314.5 91.5t-187.5 240.5q-41 109 -41 229z" />
<glyph unicode="d" horiz-adv-x="1419" d="M127 554q0 121 41 228q59 149 187 240.5t315 91.5q184 0 319 -93t185 -265l-3 678h41v-1434h-41v147l3 211q-54 -172 -188.5 -268t-315.5 -96q-187 0 -315 91.5t-187 240.5q-41 107 -41 228zM167 554q0 -113 40 -214q54 -137 172 -221t291 -84q172 0 289.5 84t170.5 221 q40 101 40 214t-40 214q-53 137 -170.5 221t-289.5 84q-173 0 -291 -84t-172 -221q-40 -101 -40 -214z" />
<glyph unicode="e" horiz-adv-x="1292" d="M104 553q0 125 41 227q59 149 187 240.5t315 91.5q241 0 392 -158q149 -156 149 -395v-6h-1043q0 -117 39 -215q54 -137 172 -221t291 -84q153 0 271 71t180 207h43q-64 -155 -193.5 -237t-300.5 -82q-187 0 -315 91.5t-187 240.5q-41 102 -41 229zM145 592h1002 q-14 214 -151 346.5t-349 132.5q-173 0 -291 -84t-172 -221q-32 -78 -39 -174z" />
<glyph unicode="f" horiz-adv-x="671" d="M16 1059v39h217q3 194 101 282q84 76 231 76q34 0 70 -4l-4 -41q-35 3 -66 3q-133 0 -203 -62q-85 -79 -88 -254h338v-39h-338v-1059h-41v1059h-217z" />
<glyph unicode="g" horiz-adv-x="1409" d="M125 554q0 121 41 228q59 149 187.5 240.5t314.5 91.5q184 0 318.5 -93t184.5 -265v96v256h39v-977q0 -239 -151 -394t-391 -155q-178 0 -311.5 85t-190.5 249h43q51 -136 173.5 -214.5t285.5 -78.5q223 0 362 142.5t139 363.5l2 229q-54 -172 -187.5 -268t-315.5 -96 q-186 0 -314.5 91.5t-187.5 240.5q-41 107 -41 228zM165 554q0 -113 40 -214q54 -137 172 -221t291 -84t290.5 83.5t171.5 221.5q38 101 38 214t-38 214q-54 138 -171.5 221.5t-290.5 83.5t-291 -84t-172 -221q-40 -101 -40 -214z" />
<glyph unicode="h" horiz-adv-x="1361" d="M201 0v1432h41l-2 -629q27 99 86 164q67 71 160 107t196 36h3q225 0 351 -140q128 -142 129 -372v-6v-592h-41v592v6q-2 212 -118 342q-115 129 -323 129h-3q-202 0 -324 -131q-111 -121 -114 -330v-608h-41z" />
<glyph unicode="i" horiz-adv-x="434" d="M172 1348q0 17 12 29t29 12t29 -12t12 -29t-12 -29t-29 -12t-29 12t-12 29zM193 0h40v1112h-40v-1112z" />
<glyph unicode="j" horiz-adv-x="522" d="M-31 -406q32 -3 61 -3q150 0 224 77q84 87 84 295v1149h-41v-1149q0 -191 -72 -266q-63 -65 -191 -65q-29 0 -61 3zM276 1352q0 17 12 29t29 12t29 -12t12 -29t-12 -29t-29 -12t-29 12t-12 29z" />
<glyph unicode="k" horiz-adv-x="1075" d="M201 0v1432h41v-963l198 205l463 434h64l-496 -465l524 -643h-57l-498 612l-198 -196v-416h-41z" />
<glyph unicode="l" horiz-adv-x="413" d="M172 0v1432h41v-1432h-41z" />
<glyph unicode="m" horiz-adv-x="2050" d="M201 0v1108h41v-266q22 79 65 131q115 137 314 137h4q192 0 303 -123q37 -41 64 -102.5t36 -120.5q11 116 88 209q112 137 311 137h5q192 0 303 -123q117 -129 120 -371v-8v-608h-40v608v8q-3 227 -109 342q-102 111 -274 111h-5q-179 0 -280 -123q-98 -118 -98 -340 v-606h-41v606q0 231 -111 352q-99 111 -272 111h-4q-180 0 -281 -123q-95 -113 -98 -321v-625h-41z" />
<glyph unicode="n" horiz-adv-x="1363" d="M201 0v1108h41l-2 -305q27 100 88 164q65 71 158 107t196 36h3q227 0 353 -141q127 -142 127 -373v-596h-41v596q0 214 -116 344q-115 129 -325 129h-3q-93 0 -178 -33t-146 -98q-109 -119 -112 -330v-608h-43z" />
<glyph unicode="o" horiz-adv-x="1349" d="M125 555q0 119 43 229q62 160 196 247q131 85 302 85h8h8q170 0 302 -85q134 -87 198 -247q41 -105 41 -229t-41 -229q-64 -162 -198 -248q-130 -85 -302 -84h-8h-8q-170 0 -300 84q-134 86 -198 248q-43 110 -43 229zM166 555q0 -110 39 -213q59 -151 183 -231 q120 -78 278 -78h8h8q158 0 278 78q124 80 183 231q39 95 39 213q0 115 -39 213q-59 151 -182 230t-287 79t-287 -79t-182 -230q-39 -106 -39 -213z" />
<glyph unicode="p" horiz-adv-x="1419" d="M201 -324v1432h41v-147l-2 -211q54 173 187.5 269.5t315.5 96.5q186 0 314.5 -92.5t187.5 -241.5q41 -107 41 -228t-41 -228q-59 -149 -187.5 -240.5t-314.5 -91.5q-184 0 -318.5 93t-184.5 265l2 -676h-41zM241 554q0 -113 40 -214q54 -138 171.5 -221.5t290.5 -83.5 t291 84t172 221q40 101 40 214t-40 214q-54 137 -172 221t-291 84t-290.5 -83.5t-171.5 -221.5q-40 -101 -40 -214z" />
<glyph unicode="q" horiz-adv-x="1411" d="M125 554q0 121 43 228q58 149 186 241.5t314 92.5q182 0 316.5 -97t186.5 -269l-2 211v147h41v-1432h-41l5 676q-52 -172 -187 -265t-319 -93q-186 0 -314.5 92t-185.5 240q-43 107 -43 228zM167 554q0 -113 38 -214q54 -137 172.5 -221t290.5 -84q173 0 290.5 83.5 t171.5 221.5q40 101 40 214t-40 214q-54 138 -171.5 221.5t-290.5 83.5q-172 0 -290.5 -84t-172.5 -221q-38 -101 -38 -214z" />
<glyph unicode="r" horiz-adv-x="847" d="M201 -4v1112h41v-238q43 115 142 178.5t224 63.5q90 0 180 -33v-43q-88 35 -180 35q-159 -1 -261 -106t-105 -265v-704h-41z" />
<glyph unicode="s" horiz-adv-x="1175" d="M139 340h41q0 -105 68 -178.5t176 -106.5q80 -24 170 -24h18l148 22q101 29 163 94.5t62 159.5q0 32 -8 59.5t-19 48t-34 38.5t-41 29.5t-52.5 22.5t-55.5 17t-63.5 13t-64 9.5t-67.5 8.5q-183 23 -254 48q-142 48 -164 166q-4 23 -4 50q0 105 68 177.5t177 103.5 q73 22 170 22q87 0 170 -22q115 -34 186.5 -107.5t71.5 -177.5h-40q0 89 -63 151.5t-165 92.5q-80 22 -160 22q-87 0 -157 -20q-97 -28 -156 -89.5t-59 -152.5q0 -29 7.5 -53.5t18 -43t31.5 -34.5t39 -27t48.5 -20.5t52.5 -15.5t60 -12t61 -9t65 -8q49 -6 73.5 -9.5t70 -11 t69.5 -14.5t60.5 -19t57 -26t45 -35t37 -45t21 -56.5t8.5 -70.5q0 -110 -70.5 -185.5t-185.5 -109.5q-77 -22 -158 -22h-20q-96 0 -178 26q-123 36 -199 119t-76 205z" />
<glyph unicode="t" horiz-adv-x="690" d="M55 1063v39h209v231h41v-231h305v-39h-305v-694q0 -45 2 -80.5t7 -69t13.5 -58t21.5 -46.5t31 -36.5t42 -25t55 -15t68.5 -4.5t83.5 5l4 -39q-52 -6 -95 -6q-50 0 -88 8q-71 14 -112.5 61t-57.5 119t-16 187v694h-209z" />
<glyph unicode="u" horiz-adv-x="1351" d="M188 512v596h41v-596q-1 -214 115 -344q115 -129 327 -129h3q201 0 323 131q112 122 115 330v608h41v-1108h-41l2 305q-27 -99 -86 -164q-67 -71 -159.5 -107t-194.5 -36h-3q-228 0 -355 141q-128 142 -128 373z" />
<glyph unicode="v" horiz-adv-x="1105" d="M49 1108h43l459 -1065l459 1065h45l-477 -1108h-54z" />
<glyph unicode="w" horiz-adv-x="1626" d="M61 1108h43l353 -1053l342 1004h30l342 -1004l353 1053h43l-373 -1108h-49l-248 725l-84 258l-82 -256l-248 -727h-51z" />
<glyph unicode="x" horiz-adv-x="1064" d="M61 0l445 571l-418 537h51l393 -502l394 502h51l-418 -537l445 -571h-52l-420 539l-417 -539h-54z" />
<glyph unicode="y" horiz-adv-x="1114" d="M63 1108h46l446 -1067l471 1067h45l-657 -1495h-45l163 381z" />
<glyph unicode="z" horiz-adv-x="956" d="M66 0v53l778 1016h-756v39h797v-53l-776 -1014h780v-41h-823z" />
<glyph unicode="{" horiz-adv-x="471" d="M78 684v61q141 49 141 291v359q0 88 41 140t125 52h37v-39q-39 2 -65.5 -3t-49 -21t-33 -48t-10.5 -81v-361q0 -130 -36.5 -206.5t-112.5 -112.5v-2q77 -35 113 -116.5t36 -190.5v-349q0 -87 39.5 -122t118.5 -37v-37q-110 0 -156.5 48.5t-46.5 143.5v348q0 228 -141 283 z" />
<glyph unicode="|" horiz-adv-x="352" d="M154 -305v1859h47v-1859h-47z" />
<glyph unicode="~" horiz-adv-x="989" d="M61 643q45 72 97 109t109.5 39t113 -14.5t123.5 -53.5q78 -45 141 -57.5t125 16t111 106.5l30 -18q-40 -67 -89 -103.5t-104.5 -41.5t-113 11t-123.5 52q-63 34 -111.5 49t-97 12t-93 -34.5t-89.5 -91.5z" />
<glyph unicode="&#xa1;" horiz-adv-x="260" d="M82 1012q0 14 12 26.5t27 12.5t28 -12.5t13 -26.5q0 -17 -12.5 -29t-28.5 -12q-15 0 -27 12t-12 29zM96 -389h49v1255h-49v-1255z" />
<glyph unicode="&#xa2;" horiz-adv-x="1458" d="M53 713q0 145 54 273.5t151 227.5q191 197 461 209v174h45v-172q138 -3 261.5 -58.5t219.5 -152.5q98 -103 152 -231h-49q-42 106 -134 201q-88 89 -205 141t-245 55v-1337q128 1 245 54t205 145q91 88 134 196h49q-58 -135 -152 -229q-96 -99 -219.5 -154.5 t-261.5 -56.5v-207h-45v209q-134 4 -252 58.5t-209 150.5q-97 99 -151 228.5t-54 275.5zM96 713q0 -135 50.5 -257.5t140.5 -213.5q84 -89 196 -141t236 -58v1335q-124 -6 -235.5 -57t-196.5 -137q-90 -93 -140.5 -215t-50.5 -256z" />
<glyph unicode="&#xa3;" horiz-adv-x="991" d="M27 0v43h161v643h-157v41h157v336q0 97 31 172.5t83 120t116 67.5t135 23q51 0 93.5 -6t88 -23.5t81 -46t66 -76t48.5 -110.5l-41 -10q-67 229 -332 229q-63 0 -118.5 -19t-102 -57.5t-73.5 -106.5t-27 -157v-336h454v-41h-454v-643h718v-43h-927z" />
<glyph unicode="&#xa5;" horiz-adv-x="1103" d="M-2 1432h55l496 -795l495 795h56l-502 -799h326v-41h-353v-186h351v-41h-351v-365h-45v365h-344v41h344v186h-342v41h316z" />
<glyph unicode="&#xa6;" horiz-adv-x="319" d="M135 -293v799h47v-799h-47zM135 780v809h47v-809h-47z" />
<glyph unicode="&#xa7;" horiz-adv-x="819" d="M59 94l33 33q52 -51 126 -80t151 -29q74 -1 144.5 25t119 81.5t47.5 127.5q0 178 -297 237q-64 9 -118 27t-99.5 47t-71.5 73.5t-26 100.5q0 64 41 126.5t127 99.5q-62 35 -94.5 94t-32.5 119q0 134 99 216.5t236 82.5q161 0 265 -78l-21 -37q-94 68 -250 72 q-116 2 -200.5 -71.5t-83.5 -184.5q0 -56 23.5 -97t66 -65.5t86 -37.5t100.5 -22q55 -8 101.5 -21t90 -35t74 -51t48.5 -70.5t18 -90.5q0 -149 -156 -225q71 -51 97 -97t26 -112q0 -68 -34 -123t-88.5 -88t-116 -50.5t-121.5 -17.5q-198 0 -310 121zM117 737q0 -36 12 -65.5 t36 -50.5t49 -36t61 -26t61.5 -17t60.5 -12q56 -10 162 -49q69 28 112.5 83.5t43.5 121.5q0 34 -11.5 63t-27.5 49.5t-43.5 38t-51 28.5t-60 21.5t-60.5 16t-62 12.5q-82 15 -123 27q-162 -76 -159 -205z" />
<glyph unicode="&#xa8;" horiz-adv-x="665" d="M106 1602q0 23 15 36t35 13q19 0 33 -14.5t14 -34.5q0 -18 -14.5 -32t-32.5 -14q-20 0 -35 12.5t-15 33.5zM426 1602q0 23 14.5 36t34.5 13q19 0 33 -14.5t14 -34.5q0 -18 -14 -32t-33 -14q-20 0 -34.5 12.5t-14.5 33.5z" />
<glyph unicode="&#xa9;" horiz-adv-x="1540" d="M76 717q0 151 55 284t148 226t219 146.5t264 53.5q140 0 266.5 -53.5t220 -146.5t148.5 -226t55 -284t-55 -285t-148.5 -227.5t-220 -148t-266.5 -54.5q-185 0 -342 92t-250.5 257t-93.5 366zM121 717q0 -144 51 -270t137.5 -213.5t204 -138t248.5 -50.5q132 0 250.5 50 t205.5 138t138 214t51 270q0 192 -87 345.5t-234 237.5t-324 84q-131 0 -248.5 -49.5t-204 -136t-137.5 -212t-51 -269.5zM385 709q0 159 113 278q112 115 270 115q160 0 272 -115q51 -51 90 -143h-51q-24 62 -73 108q-96 103 -238 103q-140 0 -240 -103q-98 -101 -98 -243 q0 -141 98 -242q97 -100 240 -100q144 0 238 100q47 44 73 108h51q-40 -91 -90 -141q-114 -117 -272 -117q-156 0 -270 117q-113 113 -113 275z" />
<glyph unicode="&#xaa;" horiz-adv-x="1204" d="M55 -80h1100v-39h-1100v39zM84 578.5q0 115.5 41 218.5q54 142 176 229.5t301 87.5q174 0 303.5 -89t179.5 -253l-2 92v244h37v-1059h-39v141l2 201q-52 -165 -180 -256.5t-301 -91.5q-179 0 -301 87.5t-176 229.5q-41 103 -41 218.5zM123 579q0 -107 37 -204 q50 -132 164 -212.5t278 -80.5t276.5 80.5t165.5 212.5q37 97 37 204t-37 205q-53 131 -165.5 211t-276.5 80t-278 -80.5t-164 -210.5q-37 -98 -37 -205z" />
<glyph unicode="&#xab;" horiz-adv-x="786" d="M63 739l320 402h55l-321 -402l321 -395h-55zM326 739l319 402h55l-321 -402l321 -395h-55z" />
<glyph unicode="&#xac;" horiz-adv-x="1056" d="M53 782v41h899v-481h-41v440h-858z" />
<glyph unicode="&#xad;" horiz-adv-x="729" d="M55 696v41h572v-41h-572z" />
<glyph unicode="&#xae;" horiz-adv-x="1560" d="M74 721q0 153 55.5 288.5t150 229.5t222 148.5t268.5 54.5q143 0 272 -54.5t224 -149t151 -229.5t56 -288q0 -154 -56 -290t-151 -231.5t-224 -150.5t-272 -55q-141 0 -268.5 55t-222 150.5t-150 231.5t-55.5 290zM117 721q0 -147 52 -275.5t140 -218t208 -141t253 -51.5 q135 0 256.5 51.5t210.5 141t141 218t52 275.5t-52 274.5t-141 216t-210 139t-257 50.5q-133 0 -253 -50.5t-208 -139t-140 -216.5t-52 -274zM563 354v742h234q104 0 172 -56.5t69 -152.5q0 -85 -64 -149.5t-177 -67.5h-76l305 -316h-57l-293 314v39h121q99 1 149.5 54 t50.5 128q0 73 -50.5 120.5t-149.5 47.5h-193v-703h-41z" />
<glyph unicode="&#xaf;" horiz-adv-x="681" d="M96 1569v39h494v-39h-494z" />
<glyph unicode="&#xb0;" horiz-adv-x="598" d="M88 1231q0 90 62.5 152.5t152.5 62.5q91 0 154 -63t63 -152t-63 -152t-154 -63q-90 0 -152.5 62.5t-62.5 152.5zM129 1231q0 -70 51.5 -123t122.5 -53t122.5 53t51.5 123q0 69 -51.5 121.5t-122.5 52.5t-122.5 -52.5t-51.5 -121.5z" />
<glyph unicode="&#xb1;" horiz-adv-x="1007" d="M70 0v39h870v-39h-870zM70 692v41h405v408h43v-408h406v-41h-406v-422h-43v422h-405z" />
<glyph unicode="&#xb2;" horiz-adv-x="755" d="M68 1266q0 120 77 200t217 80q136 0 215 -75.5t76 -182.5q-1 -67 -33.5 -128.5t-84.5 -104.5q-39 -33 -177.5 -148.5t-212.5 -179.5h514v-45h-589v37l432 366q50 41 77 94t29 105q3 93 -62.5 155t-183.5 62q-119 0 -185 -68t-66 -167h-43z" />
<glyph unicode="&#xb3;" horiz-adv-x="763" d="M72 872l45 2q10 -76 71 -126t170 -50q127 0 195 55t68 142q0 83 -69 141t-194 58h-67v41h67q108 0 164 53t56 129q0 84 -67 132t-157 48q-76 0 -134.5 -34.5t-69.5 -100.5l-44 2q13 88 84 133t164 45q109 0 190 -60t81 -167q0 -34 -15 -72t-53 -76t-92 -53 q91 -15 147 -75t56 -142q0 -103 -82.5 -172.5t-227.5 -69.5q-129 0 -200 60.5t-86 156.5z" />
<glyph unicode="&#xb4;" horiz-adv-x="417" d="M143 1470l133 164h62l-145 -164h-50z" />
<glyph unicode="&#xb5;" horiz-adv-x="1431" d="M94 0v1430h39l586 -865l588 865h39v-1430h-41v1358l-570 -846h-30l-570 844v-1356h-41z" />
<glyph unicode="&#xb6;" horiz-adv-x="1140" d="M53 1040q0 75 27 144.5t78 126t134 90t185 33.5h557v-1661h-41v1622h-475v-1622h-41v884q-102 4 -185 39t-134 89t-78 119.5t-27 135.5z" />
<glyph unicode="&#xb7;" horiz-adv-x="337" d="M117 688q0 23 14.5 36t34.5 13q19 0 33 -14.5t14 -34.5q0 -17 -14 -31t-33 -14q-20 0 -34.5 12t-14.5 33z" />
<glyph unicode="&#xb8;" horiz-adv-x="516" d="M98 -326l6 35q38 -24 93 -29.5t100.5 12.5t52.5 58q10 57 -51.5 87t-136.5 22q15 29 43.5 79t40.5 72h43l-68 -119q95 0 138 -46.5t34 -100.5q-9 -51 -54 -78.5t-112 -27.5q-69 0 -129 36z" />
<glyph unicode="&#xb9;" horiz-adv-x="460" d="M68 1245l211 295h43v-856h-43v780l-177 -243z" />
<glyph unicode="&#xba;" horiz-adv-x="733" d="M82 1149q0 117 79.5 194.5t196.5 77.5q119 0 200 -78t81 -194q0 -120 -80.5 -199.5t-198.5 -79.5q-119 0 -198.5 79t-79.5 200zM96 621v43h539v-43h-539zM125 1149q0 -105 68 -172.5t167 -67.5q97 0 165.5 67.5t68.5 172.5q0 102 -68 166.5t-166 64.5q-99 0 -167 -64.5 t-68 -166.5z" />
<glyph unicode="&#xbb;" horiz-adv-x="749" d="M45 344l322 395l-322 402h55l320 -402l-320 -395h-55zM307 344l322 395l-322 402h55l320 -402l-320 -395h-55z" />
<glyph unicode="&#xbc;" horiz-adv-x="1542" d="M92 1141l211 295h43v-830h-43v754l-176 -244zM266 -47l901 1575h50l-902 -1575h-49zM825 252l441 606h71v-610h119v-41h-119v-207h-45v207h-434zM874 248h420v579z" />
<glyph unicode="&#xbd;" horiz-adv-x="1617" d="M78 1141l211 295h43v-830h-43v754l-176 -244zM225 -47l901 1575h50l-902 -1575h-49zM913 -2v37l433 366q50 41 77 94t29 105q3 93 -62.5 155t-183.5 62q-119 0 -183.5 -67.5t-64.5 -167.5h-43q0 121 75.5 200.5t215.5 79.5q136 0 215 -75.5t76 -182.5q-1 -66 -34 -128 t-85 -105l-395 -332h520v-41h-590z" />
<glyph unicode="&#xbe;" horiz-adv-x="1738" d="M115 795l45 2q10 -76 71 -126t170 -50q127 0 195 54.5t68 141.5q0 83 -69 141t-194 58h-67v41h67q108 0 164 53t56 129q0 84 -67 132t-157 48q-76 0 -134.5 -34.5t-69.5 -100.5l-43 2q13 88 83.5 133t163.5 45q109 0 190 -60t81 -167q0 -34 -15 -72t-53 -76t-92 -53 q91 -15 147 -75t56 -142q0 -103 -82.5 -172t-227.5 -69q-129 0 -200 60.5t-86 156.5zM479 -47l901 1575h50l-902 -1575h-49zM1028 252l453 606h71v-610h95v-43h-95v-205h-45v205h-446zM1077 248h432v579z" />
<glyph unicode="&#xbf;" horiz-adv-x="1054" d="M94 35q-1 -85 30.5 -162.5t91 -138t152 -96t205.5 -35.5q160 0 270 70t167 192l-39 20q-50 -107 -151.5 -171t-246.5 -64q-104 0 -188.5 32t-138 85.5t-81.5 123t-26 146.5q3 67 22.5 122t53.5 94.5t69.5 66t82.5 51.5q108 57 146 87q82 68 83 173l-2 239h-45v-237 q0 -22 -2.5 -41.5t-13 -37t-16.5 -29t-25.5 -27t-26.5 -22t-34.5 -21.5t-34 -18.5t-38.5 -20.5q-44 -24 -75 -44.5t-69 -55t-61.5 -71.5t-40.5 -91.5t-18 -118.5zM532 1016q0 14 12 26.5t27 12.5q14 0 27.5 -13t13.5 -26q0 -17 -13 -29t-28 -10q-15 -2 -27 10t-12 29z" />
<glyph unicode="&#xc0;" horiz-adv-x="1196" d="M0 0l578 1454h43l575 -1454h-49l-195 477h-710l-193 -477h-49zM260 520h674q-57 147 -168 434t-168 435zM446 1706h62l129 -164h-49z" />
<glyph unicode="&#xc1;" horiz-adv-x="1196" d="M0 0l578 1454h43l575 -1454h-49l-195 477h-710l-193 -477h-49zM260 520h674q-57 147 -168 434t-168 435zM571 1540l134 164h61l-145 -164h-50z" />
<glyph unicode="&#xc2;" horiz-adv-x="1196" d="M0 0l578 1454h43l575 -1454h-49l-195 477h-710l-193 -477h-49zM260 520h674q-57 147 -168 434t-168 435zM416 1534l149 137h66l149 -137h-53l-129 106l-129 -106h-53z" />
<glyph unicode="&#xc3;" horiz-adv-x="1196" d="M0 0l578 1454h43l575 -1454h-49l-195 477h-710l-193 -477h-49zM260 520h674q-57 147 -168 434t-168 435zM418 1563q3 30 21.5 52.5t45.5 33.5q30 12 57 7.5t45 -19t38.5 -29t38 -22.5t43.5 1q37 16 49 62l35 -11q-16 -66 -70 -86q-29 -11 -55.5 -5.5t-45 20.5t-40 29 t-39.5 20.5t-45 -4.5q-37 -16 -45 -60z" />
<glyph unicode="&#xc4;" horiz-adv-x="1196" d="M0 0l578 1454h43l575 -1454h-49l-195 477h-710l-193 -477h-49zM260 520h674q-57 147 -168 434t-168 435zM391 1579q0 23 14.5 36t34.5 13q19 0 33 -14.5t14 -34.5q0 -17 -14 -31t-33 -14q-20 0 -34.5 12t-14.5 33zM711 1579q0 23 14.5 36t34.5 13q19 0 33 -14.5t14 -34.5 q0 -17 -14 -31t-33 -14q-20 0 -34.5 12t-14.5 33z" />
<glyph unicode="&#xc5;" horiz-adv-x="1196" d="M0 0l578 1454h43l575 -1454h-49l-195 477h-710l-193 -477h-49zM260 520h674q-57 147 -168 434t-168 435zM487 1612q0 45 32.5 76.5t78.5 31.5q48 0 81.5 -31.5t33.5 -76.5q0 -46 -33.5 -76.5t-83.5 -30.5q-44 0 -76.5 31.5t-32.5 75.5zM524 1612q0 -29 21.5 -50.5 t52.5 -21.5q32 0 55 21.5t23 50.5q0 31 -23 52.5t-55 21.5q-31 0 -52.5 -21.5t-21.5 -52.5z" />
<glyph unicode="&#xc6;" horiz-adv-x="1695" d="M8 0l801 1434h831v-43h-751v-654h735v-43h-735v-651h756v-43h-799v535h-490l-299 -535h-49zM377 578h469v821h-10z" />
<glyph unicode="&#xc7;" horiz-adv-x="1441" d="M39 715q0 144 54 273.5t151 230.5q208 211 495 211q145 0 272 -55.5t224 -155.5q101 -106 154 -232h-50q-46 109 -135 201q-89 93 -209.5 144.5t-255.5 51.5q-134 0 -254.5 -51.5t-210.5 -144.5t-141 -216t-51 -257q0 -135 51 -258.5t141 -214.5q91 -94 211.5 -146.5 t253.5 -52.5q134 0 255 52.5t210 146.5q91 91 135 198h50q-55 -127 -154 -231q-196 -202 -469 -211l-59 -107q95 0 138 -46.5t34 -100.5q-9 -51 -54 -78.5t-112 -27.5q-69 0 -129 36l6 35q38 -24 93 -29.5t100.5 12.5t52.5 58q10 57 -52 87t-137 22q15 29 78 139 q-139 3 -262.5 58t-218.5 153q-97 101 -151 231t-54 275z" />
<glyph unicode="&#xc8;" horiz-adv-x="944" d="M92 0h799v43h-756v651h735v45h-735v652h752v43h-795v-1434zM393 1702h62l129 -164h-49z" />
<glyph unicode="&#xc9;" horiz-adv-x="944" d="M92 0v1434h795v-43h-752v-652h735v-45h-735v-651h756v-43h-799zM469 1534l133 164h62l-146 -164h-49z" />
<glyph unicode="&#xca;" horiz-adv-x="944" d="M92 0v1434h795v-43h-752v-652h735v-45h-735v-651h756v-43h-799zM330 1538l149 137h66l149 -137h-53l-129 107l-129 -107h-53z" />
<glyph unicode="&#xcb;" horiz-adv-x="944" d="M92 0h799v43h-756v651h735v45h-735v652h752v43h-795v-1434zM297 1579q0 23 14.5 36t34.5 13q19 0 33 -14.5t14 -34.5q0 -17 -14 -31t-33 -14q-20 0 -34.5 12t-14.5 33zM616 1579q0 23 15 36t35 13q19 0 33 -14.5t14 -34.5q0 -17 -14 -31t-33 -14q-20 0 -35 12t-15 33z " />
<glyph unicode="&#xcc;" horiz-adv-x="698" d="M25 0h647v41h-303v1354h303v39h-647v-39h301v-1354h-301v-41zM201 1696h61l129 -164h-49z" />
<glyph unicode="&#xcd;" horiz-adv-x="698" d="M25 0v41h301v1354h-301v39h647v-39h-303v-1354h303v-41h-647zM328 1530l133 164h61l-145 -164h-49z" />
<glyph unicode="&#xce;" horiz-adv-x="698" d="M25 0v41h301v1354h-301v39h647v-39h-303v-1354h303v-41h-647zM166 1534l149 137h66l149 -137h-53l-129 106l-129 -106h-53z" />
<glyph unicode="&#xcf;" horiz-adv-x="698" d="M25 0h647v41h-303v1354h303v39h-647v-39h301v-1354h-301v-41zM141 1575q0 23 14.5 36t34.5 13q19 0 33.5 -14.5t14.5 -34.5q0 -17 -14.5 -31t-33.5 -14q-20 0 -34.5 12t-14.5 33zM461 1575q0 23 14.5 36t34.5 13q19 0 33 -14.5t14 -34.5q0 -17 -14 -31t-33 -14 q-20 0 -34.5 12t-14.5 33z" />
<glyph unicode="&#xd0;" horiz-adv-x="1400" d="M4 700v39h154v693h485q137 0 253 -40t198 -109t140 -161t86 -195t28 -212q0 -137 -45 -263t-130.5 -228t-222.5 -163t-307 -61h-485v700h-154zM201 43h442q128 0 237 37.5t186.5 102t132 150t80.5 182.5t26 200q0 129 -42.5 248t-122.5 215t-209 153.5t-288 57.5h-442 v-650h284v-39h-284v-657z" />
<glyph unicode="&#xd1;" horiz-adv-x="1191" d="M92 0v1434h37l936 -1352v1352h43v-1434h-41l-930 1343v-1343h-45zM432 1538q6 63 72 92q32 13 61 8t48 -20t41 -30.5t40.5 -24t46.5 1.5q39 16 54 65l36 -12q-20 -70 -75 -92q-31 -12 -59.5 -6t-48 22t-42.5 31t-42.5 21.5t-47.5 -5.5q-41 -17 -49 -63z" />
<glyph unicode="&#xd2;" horiz-adv-x="1552" d="M39 717q0 -148 57.5 -281.5t159.5 -238.5q100 -103 232.5 -160t281.5 -57q151 0 284.5 57t233.5 160q101 104 158 238t57 282t-57 282t-158 238q-100 103 -233.5 160t-284.5 57q-149 0 -281.5 -57t-232.5 -160q-102 -105 -159.5 -238.5t-57.5 -281.5zM84 717 q0 139 53.5 264.5t147.5 222.5q96 96 221.5 150.5t263.5 54.5q140 0 266.5 -54.5t220.5 -150.5q95 -96 148 -222t53 -265q0 -140 -53.5 -266t-147.5 -222t-220.5 -150t-266.5 -54q-138 0 -263.5 54t-221.5 150q-94 97 -147.5 223t-53.5 265zM641 1714h61l129 -164h-49z" />
<glyph unicode="&#xd3;" horiz-adv-x="1552" d="M39 717q0 148 57.5 281.5t159.5 238.5q100 103 232.5 160t281.5 57q151 0 284.5 -57t233.5 -160q101 -104 158 -238t57 -282t-57 -282t-158 -238q-100 -103 -233.5 -160t-284.5 -57q-149 0 -281.5 57t-232.5 160q-102 105 -159.5 238.5t-57.5 281.5zM84 717 q0 -139 53.5 -265t147.5 -223q96 -96 221.5 -150t263.5 -54q140 0 266.5 54t220.5 150t147.5 222t53.5 266q0 139 -53 265t-148 222q-94 96 -220.5 150.5t-266.5 54.5q-138 0 -263.5 -54.5t-221.5 -150.5q-94 -97 -147.5 -222.5t-53.5 -264.5zM750 1546l133 164h61 l-145 -164h-49z" />
<glyph unicode="&#xd4;" horiz-adv-x="1552" d="M39 717q0 148 57.5 281.5t159.5 238.5q100 103 232.5 160t281.5 57q151 0 284.5 -57t233.5 -160q101 -104 158 -238t57 -282t-57 -282t-158 -238q-100 -103 -233.5 -160t-284.5 -57q-149 0 -281.5 57t-232.5 160q-102 105 -159.5 238.5t-57.5 281.5zM84 717 q0 -139 53.5 -265t147.5 -223q96 -96 221.5 -150t263.5 -54q140 0 266.5 54t220.5 150t147.5 222t53.5 266q0 139 -53 265t-148 222q-94 96 -220.5 150.5t-266.5 54.5q-138 0 -263.5 -54.5t-221.5 -150.5q-94 -97 -147.5 -222.5t-53.5 -264.5zM588 1556l149 138h66l149 -138 h-53l-129 107l-129 -107h-53z" />
<glyph unicode="&#xd5;" horiz-adv-x="1552" d="M39 717q0 148 57.5 281.5t159.5 238.5q100 103 232.5 160t281.5 57q151 0 284.5 -57t233.5 -160q101 -104 158 -238t57 -282t-57 -282t-158 -238q-100 -103 -233.5 -160t-284.5 -57q-149 0 -281.5 57t-232.5 160q-102 105 -159.5 238.5t-57.5 281.5zM84 717 q0 -139 53.5 -265t147.5 -223q96 -96 221.5 -150t263.5 -54q140 0 266.5 54t220.5 150t147.5 222t53.5 266q0 139 -53 265t-148 222q-94 96 -220.5 150.5t-266.5 54.5q-138 0 -263.5 -54.5t-221.5 -150.5q-94 -97 -147.5 -222.5t-53.5 -264.5zM575 1571q6 63 72 92 q32 13 60.5 8t47.5 -20.5t41 -31t40.5 -24t46.5 1.5q38 15 53 66l37 -12q-20 -70 -76 -92q-31 -12 -59.5 -6t-47.5 22t-42 31t-42.5 21.5t-48.5 -5.5q-40 -18 -47 -63z" />
<glyph unicode="&#xd6;" horiz-adv-x="1552" d="M39 717q0 -148 57.5 -281.5t159.5 -238.5q100 -103 232.5 -160t281.5 -57q151 0 284.5 57t233.5 160q101 104 158 238t57 282t-57 282t-158 238q-100 103 -233.5 160t-284.5 57q-149 0 -281.5 -57t-232.5 -160q-102 -105 -159.5 -238.5t-57.5 -281.5zM84 717 q0 139 53.5 264.5t147.5 222.5q96 96 221.5 150.5t263.5 54.5q140 0 266.5 -54.5t220.5 -150.5q95 -96 148 -222t53 -265q0 -140 -53.5 -266t-147.5 -222t-220.5 -150t-266.5 -54q-138 0 -263.5 54t-221.5 150q-94 97 -147.5 223t-53.5 265zM571 1614q0 23 15 36t35 13 q19 0 33 -14.5t14 -34.5q0 -17 -14 -31t-33 -14q-20 0 -35 12t-15 33zM891 1614q0 23 14.5 36t34.5 13q19 0 33 -14.5t14 -34.5q0 -17 -14 -31t-33 -14q-20 0 -34.5 12t-14.5 33z" />
<glyph unicode="&#xd7;" horiz-adv-x="821" d="M84 373l313 315l-307 309l29 25l307 -307l295 295l29 -25l-297 -299l307 -307l-27 -25l-307 308l-313 -316z" />
<glyph unicode="&#xd8;" horiz-adv-x="1552" d="M39 717q0 148 57.5 281.5t159.5 238.5q100 103 232.5 160t281.5 57q206 0 379 -106l117 182h51l-133 -205q59 -43 104 -88q101 -104 158 -238t57 -282t-57 -282t-158 -238q-100 -103 -233.5 -160t-284.5 -57q-206 0 -379 106l-129 -203h-53l145 228q-63 48 -98 86 q-102 105 -159.5 238.5t-57.5 281.5zM84 717q0 -139 53.5 -265t147.5 -223q36 -39 94 -79l745 1159q-165 100 -354 100q-138 0 -263.5 -54.5t-221.5 -150.5q-94 -97 -147.5 -222.5t-53.5 -264.5zM416 125q165 -100 354 -100q140 0 266.5 54t220.5 150t147.5 222t53.5 266 q0 139 -53 265t-148 222q-54 51 -98 82z" />
<glyph unicode="&#xd9;" horiz-adv-x="1206" d="M98 391q0 -97 45 -176t118 -128.5t161.5 -76t179.5 -26.5q72 0 143 16t136.5 50t115.5 81t79.5 114t29.5 144v1045h-45v-1043q0 -71 -27 -131t-72.5 -102t-105 -71.5t-124 -43.5t-130.5 -14q-83 0 -163 23t-147 66t-108 113.5t-41 157.5v1045h-45v-1043zM465 1700h61 l129 -164h-49z" />
<glyph unicode="&#xda;" horiz-adv-x="1206" d="M98 391v1043h45v-1045q0 -87 41 -157.5t108 -113.5t147 -66t163 -23q66 0 130.5 14t124 43.5t105 71.5t72.5 102t27 131v1043h45v-1045q0 -77 -29.5 -144t-79.5 -114t-115.5 -81t-136.5 -50t-143 -16q-91 0 -179.5 26.5t-161.5 76t-118 128.5t-45 176zM537 1532l133 164 h61l-145 -164h-49z" />
<glyph unicode="&#xdb;" horiz-adv-x="1206" d="M98 391v1043h45v-1045q0 -87 41 -157.5t108 -113.5t147 -66t163 -23q66 0 130.5 14t124 43.5t105 71.5t72.5 102t27 131v1043h45v-1045q0 -77 -29.5 -144t-79.5 -114t-115.5 -81t-136.5 -50t-143 -16q-91 0 -179.5 26.5t-161.5 76t-118 128.5t-45 176zM422 1534l149 137 h66l149 -137h-53l-129 106l-129 -106h-53z" />
<glyph unicode="&#xdc;" horiz-adv-x="1206" d="M98 391q0 -97 45 -176t118 -128.5t161.5 -76t179.5 -26.5q72 0 143 16t136.5 50t115.5 81t79.5 114t29.5 144v1045h-45v-1043q0 -71 -27 -131t-72.5 -102t-105 -71.5t-124 -43.5t-130.5 -14q-83 0 -163 23t-147 66t-108 113.5t-41 157.5v1045h-45v-1043zM399 1571 q0 23 15 36t35 13q19 0 33 -14.5t14 -34.5q0 -17 -14 -31t-33 -14q-20 0 -35 12t-15 33zM719 1571q0 23 14.5 36t34.5 13q19 0 33 -14.5t14 -34.5q0 -17 -14 -31t-33 -14q-20 0 -34.5 12t-14.5 33z" />
<glyph unicode="&#xdd;" horiz-adv-x="1103" d="M-2 1432h55l496 -793l495 793h56l-529 -842v-590h-45v590zM492 1526l133 164h61l-145 -164h-49z" />
<glyph unicode="&#xde;" horiz-adv-x="1075" d="M92 0v1434h45v-275h451q104 0 188.5 -38.5t136.5 -102t79.5 -142t27.5 -163.5t-27.5 -163.5t-79.5 -142t-136 -101.5t-189 -38h-451v-268h-45zM137 311h451q94 0 170 34t122.5 91t71.5 127.5t25 147.5t-25 148t-71.5 128.5t-122.5 92t-170 34.5h-451v-803z" />
<glyph unicode="&#xdf;" horiz-adv-x="1007" d="M90 -4v1102q-1 87 32.5 156t89.5 110.5t125 62.5t144 21q71 0 137.5 -23t119.5 -64.5t84.5 -107.5t31.5 -145q0 -269 -246 -334v-2q67 -8 124.5 -35.5t98 -66t69.5 -86.5t42.5 -97t13.5 -96q0 -101 -39.5 -180.5t-105.5 -127.5t-149.5 -73t-174 -22.5t-176.5 28.5v50 q50 -19 85.5 -25t92.5 -6q199 0 309.5 101t110.5 251q0 68 -27.5 131.5t-79 115t-133 82.5t-180.5 32h-108v45h108q80 1 144 31t101.5 76.5t56 101t14.5 108.5q0 133 -97.5 214t-226.5 81q-66 0 -126 -18.5t-109.5 -54.5t-79 -96.5t-29.5 -137.5v-1102h-47z" />
<glyph unicode="&#xe0;" horiz-adv-x="1310" d="M66 554q0 121 43 228q58 149 185.5 240.5t313.5 91.5q184 0 319 -93t187 -265l-2 96v256h39v-1108h-41v147l2 211q-54 -172 -187.5 -268t-316.5 -96q-186 0 -313.5 91.5t-185.5 240.5q-43 107 -43 228zM107 554q0 -113 38 -214q54 -137 172.5 -221t290.5 -84 q173 0 291 84t172 221q40 101 40 214t-40 214q-54 137 -172 221t-291 84q-172 0 -290.5 -84t-172.5 -221q-38 -101 -38 -214zM516 1432h62l129 -164h-50z" />
<glyph unicode="&#xe1;" horiz-adv-x="1310" d="M66 554q0 121 43 228q58 149 185.5 240.5t313.5 91.5q184 0 319 -93t187 -265l-2 96v256h39v-1108h-41v147l2 211q-54 -172 -187.5 -268t-316.5 -96q-186 0 -313.5 91.5t-185.5 240.5q-43 107 -43 228zM107 554q0 -113 38 -214q54 -137 172.5 -221t290.5 -84 q173 0 291 84t172 221q40 101 40 214t-40 214q-54 137 -172 221t-291 84q-172 0 -290.5 -84t-172.5 -221q-38 -101 -38 -214zM614 1274l134 164h61l-145 -164h-50z" />
<glyph unicode="&#xe2;" horiz-adv-x="1310" d="M66 554q0 121 43 228q58 149 185.5 240.5t313.5 91.5q184 0 319 -93t187 -265l-2 96v256h39v-1108h-41v147l2 211q-54 -172 -187.5 -268t-316.5 -96q-186 0 -313.5 91.5t-185.5 240.5q-43 107 -43 228zM107 554q0 -113 38 -214q54 -137 172.5 -221t290.5 -84 q173 0 291 84t172 221q40 101 40 214t-40 214q-54 137 -172 221t-291 84q-172 0 -290.5 -84t-172.5 -221q-38 -101 -38 -214zM494 1300l149 138h66l149 -138h-53l-129 107l-129 -107h-53z" />
<glyph unicode="&#xe3;" horiz-adv-x="1310" d="M66 554q0 121 43 228q58 149 185.5 240.5t313.5 91.5q184 0 319 -93t187 -265l-2 96v256h39v-1108h-41v147l2 211q-54 -172 -187.5 -268t-316.5 -96q-186 0 -313.5 91.5t-185.5 240.5q-43 107 -43 228zM107 554q0 -113 38 -214q54 -137 172.5 -221t290.5 -84 q173 0 291 84t172 221q40 101 40 214t-40 214q-54 137 -172 221t-291 84q-172 0 -290.5 -84t-172.5 -221q-38 -101 -38 -214zM492 1329q3 30 21.5 52.5t45.5 33.5q37 15 69 5t52 -30t47 -33t53 -3q37 16 49 61l35 -10q-16 -66 -69 -86q-29 -11 -55.5 -5.5t-45 20t-40.5 29 t-40 20.5t-45 -5q-37 -17 -45 -59z" />
<glyph unicode="&#xe4;" horiz-adv-x="1310" d="M66 554q0 121 43 228q58 149 185.5 240.5t313.5 91.5q184 0 319 -93t187 -265l-2 96v256h39v-1108h-41v147l2 211q-54 -172 -187.5 -268t-316.5 -96q-186 0 -313.5 91.5t-185.5 240.5q-43 107 -43 228zM107 554q0 -113 38 -214q54 -137 172.5 -221t290.5 -84 q173 0 291 84t172 221q40 101 40 214t-40 214q-54 137 -172 221t-291 84q-172 0 -290.5 -84t-172.5 -221q-38 -101 -38 -214zM481 1380q0 23 14.5 36.5t34.5 13.5q19 0 33.5 -15t14.5 -35q0 -17 -14.5 -31t-33.5 -14q-20 0 -34.5 12t-14.5 33zM801 1380q0 23 14.5 36.5 t34.5 13.5q19 0 33 -15t14 -35q0 -17 -14 -31t-33 -14q-20 0 -34.5 12t-14.5 33z" />
<glyph unicode="&#xe5;" horiz-adv-x="1310" d="M66 554q0 121 43 228q58 149 185.5 240.5t313.5 91.5q184 0 319 -93t187 -265l-2 96v256h39v-1108h-41v147l2 211q-54 -172 -187.5 -268t-316.5 -96q-186 0 -313.5 91.5t-185.5 240.5q-43 107 -43 228zM107 554q0 -113 38 -214q54 -137 172.5 -221t290.5 -84 q173 0 291 84t172 221q40 101 40 214t-40 214q-54 137 -172 221t-291 84q-172 0 -290.5 -84t-172.5 -221q-38 -101 -38 -214zM563 1337q0 46 32.5 77.5t78.5 31.5q47 0 80.5 -31.5t33.5 -77.5t-33 -76t-83 -30q-45 0 -77 31t-32 75zM600 1337q0 -29 21.5 -50t52.5 -21 q32 0 55 21t23 50q0 31 -23 52.5t-55 21.5q-31 0 -52.5 -21.5t-21.5 -52.5z" />
<glyph unicode="&#xe6;" horiz-adv-x="2256" d="M66 554q0 121 43 228q58 149 185.5 240.5t313.5 91.5q184 0 319 -93t187 -265l-2 96v256h39v-328q59 149 187 240.5t315 91.5q159 0 283 -72.5t191 -199.5t66 -287h-1042q0 -117 39 -215q54 -137 172 -221t291 -84q153 0 270.5 71t179.5 207h43q-64 -155 -193 -237 t-300 -82q-191 0 -319 93.5t-185 260.5v-346h-39v147l2 211q-54 -172 -187.5 -268t-316.5 -96q-186 0 -313.5 91.5t-185.5 240.5q-43 107 -43 228zM107 554q0 -113 38 -214q54 -137 172.5 -221t290.5 -84q173 0 291 84t172 221q40 101 40 214t-40 214q-54 137 -172 221 t-291 84q-172 0 -290.5 -84t-172.5 -221q-38 -101 -38 -214zM1151 592h1001q-14 214 -150.5 346.5t-348.5 132.5q-173 0 -291 -84t-172 -221q-33 -78 -39 -170v-4z" />
<glyph unicode="&#xe7;" horiz-adv-x="1206" d="M84 555q0 118 41 227q59 149 187.5 240.5t314.5 91.5q207 -3 334.5 -98.5t171.5 -265.5h-43q-42 153 -158 237.5t-305 85.5q-173 0 -291 -84t-172 -221q-39 -98 -39 -213q0 -117 39 -215q54 -137 172 -221t291 -84q381 0 465 332h43q-43 -179 -163.5 -271t-303.5 -100 l-60 -105q95 0 138 -46.5t34 -100.5q-9 -51 -54 -78.5t-112 -27.5q-69 0 -129 36l7 35q38 -24 93 -29.5t100 12.5t52 58q10 57 -51.5 87t-136.5 22q14 29 43 78.5t33 56.5q-186 1 -313.5 92.5t-186.5 239.5q-41 109 -41 229z" />
<glyph unicode="&#xe8;" horiz-adv-x="1210" d="M63 553q0 -127 41 -229q59 -149 187 -240.5t315 -91.5q171 0 300.5 82t193.5 237h-43q-62 -136 -180 -207t-271 -71q-173 0 -291 84t-172 221q-39 98 -39 215h1043q2 243 -149 401t-392 158q-187 0 -315 -91.5t-187 -240.5q-41 -102 -41 -227zM104 592q7 96 39 174 q54 137 172 221t291 84q212 0 349 -132.5t151 -346.5h-1002zM479 1442h62l129 -164h-49z" />
<glyph unicode="&#xe9;" horiz-adv-x="1210" d="M63 553q0 125 41 227q59 149 187 240.5t315 91.5q241 0 392 -158t149 -401h-1043q0 -117 39 -215q54 -137 172 -221t291 -84q153 0 271 71t180 207h43q-64 -155 -193.5 -237t-300.5 -82q-187 0 -315 91.5t-187 240.5q-41 102 -41 229zM104 592h1002q-14 214 -151 346.5 t-349 132.5q-173 0 -291 -84t-172 -221q-32 -78 -39 -174zM596 1274l133 164h62l-146 -164h-49z" />
<glyph unicode="&#xea;" horiz-adv-x="1210" d="M63 553q0 125 41 227q59 149 187 240.5t315 91.5q241 0 392 -158t149 -401h-1043q0 -117 39 -215q54 -137 172 -221t291 -84q153 0 271 71t180 207h43q-64 -155 -193.5 -237t-300.5 -82q-187 0 -315 91.5t-187 240.5q-41 102 -41 229zM104 592h1002q-14 214 -151 346.5 t-349 132.5q-173 0 -291 -84t-172 -221q-32 -78 -39 -174zM438 1303l150 137h65l150 -137h-53l-129 106l-129 -106h-54z" />
<glyph unicode="&#xeb;" horiz-adv-x="1210" d="M63 553q0 -127 41 -229q59 -149 187 -240.5t315 -91.5q171 0 300.5 82t193.5 237h-43q-62 -136 -180 -207t-271 -71q-173 0 -291 84t-172 221q-39 98 -39 215h1043q2 243 -149 401t-392 158q-187 0 -315 -91.5t-187 -240.5q-41 -102 -41 -227zM104 592q7 96 39 174 q54 137 172 221t291 84q212 0 349 -132.5t151 -346.5h-1002zM416 1378q0 23 14.5 36t34.5 13q19 0 33 -14.5t14 -34.5q0 -17 -14 -31t-33 -14q-20 0 -34.5 12t-14.5 33zM735 1378q0 23 14.5 36t34.5 13q19 0 33 -14.5t14 -34.5q0 -17 -14 -31t-33 -14q-20 0 -34.5 12 t-14.5 33z" />
<glyph unicode="&#xec;" horiz-adv-x="352" d="M29 1450h53l108 -178h-40zM152 0h41v1112h-41v-1112z" />
<glyph unicode="&#xed;" horiz-adv-x="352" d="M152 0v1112h41v-1112h-41zM156 1266l116 170h56l-129 -170h-43z" />
<glyph unicode="&#xee;" horiz-adv-x="352" d="M14 1296l131 144h58l131 -144h-47l-113 113l-113 -113h-47zM152 0v1112h41v-1112h-41z" />
<glyph unicode="&#xef;" horiz-adv-x="352" d="M41 1372q0 22 13 33.5t32 11.5t32 -13t13 -32q0 -17 -13 -30t-32 -13t-32 11t-13 32zM152 0h41v1112h-41v-1112zM225 1372q0 22 13 33.5t32 11.5q18 0 31.5 -13.5t13.5 -31.5q0 -17 -14 -30t-31 -13q-19 0 -32 11t-13 32z" />
<glyph unicode="&#xf0;" d="M84 555q0 119 43 229q62 160 196.5 247t309.5 85q183 3 313 -98l-201 274l-167 -98v41l145 86l-82 117h49l68 -97l184 109v-43l-162 -94l293 -406q42 -58 68 -123q41 -105 41 -229t-41 -229q-64 -161 -197.5 -247.5t-310.5 -84.5q-175 -2 -308.5 84.5t-197.5 247.5 q-43 110 -43 229zM125 555q0 -110 39 -213q59 -151 182.5 -231t286.5 -78q163 -2 286.5 78t182.5 231q39 95 39 213q0 115 -39 213q-59 151 -182 230t-287 79t-287 -79t-182 -230q-39 -106 -39 -213z" />
<glyph unicode="&#xf1;" horiz-adv-x="1282" d="M160 0v1108h41l-2 -305q27 100 88 164q65 71 158 107t196 36q229 1 356 -141t127 -373v-596h-41v596q0 214 -115.5 344t-328.5 129q-93 0 -178 -33t-146 -98q-109 -119 -112 -330v-608h-43zM465 1343q3 30 21.5 53t45.5 34q30 12 57 7.5t45 -19t38.5 -29t38 -22.5t43.5 1 q37 16 49 62l35 -11q-16 -66 -70 -86q-29 -11 -55.5 -5.5t-45 20.5t-40 29t-39.5 20.5t-45 -4.5q-37 -16 -45 -60z" />
<glyph unicode="&#xf2;" d="M84 555q0 -119 43 -229q64 -161 197.5 -247.5t308.5 -84.5q177 -2 310.5 84.5t197.5 247.5q41 105 41 229t-41 229q-64 160 -198.5 247t-309.5 85q-175 2 -309.5 -85t-196.5 -247q-43 -110 -43 -229zM125 555q0 107 39 213q59 151 182 230t287 79t287 -79t182 -230 q39 -98 39 -213q0 -118 -39 -213q-59 -151 -182.5 -231t-286.5 -78q-163 -2 -286.5 78t-182.5 231q-39 103 -39 213zM500 1434h61l129 -164h-49z" />
<glyph unicode="&#xf3;" d="M84 555q0 119 43 229q62 160 196.5 247t309.5 85q175 2 309.5 -85t198.5 -247q41 -105 41 -229t-41 -229q-64 -161 -197.5 -247.5t-310.5 -84.5q-175 -2 -308.5 84.5t-197.5 247.5q-43 110 -43 229zM125 555q0 -110 39 -213q59 -151 182.5 -231t286.5 -78 q163 -2 286.5 78t182.5 231q39 95 39 213q0 115 -39 213q-59 151 -182 230t-287 79t-287 -79t-182 -230q-39 -106 -39 -213zM612 1266l133 164h62l-145 -164h-50z" />
<glyph unicode="&#xf4;" d="M84 555q0 119 43 229q62 160 196.5 247t309.5 85q175 2 309.5 -85t198.5 -247q41 -105 41 -229t-41 -229q-64 -161 -197.5 -247.5t-310.5 -84.5q-175 -2 -308.5 84.5t-197.5 247.5q-43 110 -43 229zM125 555q0 -110 39 -213q59 -151 182.5 -231t286.5 -78 q163 -2 286.5 78t182.5 231q39 95 39 213q0 115 -39 213q-59 151 -182 230t-287 79t-287 -79t-182 -230q-39 -106 -39 -213zM483 1300l150 138h65l150 -138h-53l-129 107l-129 -107h-54z" />
<glyph unicode="&#xf5;" d="M84 555q0 119 43 229q62 160 196.5 247t309.5 85q175 2 309.5 -85t198.5 -247q41 -105 41 -229t-41 -229q-64 -161 -197.5 -247.5t-310.5 -84.5q-175 -2 -308.5 84.5t-197.5 247.5q-43 110 -43 229zM125 555q0 -110 39 -213q59 -151 182.5 -231t286.5 -78 q163 -2 286.5 78t182.5 231q39 95 39 213q0 115 -39 213q-59 151 -182 230t-287 79t-287 -79t-182 -230q-39 -106 -39 -213zM461 1341q3 30 21.5 52.5t45.5 33.5q30 12 57 7.5t45 -18.5t38.5 -29t38 -22.5t43.5 1.5q37 16 49 61l35 -10q-16 -66 -70 -86q-29 -11 -55.5 -5.5 t-45 20.5t-40 29t-39.5 20.5t-45 -4.5q-37 -16 -45 -60z" />
<glyph unicode="&#xf6;" d="M84 555q0 -119 43 -229q64 -161 197.5 -247.5t308.5 -84.5q177 -2 310.5 84.5t197.5 247.5q41 105 41 229t-41 229q-64 160 -198.5 247t-309.5 85q-175 2 -309.5 -85t-196.5 -247q-43 -110 -43 -229zM125 555q0 107 39 213q59 151 182 230t287 79t287 -79t182 -230 q39 -98 39 -213q0 -118 -39 -213q-59 -151 -182.5 -231t-286.5 -78q-163 -2 -286.5 78t-182.5 231q-39 103 -39 213zM436 1382q0 23 14.5 36.5t34.5 13.5q19 0 33 -15t14 -35q0 -17 -14 -31t-33 -14q-20 0 -34.5 12t-14.5 33zM756 1382q0 23 14.5 36.5t34.5 13.5 q19 0 33 -15t14 -35q0 -17 -14 -31t-33 -14q-20 0 -34.5 12t-14.5 33z" />
<glyph unicode="&#xf7;" horiz-adv-x="964" d="M37 707h856v43h-856v-43zM422 393q0 23 14.5 36t34.5 13q19 0 33 -14.5t14 -34.5q0 -17 -14 -31t-33 -14q-20 0 -34.5 12t-14.5 33zM422 1036q0 23 14.5 36t34.5 13q19 0 33 -14.5t14 -34.5q0 -17 -14 -31t-33 -14q-20 0 -34.5 12t-14.5 33z" />
<glyph unicode="&#xf8;" d="M84 555q0 119 43 229q62 160 196.5 247t309.5 85q150 0 266 -61l96 168h43l-106 -187q141 -84 209 -252q41 -105 41 -229t-41 -229q-64 -161 -197.5 -247.5t-310.5 -84.5q-150 0 -264 57l-95 -166h-45l107 187q-142 85 -209 254q-43 110 -43 229zM125 555q0 -110 39 -213 q62 -157 190 -238l525 916q-111 57 -246 57q-164 0 -287 -79t-182 -230q-39 -106 -39 -213zM389 86q109 -56 244 -53q163 -2 286.5 78t182.5 231q39 95 39 213q0 115 -39 213q-61 154 -191 233z" />
<glyph unicode="&#xf9;" horiz-adv-x="1269" d="M147 512q0 -231 128 -373t358 -141q102 0 194.5 36t159.5 107q59 65 86 164l-2 -305h41v1108h-41v-608q-3 -208 -115 -330q-122 -131 -323 -131q-214 -1 -329.5 129t-115.5 344v596h-41v-596zM508 1438h61l129 -164h-49z" />
<glyph unicode="&#xfa;" horiz-adv-x="1269" d="M147 512v596h41v-596q0 -214 115.5 -344t329.5 -129q201 0 323 131q112 122 115 330v608h41v-1108h-41l2 305q-27 -99 -86 -164q-67 -71 -159.5 -107t-194.5 -36q-230 -1 -358 141t-128 373zM582 1268l133 164h61l-145 -164h-49z" />
<glyph unicode="&#xfb;" horiz-adv-x="1269" d="M147 512v596h41v-596q0 -214 115.5 -344t329.5 -129q201 0 323 131q112 122 115 330v608h41v-1108h-41l2 305q-27 -99 -86 -164q-67 -71 -159.5 -107t-194.5 -36q-230 -1 -358 141t-128 373zM453 1300l149 138h66l149 -138h-53l-129 107l-129 -107h-53z" />
<glyph unicode="&#xfc;" horiz-adv-x="1269" d="M147 512q0 -231 128 -373t358 -141q102 0 194.5 36t159.5 107q59 65 86 164l-2 -305h41v1108h-41v-608q-3 -208 -115 -330q-122 -131 -323 -131q-214 -1 -329.5 129t-115.5 344v596h-41v-596zM446 1384q0 23 15 36.5t35 13.5q19 0 33 -15t14 -35q0 -17 -14 -31t-33 -14 q-20 0 -35 12t-15 33zM766 1384q0 23 14.5 36.5t34.5 13.5q19 0 33 -15t14 -35q0 -17 -14 -31t-33 -14q-20 0 -34.5 12t-14.5 33z" />
<glyph unicode="&#xfd;" horiz-adv-x="1032" d="M23 1108h45l446 -1067l471 1067h45l-657 -1495h-45l164 381zM485 1274l133 164h62l-145 -164h-50z" />
<glyph unicode="&#xfe;" horiz-adv-x="1337" d="M160 -324v1760h41v-475l-2 -211q54 173 187.5 269.5t315.5 96.5q186 0 314.5 -92.5t187.5 -241.5q41 -107 41 -228t-41 -228q-59 -149 -187.5 -240.5t-314.5 -91.5q-184 0 -318.5 93t-184.5 265l2 -676h-41zM200 554q0 -113 40 -214q54 -138 171.5 -221.5t290.5 -83.5 t291 84t172 221q40 101 40 214t-40 214q-54 137 -172 221t-291 84t-290.5 -83.5t-171.5 -221.5q-40 -101 -40 -214z" />
<glyph unicode="&#xff;" horiz-adv-x="1032" d="M23 1108l469 -1114l-164 -381h45l657 1495h-45l-471 -1067l-446 1067h-45zM332 1382q0 22 13.5 35t33.5 13q17 0 31 -14.5t14 -33.5q0 -17 -14 -30t-31 -13q-20 0 -33.5 11.5t-13.5 31.5zM637 1382q0 22 13.5 35t33.5 13q17 0 31 -14.5t14 -33.5q0 -17 -14 -30t-31 -13 q-20 0 -33.5 11.5t-13.5 31.5z" />
<glyph unicode="&#x152;" horiz-adv-x="1718" d="M37 717q0 157 57 295.5t158 242.5q189 195 516 195q59 0 121 -10h788v-43h-751v-658h735v-45h-735v-655h755v-43h-774q-65 -12 -139 -12q-324 0 -516 198q-100 103 -157.5 244t-57.5 291zM80 717q0 -141 54.5 -274t148.5 -228q183 -186 485 -186q74 0 113 6v1362 q-49 8 -113 8q-306 0 -485 -182q-95 -97 -149 -227.5t-54 -278.5z" />
<glyph unicode="&#x153;" horiz-adv-x="2287" d="M84 555q0 119 43 229q62 160 196.5 247t309.5 85q175 2 309.5 -85t198.5 -247q16 -40 20 -96q3 47 21 92q59 149 186.5 240.5t314.5 91.5q241 0 392 -158t149 -401h-1042v-23q3 -107 39 -192q54 -138 171.5 -221.5t290.5 -83.5q153 0 271 71t180 207h43 q-64 -155 -193.5 -237t-300.5 -82q-187 0 -314.5 91.5t-186.5 240.5q-16 39 -21 86q-8 -57 -20 -84q-64 -161 -197.5 -247.5t-310.5 -84.5q-175 -2 -308.5 84.5t-197.5 247.5q-43 110 -43 229zM125 555q0 -110 39 -213q59 -151 182.5 -231t286.5 -78q163 -2 286.5 78 t182.5 231q39 91 39 211v25q-3 94 -39 190q-59 151 -182 230t-287 79t-287 -79t-182 -230q-39 -106 -39 -213zM1182 592h1001q-14 214 -151 346.5t-349 132.5q-173 0 -290.5 -83.5t-171.5 -221.5q-32 -78 -39 -174z" />
<glyph unicode="&#x178;" horiz-adv-x="1103" d="M-2 1432l528 -842v-590h45v590l529 842h-56l-495 -793l-496 793h-55zM342 1565q0 23 14.5 36t34.5 13q19 0 33 -14.5t14 -34.5q0 -17 -14 -31t-33 -14q-20 0 -34.5 12t-14.5 33zM662 1565q0 23 14.5 36t34.5 13q19 0 33 -14.5t14 -34.5q0 -17 -14 -31t-33 -14 q-20 0 -34.5 12t-14.5 33z" />
<glyph unicode="&#x2c6;" horiz-adv-x="595" d="M119 1481l149 137h66l149 -137h-53l-129 106l-129 -106h-53z" />
<glyph unicode="&#x2dc;" horiz-adv-x="528" d="M82 1483q6 61 68 86q30 12 57 7.5t44.5 -19t38.5 -29t38 -22.5t43 1q37 16 49 62l35 -10q-16 -66 -70 -86q-29 -11 -55.5 -5.5t-45 20t-40 29t-39.5 20.5t-45 -5q-37 -17 -45 -59z" />
<glyph unicode="&#x2000;" horiz-adv-x="860" />
<glyph unicode="&#x2001;" horiz-adv-x="1720" />
<glyph unicode="&#x2002;" horiz-adv-x="860" />
<glyph unicode="&#x2003;" horiz-adv-x="1720" />
<glyph unicode="&#x2004;" horiz-adv-x="573" />
<glyph unicode="&#x2005;" horiz-adv-x="430" />
<glyph unicode="&#x2006;" horiz-adv-x="286" />
<glyph unicode="&#x2007;" horiz-adv-x="286" />
<glyph unicode="&#x2008;" horiz-adv-x="215" />
<glyph unicode="&#x2009;" horiz-adv-x="344" />
<glyph unicode="&#x200a;" horiz-adv-x="95" />
<glyph unicode="&#x2010;" horiz-adv-x="704" d="M86 694v45h504v-45h-504z" />
<glyph unicode="&#x2011;" horiz-adv-x="704" d="M86 694v45h504v-45h-504z" />
<glyph unicode="&#x2012;" horiz-adv-x="704" d="M86 694v45h504v-45h-504z" />
<glyph unicode="&#x2013;" horiz-adv-x="1185" d="M98 709v43h979v-43h-979z" />
<glyph unicode="&#x2014;" horiz-adv-x="1572" d="M109 702v43h1370v-43h-1370z" />
<glyph unicode="&#x2018;" horiz-adv-x="327" d="M80 1171l113 267h49l-97 -267h-65z" />
<glyph unicode="&#x2019;" horiz-adv-x="321" d="M84 1171l96 267h60l-111 -267h-45z" />
<glyph unicode="&#x201a;" horiz-adv-x="368" d="M57 -229l109 317h61l-123 -317h-47z" />
<glyph unicode="&#x201c;" horiz-adv-x="512" d="M80 1171l113 267h49l-97 -267h-65zM264 1171l113 267h49l-96 -267h-66z" />
<glyph unicode="&#x201d;" horiz-adv-x="497" d="M78 1171l96 267h66l-113 -267h-49zM262 1171l96 267h66l-113 -267h-49z" />
<glyph unicode="&#x201e;" horiz-adv-x="526" d="M68 -229l108 317h55l-125 -317h-38zM229 -229l109 317h55l-125 -317h-39z" />
<glyph unicode="&#x2022;" horiz-adv-x="536" d="M102 686q0 68 45.5 115t112.5 47q66 0 112 -47t46 -115q0 -67 -46 -113.5t-112 -46.5q-67 0 -112.5 46t-45.5 114z" />
<glyph unicode="&#x2026;" horiz-adv-x="757" d="M94 39q0 22 11 34.5t30 12.5q22 0 34.5 -12.5t12.5 -34.5q0 -18 -13 -30.5t-34 -12.5q-18 0 -29.5 12.5t-11.5 30.5zM330 39q0 21 12 34t31 13q22 0 34.5 -12.5t12.5 -34.5q0 -18 -13 -30.5t-34 -12.5q-18 0 -30.5 12.5t-12.5 30.5zM563 39q0 21 12 34t31 13 q20 0 32.5 -12.5t12.5 -34.5q0 -18 -12.5 -30.5t-32.5 -12.5q-18 0 -30.5 12.5t-12.5 30.5z" />
<glyph unicode="&#x202f;" horiz-adv-x="344" />
<glyph unicode="&#x2039;" horiz-adv-x="501" d="M51 700l322 402h55l-322 -402l322 -395h-55z" />
<glyph unicode="&#x203a;" horiz-adv-x="512" d="M82 301l321 395l-321 402h55l318 -402l-318 -395h-55z" />
<glyph unicode="&#x205f;" horiz-adv-x="430" />
<glyph unicode="&#x20ac;" horiz-adv-x="1470" d="M6 635v41h94v84h-94v41h98q19 227 199 413q99 100 226 155.5t270 55.5q142 0 268 -55.5t225 -155.5q101 -109 152 -231h-49q-48 112 -133 201q-89 92 -209.5 144t-253.5 52t-253.5 -52t-211.5 -144q-167 -174 -189 -383h369v-41h-373v-84h373v-41h-371q23 -225 191 -393 q91 -94 211.5 -146.5t253.5 -52.5t253.5 52.5t209.5 146.5q85 81 133 196h49q-56 -130 -152 -229q-99 -100 -225 -155.5t-268 -55.5q-143 0 -270 55.5t-226 155.5q-178 185 -201 426h-96z" />
<glyph unicode="&#x2122;" horiz-adv-x="1710" d="M41 1399v35h623v-35h-293v-787h-43v787h-287zM782 612v822h76l322 -590l321 590h80v-822h-45v795h-2l-332 -608h-45l-332 608h-2v-795h-41z" />
<glyph unicode="&#x25fc;" horiz-adv-x="1105" d="M0 0v1106h1106v-1106h-1106z" />
</font>
</defs>
</svg>
